<svg xmlns="http://www.w3.org/2000/svg" viewBox="0 0 919.4 498.83"><defs><style>.f4c01e91-ba0a-43e5-bb36-774107c2a5cd{fill:none;stroke-width:3.46px}.a5146022-8b15-42e4-84a9-649e5666ef3d,.aa10b090-4d5b-40df-83f9-d6150f955b11,.f4c01e91-ba0a-43e5-bb36-774107c2a5cd{stroke:#293c85;stroke-miterlimit:10}.aa10b090-4d5b-40df-83f9-d6150f955b11{fill:#293c85;stroke-width:.75px}.a5146022-8b15-42e4-84a9-649e5666ef3d{fill:#fff;stroke-width:5.99px}</style></defs><title>Asset 21</title><g id="f2e16889-8d44-4c9a-a457-594cfe233e4f" data-name="Layer 2"><g id="fd24b009-a6d7-4d75-98be-83764206b652" data-name="icons"><path d="M62.17,402.75h10l-29.28,71h-11l-29.28-71H12.65l24.5,61.51h.41Z" class="f4c01e91-ba0a-43e5-bb36-774107c2a5cd"/><path d="M81.58,424.71a47,47,0,0,1,19-3.86q10.11,0,15.5,5.9a20.23,20.23,0,0,1,5.39,14.13v32.84h-8.13l-1.12-6.51h-.31q-7.32,7.53-18.81,7.53a17.34,17.34,0,0,1-11.74-4.17q-4.83-4.17-4.83-11.39a14,14,0,0,1,6-11.69Q88.39,443,99.89,443h12.3v-.81q0-6.7-3.31-9.66t-11.43-3a34.55,34.55,0,0,0-15.26,3.46h-.61ZM112.19,459v-8.54H101.11q-15.36,0-15.36,8.08t10.78,8.08a18.46,18.46,0,0,0,8.64-2.18A24.09,24.09,0,0,0,112.19,459Z" class="f4c01e91-ba0a-43e5-bb36-774107c2a5cd"/><path d="M165.26,420.85q8.44,0,13.32,5.69a21.13,21.13,0,0,1,4.88,14.24v32.94h-9.25V441.79q0-12.41-11.19-12.4-8.84,0-16.67,9.76v34.57H137.1V421.87h8.13l1.12,6.5v1.53h.2Q154.78,420.86,165.26,420.85Z" class="f4c01e91-ba0a-43e5-bb36-774107c2a5cd"/><path d="M203.24,428.17a23.67,23.67,0,0,1,17.23-7.32,22.91,22.91,0,0,1,17.08,7.52h.31V399.5h9.25v74.22H239l-1.11-6.51h-.31a22.89,22.89,0,0,1-17.08,7.53,23.67,23.67,0,0,1-17.23-7.32q-7.38-7.32-7.38-19.63T203.24,428.17Zm18.55,37.92q9.15,0,16.07-7.62V437.12q-6.92-7.64-16.07-7.63-7.53,0-12.1,4.78t-4.57,13.52q0,8.74,4.57,13.53T221.79,466.09Z" class="f4c01e91-ba0a-43e5-bb36-774107c2a5cd"/><path d="M308.93,421.87,277.71,497.1h-9.35l8.74-22.57-21.45-52.66h10l16.27,41h.41l16.67-41Z" class="f4c01e91-ba0a-43e5-bb36-774107c2a5cd"/><path d="M367,402.75h9.25v71H367V442.61H328.45v31.11h-9.26v-71h9.26V434H367Z" class="f4c01e91-ba0a-43e5-bb36-774107c2a5cd"/><path d="M395,424.71a47,47,0,0,1,19-3.86q10.13,0,15.51,5.9a20.23,20.23,0,0,1,5.39,14.13v32.84h-8.14l-1.11-6.51h-.31q-7.32,7.53-18.81,7.53a17.34,17.34,0,0,1-11.74-4.17Q390,466.4,390,459.18a14,14,0,0,1,6-11.69q5.94-4.47,17.43-4.48h12.31v-.81q0-6.7-3.31-9.66t-11.44-3a34.53,34.53,0,0,0-15.25,3.46H395ZM425.65,459v-8.54H414.56q-15.35,0-15.35,8.08T410,466.6a18.46,18.46,0,0,0,8.64-2.18A24.09,24.09,0,0,0,425.65,459Z" class="f4c01e91-ba0a-43e5-bb36-774107c2a5cd"/><path d="M491.53,434.58a28.59,28.59,0,0,0-16.32-5.09q-8.79,0-13.78,5t-5,13.27q0,8.23,5,13.27t13.78,5A28.58,28.58,0,0,0,491.53,461h.41v8.74a34.06,34.06,0,0,1-17.59,5,27.32,27.32,0,0,1-19.22-7.32q-7.94-7.32-7.93-19.63t7.93-19.62a27.32,27.32,0,0,1,19.22-7.32,34.14,34.14,0,0,1,17.59,5v8.75Z" class="f4c01e91-ba0a-43e5-bb36-774107c2a5cd"/><path d="M528.44,442.71l23.38,31H540.43l-18.3-24.5h-.3l-7.53,7.52v17h-9.25V399.5h9.25V445h.31l22.47-23.08h12.4Z" class="f4c01e91-ba0a-43e5-bb36-774107c2a5cd"/><path d="M579.37,429.29c-4.33,0-7.54.64-9.6,1.91s-3.11,2.87-3.11,4.8,1.08,3.41,3.22,4.45a41.35,41.35,0,0,0,7.69,2.74l9,2.37a14.84,14.84,0,0,1,7.61,4.74q3.07,3.56,3.08,9.72a13.1,13.1,0,0,1-5.14,10.45q-5.13,4.26-15.25,4.27a37.73,37.73,0,0,1-18.45-4.58v-8.84h.51A34.87,34.87,0,0,0,577,466.2q11.28,0,11.28-7.27,0-2.34-3.14-3.83a45.44,45.44,0,0,0-7.57-2.67l-9-2.41a16,16,0,0,1-7.68-4.57,12,12,0,0,1-3.15-8.54A14.68,14.68,0,0,1,563,425.32q5.14-4.47,14-4.47a46.64,46.64,0,0,1,16.47,2.85v8.43h-.71A34.52,34.52,0,0,0,579.37,429.29Z" class="f4c01e91-ba0a-43e5-bb36-774107c2a5cd"/><path d="M687.86,402.75h10l-29.28,71h-11l-29.28-71h10.06l24.51,61.51h.4Z" class="f4c01e91-ba0a-43e5-bb36-774107c2a5cd"/><path d="M717.44,402.75v71h-9.25v-71Z" class="f4c01e91-ba0a-43e5-bb36-774107c2a5cd"/><path d="M793.06,428.51a1.59,1.59,0,0,1-.49.89,2.73,2.73,0,0,1-.87.54,4,4,0,0,1-1,.25,8.34,8.34,0,0,1-.95.06,2.06,2.06,0,0,1-.36,0l-.37,0c-.13,0-.19.07-.19.2a.3.3,0,0,1-.2.28,1.39,1.39,0,0,0-.38-.12,1.72,1.72,0,0,0-.39,0,3,3,0,0,0-.52,0,4.23,4.23,0,0,1-.48,0,1,1,0,0,1-.45-.08.84.84,0,0,1-.23-.18,1.37,1.37,0,0,1-.19-.22.77.77,0,0,0-.29-.19.53.53,0,0,0-.45,0c-.11.05-.29,0-.52-.24a3.61,3.61,0,0,1-.79-1c-.22-.38-.43-.78-.64-1.2s-.42-.85-.66-1.27a4.82,4.82,0,0,0-.81-1.1h-.31a1,1,0,0,0-1,.59,2.55,2.55,0,0,1-.39-.3,1.66,1.66,0,0,0-.42-.29c-.6.18-1.21.34-1.86.47a9.73,9.73,0,0,1-1.93.2h-.52a1.93,1.93,0,0,1-.52-.08,3.57,3.57,0,0,0-.7.37,1.16,1.16,0,0,1-.69.22,1.2,1.2,0,0,1-.55-.16c-.15,0-.22.07-.21.2s-.07.2-.25.2h-.35c-.36,0-.71,0-1.06,0s-.7,0-1.06,0a6.21,6.21,0,0,1-1.51-.2.79.79,0,0,1-.42.12.47.47,0,0,0-.23.25l-.16.32a.79.79,0,0,1-.21.24.53.53,0,0,1-.37.06,1.24,1.24,0,0,1-.39.75,1.07,1.07,0,0,0-.3.83,2.14,2.14,0,0,0-.7.59q-.27.36-.54.75c-.18.26-.37.51-.56.75a2,2,0,0,1-.72.56,1,1,0,0,0-.11.75,4.86,4.86,0,0,1-1,.63,2.94,2.94,0,0,1-1.16.27,1.56,1.56,0,0,1-1.55-1.22,6.52,6.52,0,0,1,.06-.85,7.88,7.88,0,0,1,.17-.87,2.59,2.59,0,0,1,.35-.75,1.28,1.28,0,0,1,.66-.49.54.54,0,0,0-.23-.5.46.46,0,0,1-.2-.49,6.08,6.08,0,0,0,1.82-1.35A15.87,15.87,0,0,0,764.1,425c.42-.62.85-1.25,1.29-1.88a10.51,10.51,0,0,1,1.47-1.7v-.83a6.1,6.1,0,0,0,1.51-2.84.72.72,0,0,0,.56-.4,1.9,1.9,0,0,0,.13-.75.23.23,0,0,0,.25-.18c0-.12.15-.15.33-.1a14,14,0,0,1,.77-1.74c.29-.52.57-1.06.86-1.6a15.88,15.88,0,0,0,.75-1.68,8.79,8.79,0,0,0,.48-1.93.58.58,0,0,0,.6-.53,8.81,8.81,0,0,1,.14-.89,3.76,3.76,0,0,0,.87-1.31c.19-.5.36-1,.52-1.56s.32-1.08.52-1.62A4.48,4.48,0,0,1,776,402v-.12a.25.25,0,0,0-.16-.26.24.24,0,0,1-.15-.25.12.12,0,0,0,0-.08,1.33,1.33,0,0,0,.69-.65,1.4,1.4,0,0,1,.7-.66,3.6,3.6,0,0,0,1.43.81,10.42,10.42,0,0,0,1.62.22,2.13,2.13,0,0,1,.56,1.32,8.72,8.72,0,0,0,.25,1.53c.21.84.43,1.66.68,2.47a18.09,18.09,0,0,1,.56,2.47,5.68,5.68,0,0,0,.42,1.42,5.38,5.38,0,0,1,.43,1.38,5.21,5.21,0,0,1,0,1.25,2.32,2.32,0,0,0,.15,1.2l.27.63a7,7,0,0,1,.33.91c.09.32.18.63.25.95.21.79.4,1.64.56,2.55a9.3,9.3,0,0,0,.8,2.47,1,1,0,0,0,.59.55,3.67,3.67,0,0,0,.91.22,6.66,6.66,0,0,0,1,0l.83,0h.4a1.47,1.47,0,0,1,.45.08,1.3,1.3,0,0,1,.15.55.93.93,0,0,1-.31.75.86.86,0,0,0-.3.63.83.83,0,0,0,.15.44,1.81,1.81,0,0,0-.46,0,4.71,4.71,0,0,0-1.74.32,3.22,3.22,0,0,0,.83,1.12,11.49,11.49,0,0,0,1.1.85,1.28,1.28,0,0,1,.81-.32,1.87,1.87,0,0,1,.87.22,1.76,1.76,0,0,0,.87.22.82.82,0,0,0,.5-.12,3.65,3.65,0,0,1,.5.73A2.8,2.8,0,0,0,793.06,428.51ZM781,422.19a2.52,2.52,0,0,0-.25-1,3.17,3.17,0,0,1-.29-.73,7.07,7.07,0,0,1-.21-1.18c0-.42-.1-.83-.17-1.23-.18-.89-.38-1.79-.6-2.69a20.71,20.71,0,0,0-.83-2.6.86.86,0,0,0,.15-.44v-.12a2.32,2.32,0,0,1-.5-1c-.1-.39-.2-.77-.29-1.15a6.71,6.71,0,0,0-.35-1.07,1.84,1.84,0,0,0-.68-.81,1.4,1.4,0,0,0-.11.56,2.1,2.1,0,0,0,.06.51,2.1,2.1,0,0,1,.05.51,1.26,1.26,0,0,0-.56.62,1.36,1.36,0,0,1-.56.65,10.85,10.85,0,0,1-.88,2.39c-.39.75-.8,1.49-1.22,2.23s-.83,1.48-1.22,2.23a14,14,0,0,0-.93,2.35,1.72,1.72,0,0,0-.67.91,3.58,3.58,0,0,0-.18,1.11,1.9,1.9,0,0,0,.8.22l.87,0a3.59,3.59,0,0,1,.81.08,1.31,1.31,0,0,1,.69.39,6,6,0,0,1,1.1-.22,2.08,2.08,0,0,0,1-.33,5,5,0,0,0,1.66.27,5.49,5.49,0,0,0,.91-.07c.29-.06.58-.12.87-.2a1.23,1.23,0,0,1,.54.25.7.7,0,0,0,.58.14.59.59,0,0,0,.23-.33A.69.69,0,0,1,781,422.19Z" class="aa10b090-4d5b-40df-83f9-d6150f955b11"/><path d="M841.39,424.52a1.46,1.46,0,0,1-.41.91,5,5,0,0,1-.75.59l-.37-.06-.36,0a6.45,6.45,0,0,0-2.26.32,11.62,11.62,0,0,1-2.19.51,2.23,2.23,0,0,1-.71.06,2.65,2.65,0,0,0-.68.06c-.82.14-1.7.24-2.62.32s-1.86.18-2.79.3-1.83.26-2.72.43a13.38,13.38,0,0,0-2.49.73,1.3,1.3,0,0,1-.23-.18.45.45,0,0,0-.27-.1,2.25,2.25,0,0,0-.74.12,1.49,1.49,0,0,1-.69.08,2.8,2.8,0,0,1-.84.34c-.29.06-.59.12-.88.16a6.09,6.09,0,0,0-.87.17,2.26,2.26,0,0,0-.82.44,1.66,1.66,0,0,0-.75-.18.66.66,0,0,1-.6-.3,5.78,5.78,0,0,1-1.87.56,13.2,13.2,0,0,1-2,.08,12.4,12.4,0,0,1-3.21-.66,9,9,0,0,1-1.58-.71,3.05,3.05,0,0,1-1.12-1,2.84,2.84,0,0,1-.39-.87,1.06,1.06,0,0,0-.54-.71c.08-.61.17-1.2.27-1.78s.21-1.17.31-1.78a19.71,19.71,0,0,0,1.47-1.42,20,20,0,0,0,1.31-1.58,7.22,7.22,0,0,0,1.37-.87l1.28-1.05c.42-.36.85-.7,1.27-1.05a10,10,0,0,1,1.38-.91,1.12,1.12,0,0,1,.32-.45l.45-.36a3.08,3.08,0,0,0,.42-.39,1.21,1.21,0,0,0,.27-.53,9.26,9.26,0,0,0,2.36-2.1,6.43,6.43,0,0,0,1.31-2.84,3.34,3.34,0,0,0-1.48-.74,15.82,15.82,0,0,0-1.72-.25,14.41,14.41,0,0,0-1.61,0,13.56,13.56,0,0,1-1.68,0,7.87,7.87,0,0,1-1.75.35c-.61.06-1.21.1-1.8.14a13.06,13.06,0,0,0-1.76.24,5.68,5.68,0,0,0-1.68.65.92.92,0,0,1-.29,0,1.35,1.35,0,0,0-.29,0,4.86,4.86,0,0,0-2.32.5l-2.12,1a.72.72,0,0,0-.08.24,1.06,1.06,0,0,0,.1.46,1.13,1.13,0,0,1,.09.45s0,.05,0,.08a.13.13,0,0,1,0,.08,2.47,2.47,0,0,1-.1.35c0,.11-.08.23-.14.36a8.87,8.87,0,0,0-.46,2.49q0,1,0,2c0,.66,0,1.33,0,2a11.07,11.07,0,0,1-.39,2.37c.13.63.25,1.3.35,2s.23,1.38.39,2.07a18.23,18.23,0,0,0,.56,2,8.85,8.85,0,0,0,.87,1.84c0,.06,0,.09,0,.12a.28.28,0,0,0,.15,0h.31c.13,0,.18.05.15.16a1,1,0,0,1,.12.22.42.42,0,0,0,.16.17.36.36,0,0,1,0,.32,3.6,3.6,0,0,1-.39,1.46,4.26,4.26,0,0,0-.43,1.46,3.41,3.41,0,0,1-.85.12,2.31,2.31,0,0,1-1.16-.37,5.4,5.4,0,0,1-.92-.81c-.29-.32-.56-.64-.81-1a5.25,5.25,0,0,0-.85-.85c-.18-.74-.36-1.56-.53-2.45a6.46,6.46,0,0,0-.83-2.29,2.08,2.08,0,0,0,.16-.87,5.82,5.82,0,0,0-.14-1.56,4.83,4.83,0,0,1-.09-1.56,4.28,4.28,0,0,1,.09-.87,6.56,6.56,0,0,0,.14-.87,4.12,4.12,0,0,0-.14-1.31,4,4,0,0,1-.13-1.3,3,3,0,0,1,.13-.61,1.76,1.76,0,0,1,.29-.54,1.59,1.59,0,0,1-.11-.9,8.34,8.34,0,0,1,.15-1.27,9.55,9.55,0,0,0,.16-1.18,6.06,6.06,0,0,0,0-.62,5.23,5.23,0,0,0-.12-.57l-.35-.12a.88.88,0,0,0-.44.12,1.72,1.72,0,0,0-.37.28,2.85,2.85,0,0,1-.27.25.34.34,0,0,1-.23.1.52.52,0,0,1-.17,0l-.18,0a.77.77,0,0,0-.29.16c-.14.11-.31.22-.5.34l-.56.35a1.71,1.71,0,0,1-.42.22,1.34,1.34,0,0,1-.68-.3c-.17-.14-.32-.29-.46-.43a4.16,4.16,0,0,0-.45-.4.75.75,0,0,0-.58-.13,1.29,1.29,0,0,1-.13-.52,2,2,0,0,1,0-.55v-.63a2.36,2.36,0,0,1,.71-.85,5.14,5.14,0,0,1,.95-.58l1-.47a4.45,4.45,0,0,0,.93-.59h.35a2.09,2.09,0,0,0,1.21-.28,6.31,6.31,0,0,0,1-.73l1-.85a3.59,3.59,0,0,1,1.06-.67,6.27,6.27,0,0,0,.89.33,3.88,3.88,0,0,0,1,.18,3.62,3.62,0,0,0,1-.16,1.52,1.52,0,0,0,.85-.59,1.28,1.28,0,0,0,.32.1l.33,0a2.61,2.61,0,0,0,1.16-.18,6.74,6.74,0,0,0,1.12-.53,7.08,7.08,0,0,0,1.53-.1l1.5-.3,1.51-.29a6,6,0,0,1,1.53-.1,10.58,10.58,0,0,0,2.51-.24,9.17,9.17,0,0,1,2.51-.2c.59,0,1.18.08,1.76.14a10.29,10.29,0,0,0,1.76.06l.9.42a2,2,0,0,0,1,.09,14.5,14.5,0,0,1,2.24,2.49v.68a7.15,7.15,0,0,1-.31,1.77,15.48,15.48,0,0,1-.64,1.72c-.24.57-.51,1.12-.79,1.66s-.55,1.08-.81,1.6q-2.52,2.34-5,4.63c-1.68,1.52-3.4,3-5.18,4.42a3.48,3.48,0,0,1-.21.71,2.55,2.55,0,0,0-.18.67.92.92,0,0,0,0,.32,1,1,0,0,1,.48.3.57.57,0,0,1,.14.57H812c.13,0,.19.05.19.16l.62,0a19.26,19.26,0,0,0,2.94-.08l3-.36,3-.37c1-.12,2-.19,2.93-.22a7.22,7.22,0,0,1,.74-.2,1.73,1.73,0,0,0,.69-.31h.12a.51.51,0,0,1,.4.15.6.6,0,0,0,.41.2,1,1,0,0,0,.4-.08,3.31,3.31,0,0,1,.45-.12,5.22,5.22,0,0,1,1.14-.19c.4,0,.79-.07,1.18-.12,1.49-.13,3-.22,4.44-.26a22,22,0,0,0,4.4-.57.94.94,0,0,0,.55.37c.23.07.47.14.73.2s.5.14.71.22A.73.73,0,0,1,841.39,424.52Z" class="aa10b090-4d5b-40df-83f9-d6150f955b11"/><path d="M862.91,406a2.94,2.94,0,0,1-.48.93l-.66.83a4.46,4.46,0,0,0-.54.87,1.89,1.89,0,0,0-.14,1.05l-.19,0a.72.72,0,0,0-.19,0,1.35,1.35,0,0,0-1,.29,2.77,2.77,0,0,1-.87.5,2.62,2.62,0,0,0-.19-.46.63.63,0,0,0-.35-.29,17.3,17.3,0,0,1-1.85.29c-.62.07-1.24.15-1.86.26a5.32,5.32,0,0,0-.85.22c-.28.09-.58.17-.89.25a1,1,0,0,1-.5.06,3.25,3.25,0,0,0-.54,0c-.62,0-1.29.07-2,.14a4.52,4.52,0,0,0-1.93.61q-.39-.07-.81-.12c-.29,0-.57,0-.85,0a12.6,12.6,0,0,0-2,.18,5.38,5.38,0,0,0-2,.69,1.91,1.91,0,0,0-.41-.11,2.33,2.33,0,0,0-.48,0,.22.22,0,0,0-.12,0l-.11,0a1.38,1.38,0,0,0,.09.69,1,1,0,0,0,.49.53,2.67,2.67,0,0,0-.16,1,8.64,8.64,0,0,0,.1,1.34,10.22,10.22,0,0,1,.1,1.35,2.92,2.92,0,0,1-.2,1.18,8,8,0,0,1,.39,2.53,7,7,0,0,1-.06.93,7.32,7.32,0,0,0-.06,1,.84.84,0,0,0,.31.69.84.84,0,0,1,.31.69.66.66,0,0,1-.08.32,6.43,6.43,0,0,0,1.05-.34,2.66,2.66,0,0,1,1-.22,1.53,1.53,0,0,1,.6.12,2,2,0,0,1,.52.32,2.62,2.62,0,0,0-.06.43c0,.16,0,.32,0,.48s0,.56,0,.81,0,.52.06.81a5.46,5.46,0,0,1-.71,1,2.34,2.34,0,0,0-.56,1.11,2,2,0,0,0-1,.26,7,7,0,0,0-.83.55c-.26.2-.52.38-.77.55a1.52,1.52,0,0,1-.85.26,1.15,1.15,0,0,1-1.16-.55l-.21-.36c-.07-.1-.2-.14-.41-.12a3.06,3.06,0,0,0-.31-1c-.15-.3-.31-.59-.48-.88s-.34-.59-.5-.89a4,4,0,0,1-.37-.93,8,8,0,0,1-.19-2.14,5.55,5.55,0,0,0-.35-2.13c0-.37.09-.74.11-1.13s0-.75,0-1.12c0-.74,0-1.47,0-2.2s-.08-1.46-.1-2.23a1.62,1.62,0,0,1-.33-.81c0-.3-.07-.6-.1-.89a2.84,2.84,0,0,0-.25-.23.53.53,0,0,1-.17-.32,2.27,2.27,0,0,0-.47-.08,1.52,1.52,0,0,0-.9.26,1.22,1.22,0,0,1-.68.25,2.15,2.15,0,0,1-.58-.07,1.68,1.68,0,0,0-.54-.08c-.15,0-.24,0-.25.1s-.07.12-.17.17a1.51,1.51,0,0,1-.55.16c-.28,0-.59.1-.94.14l-1,.1-.63,0a1.51,1.51,0,0,1-.95-.26c-.22-.17-.48-.36-.79-.57a1.23,1.23,0,0,0,.07-.32.91.91,0,0,0-.23-.65.74.74,0,0,1-.23-.45.8.8,0,0,1,.33-.68.94.94,0,0,0,.37-.75,9.11,9.11,0,0,1,1.81-.59c.62-.13,1.25-.24,1.9-.32s1.28-.17,1.91-.27a9.84,9.84,0,0,0,1.87-.52l.52.06a4.52,4.52,0,0,0,.53,0,10.43,10.43,0,0,0,2.29-.25,10.69,10.69,0,0,1,2.34-.26,4.3,4.3,0,0,1,.62,0c.21,0,.41.07.62.12,1-.16,2.05-.33,3.07-.52s2.07-.34,3.15-.47l1.52-.14q.76-.06,1.53-.18a.94.94,0,0,0,.41-.13.51.51,0,0,0,.13-.42,1.77,1.77,0,0,0,.77.16,3.5,3.5,0,0,0,1.28-.24,3.49,3.49,0,0,1,1.27-.24l.27,0a1,1,0,0,0,.24,0,.25.25,0,0,0,.29-.25c0-.17.13-.29.36-.34a4.61,4.61,0,0,1,.78-.12c.33,0,.68-.06,1.06-.1s.72-.09,1-.15a1.73,1.73,0,0,0,.72-.3l.27-.43a1.17,1.17,0,0,1,1,.61,2.8,2.8,0,0,1,.37,1.24.53.53,0,0,0,.44.14l.52,0Z" class="aa10b090-4d5b-40df-83f9-d6150f955b11"/><path d="M788.77,454.82V455a.36.36,0,0,0-.27.39,3.59,3.59,0,0,1-.89.3,4.44,4.44,0,0,0-.89.3q-.42,0-.87-.06l-.87,0c-.77,0-1.54,0-2.32.08a18,18,0,0,1-2.32,0,5.07,5.07,0,0,1-1.17.49,4.51,4.51,0,0,1-1.22.18,2.47,2.47,0,0,1-.81-.12,11.13,11.13,0,0,1-2,.79c-.74.21-1.48.42-2.22.61s-1.46.43-2.15.68a5.58,5.58,0,0,0-1.79,1c-.05.37-.09.73-.12,1.09s0,.7,0,1a8,8,0,0,0,.06,1,3.61,3.61,0,0,0,.25.95,1.84,1.84,0,0,0,.45.12,2.39,2.39,0,0,0,.44,0,1.32,1.32,0,0,0,.39-.06.43.43,0,0,0,.27-.26,7.45,7.45,0,0,1,1.16-.06c.38,0,.77,0,1.15,0s.77,0,1.15,0a6.06,6.06,0,0,0,1.1-.2,6.5,6.5,0,0,1,1.21-.2l1.18-.08c.39,0,.79-.07,1.2-.14a4.37,4.37,0,0,0,1.27-.41,2.84,2.84,0,0,0,1,.19,6.8,6.8,0,0,1,1,.08,2.36,2.36,0,0,1,.45.44.94.94,0,0,1,.17.55,1.92,1.92,0,0,1-.39,1.11,7.87,7.87,0,0,0-.61,1h-.43a6.36,6.36,0,0,0-1.8.25c-.58.17-1.16.37-1.73.6s-1.16.42-1.74.59a6.36,6.36,0,0,1-1.8.25c-.1,0-.16.06-.17.18a.49.49,0,0,1-.1.26,2.83,2.83,0,0,0-.58,0,7.26,7.26,0,0,0-1.7.2,7.1,7.1,0,0,1-1.66.19h-.46l-.47-.06a.87.87,0,0,1-.5.41,1.64,1.64,0,0,0-.58.34,3.29,3.29,0,0,0-.14.87l0,1c0,.36-.05.69-.1,1a1.52,1.52,0,0,1-.31.75c0,.13.13.18.31.14s.27.05.27.26a4.17,4.17,0,0,1-.08.75,4.15,4.15,0,0,0-.07.79,8.31,8.31,0,0,0,.17,1.64,6.58,6.58,0,0,0,.54,1.64,3.45,3.45,0,0,0,1,1.24,2.37,2.37,0,0,0,1.54.5,2.83,2.83,0,0,0,1.16-.24,2,2,0,0,0,.89-.79l.19,0a.92.92,0,0,1,.29,0,.92.92,0,0,0,.29,0,1,1,0,0,0,.6-.3l.81-.69c.3-.26.6-.52.91-.77a3,3,0,0,1,.89-.53c.18-.37.35-.74.52-1.11a2,2,0,0,1,.75-.87v-1.15a8.82,8.82,0,0,1,.83-.79,2.18,2.18,0,0,0,.68-.9,1.92,1.92,0,0,0,.37.11,1.37,1.37,0,0,0,.36,0,2,2,0,0,0,.41,0,1.68,1.68,0,0,0,.4-.11,3.62,3.62,0,0,1,.49,1,4.82,4.82,0,0,0,.44,1l-.81,1.7c-.31.66-.64,1.32-1,2s-.74,1.28-1.14,1.87a6.48,6.48,0,0,1-1.18,1.37,1.64,1.64,0,0,1-.5.27c-.29.21-.55.42-.78.62a3.92,3.92,0,0,0-.65.69,10.54,10.54,0,0,0-2.15.94c-.68.4-1.36.78-2,1.15a4,4,0,0,0-1-.12,7.26,7.26,0,0,0-.93.06,7.79,7.79,0,0,1-1,.06.75.75,0,0,0-.45-.26c-.19,0-.26-.17-.21-.41a3.64,3.64,0,0,1-2.12-.73,5.93,5.93,0,0,1-1.38-1.6,9.81,9.81,0,0,1-.9-2.06c-.24-.73-.48-1.45-.74-2.13v-.12a.22.22,0,0,1,.16-.24c.1,0,.15-.1.15-.23s0-.1,0-.12c-.07-.29-.14-.54-.19-.75a3.25,3.25,0,0,1-.08-.75,10.36,10.36,0,0,1,.08-1.25,10.19,10.19,0,0,0,.08-1.24,3.42,3.42,0,0,0-.16-1.11,1.38,1.38,0,0,0,.25-.53,4.22,4.22,0,0,0,.14-.69l.06-.72a3,3,0,0,1,.09-.63l-.27-.77a2.69,2.69,0,0,1-.11-.81v-.27a10.33,10.33,0,0,0,.65-1.39c.18-.47.38-1,.58-1.46v-.12c0-.76,0-1.53-.07-2.29s-.08-1.53-.08-2.29v-.77a5.74,5.74,0,0,1,0-.73,1.09,1.09,0,0,0,.46-.44,1.07,1.07,0,0,1,.46-.43h1.28l.23-.4a1.23,1.23,0,0,0,.16-.43,3.92,3.92,0,0,0,.83-.34,6.76,6.76,0,0,0,.75-.45l1-.58a7.12,7.12,0,0,1,.88-.43,7,7,0,0,1,1-.3,9.69,9.69,0,0,1,1.16-.19c.21,0,.34,0,.4-.12s.17-.17.29-.28l.93.14a7.26,7.26,0,0,0,.93.06,4.24,4.24,0,0,0,1.74-.36c.77,0,1.54,0,2.3,0s1.52,0,2.3,0,1.33,0,2,.08a18,18,0,0,1,2,.28,2.41,2.41,0,0,1,.78-.12,4.36,4.36,0,0,1,.94.1,2.54,2.54,0,0,0,1,0,1.9,1.9,0,0,0,.21.73A1.31,1.31,0,0,1,788.77,454.82Z" class="aa10b090-4d5b-40df-83f9-d6150f955b11"/><path d="M812.88,460.47a.5.5,0,0,1-.27.52.44.44,0,0,0-.28.47.28.28,0,0,0,.08.2.32.32,0,0,1,.08.23v.16a15.44,15.44,0,0,1-1.33,4,17.7,17.7,0,0,1-2,3.13,21.93,21.93,0,0,1-2.61,2.68c-1,.85-2,1.73-3.11,2.65-.31.26-.62.53-.95.79a10.17,10.17,0,0,0-.9.83l-.86.83a1.49,1.49,0,0,1-.42.18,3.51,3.51,0,0,0-.46.18c-.36.15-.74.34-1.14.55a3.67,3.67,0,0,0-1,.79,3.23,3.23,0,0,0-1.31.24,8.84,8.84,0,0,0-1.2.63.67.67,0,0,1-.33-.08c-.09-.05-.18-.11-.29-.16a1.19,1.19,0,0,0-.32-.1,1.33,1.33,0,0,0-.45.06,6.88,6.88,0,0,0-1-1.34,2.4,2.4,0,0,0-1.47-.67,1.77,1.77,0,0,0-.54-1.05c-.29-.25-.57-.52-.85-.81a3.49,3.49,0,0,1-.12-.55,2.93,2.93,0,0,0-.15-.6,1.54,1.54,0,0,0-.31-.47.73.73,0,0,0-.54-.2c0-.16,0-.24.19-.24s.23-.06.23-.19a1.34,1.34,0,0,0-.08-.48,1.7,1.7,0,0,1-.07-.51,1.37,1.37,0,0,1,0-.36,2.28,2.28,0,0,1,.11-.35,19.52,19.52,0,0,1-.11-2.18,29.24,29.24,0,0,1,.29-4.2,31,31,0,0,0,.29-4.21c0-.63,0-1.27-.1-1.9a10.75,10.75,0,0,0-.37-1.86c-.59.14-1.18.29-1.78.46a7.85,7.85,0,0,0-1.66.69,2.15,2.15,0,0,0-.9-.34,5,5,0,0,1-1-.21,2.59,2.59,0,0,1-.27-1.15,3,3,0,0,1,.19-1.07l.39-1a8.9,8.9,0,0,0,1.83-.6c.61-.26,1.22-.5,1.84-.71l.79-.19a6.47,6.47,0,0,0,.68-.2.64.64,0,0,0,.36-.46,1.7,1.7,0,0,1,.29-.57h.66l.5,0a1.2,1.2,0,0,1,.5.14,15.92,15.92,0,0,1,2.79-.46c.92-.06,1.88-.16,2.86-.29a3,3,0,0,0,.48-.06l.66-.12.61-.12a2.45,2.45,0,0,1,.41-.06c.08,0,.11,0,.11.12h.66a12.25,12.25,0,0,1,3.25.44l3.17.86c.43.37.87.73,1.31,1.07a8.28,8.28,0,0,0,1.47.91,2.25,2.25,0,0,0,.6,1l.9.81a7.63,7.63,0,0,0,.53,1.08c.21.39.43.77.63,1.17a11,11,0,0,1,.54,1.17A2.79,2.79,0,0,1,812.88,460.47Zm-3.6.59q-.42-.9-.81-1.89a7.8,7.8,0,0,0-1-1.78,14.83,14.83,0,0,1-1.41-.49,1.73,1.73,0,0,1-1-1,.58.58,0,0,1-.27,0,.83.83,0,0,1-.62-.28,1.25,1.25,0,0,0-.62-.35l-.83-.12c-.35-.05-.71-.09-1.1-.12l-1.14-.08c-.37,0-.66,0-.87,0l-.64,0-.67.06c-.21,0-.34,0-.39.1a.76.76,0,0,1-.31.18,1,1,0,0,0-.42-.08h-.47a5.19,5.19,0,0,0-1.6.25,9,9,0,0,0-1.56.7v.15a.31.31,0,0,0,.27.36.34.34,0,0,1,.31.32,1.33,1.33,0,0,0-.31,0c-.08,0-.12.11-.12.29a4,4,0,0,0,.1.87,5.09,5.09,0,0,1,.09.95,5.34,5.34,0,0,1-.07.83,1.19,1.19,0,0,1-.39.75,1.22,1.22,0,0,1,.39.95,2.34,2.34,0,0,1-.16.83,2.93,2.93,0,0,1-.38.75c-.06,1.11-.16,2.23-.31,3.36a23.92,23.92,0,0,0-.23,3.36,14.39,14.39,0,0,0,.09,1.62,11.4,11.4,0,0,0,.33,1.58,3.34,3.34,0,0,0,.91.67c.32.16.66.31,1,.47v.12a.33.33,0,0,1-.15.24.36.36,0,0,0-.16.31.14.14,0,0,0,.16.16,21.15,21.15,0,0,0,3-1.14,10.58,10.58,0,0,0,2.66-1.82.35.35,0,0,1,.24-.12.68.68,0,0,1,.21,0l.25.08,0-.16a.74.74,0,0,1,.14-.43,2,2,0,0,1,.33-.38l.38-.35a1.79,1.79,0,0,0,.31-.38.69.69,0,0,0,.45-.32.52.52,0,0,1,.48-.23.94.94,0,0,1,.42-.66.88.88,0,0,0,.43-.65,5.91,5.91,0,0,0,1.37-1.06,14.58,14.58,0,0,0,1.12-1.35c.35-.47.68-1,1-1.48s.63-1,1-1.48V463a2.22,2.22,0,0,1,.21-1A3.31,3.31,0,0,0,809.28,461.06Z" class="aa10b090-4d5b-40df-83f9-d6150f955b11"/><path d="M822.92,474.54a2.8,2.8,0,0,1-.46.57,5.08,5.08,0,0,0-.5.54,1.64,1.64,0,0,1-.6.11,6.12,6.12,0,0,1-.62,0h-.54a.68.68,0,0,0-.41.18.78.78,0,0,1-.46-.29.72.72,0,0,0-.54-.26.54.54,0,0,0-.31,0,12.19,12.19,0,0,1-1.06-1.42c-.33-.5-.63-1-.91-1.43,0-1-.1-2-.23-3,0-.24-.07-.47-.12-.71s-.09-.46-.12-.67a4.81,4.81,0,0,1,.06-.77c0-.25.07-.48.1-.69.1-.77.22-1.52.35-2.26s.24-1.49.34-2.25a13.5,13.5,0,0,0,.16-2.15,6.41,6.41,0,0,0-.35-2.12l0-.19a2.84,2.84,0,0,1,.18-.54,1.76,1.76,0,0,0,.13-.49.59.59,0,0,0-.19-.63.67.67,0,0,1,.38-.42.48.48,0,0,0,.31-.45.58.58,0,0,0,0-.32l.64-.22a1.27,1.27,0,0,1,.64,0,2.39,2.39,0,0,1,.89.34,6.53,6.53,0,0,1,.73.57,10.9,10.9,0,0,1,.5,4c-.07,1.41-.2,2.83-.38,4.25s-.3,2.81-.35,4.17a9,9,0,0,0,.62,3.77l.08,0a.26.26,0,0,0,.3-.14.28.28,0,0,1,.31-.13.83.83,0,0,0,.2.08,6.15,6.15,0,0,0,.5,1.5C822.38,473.59,822.64,474.06,822.92,474.54Z" class="aa10b090-4d5b-40df-83f9-d6150f955b11"/><path d="M859.86,454.55a2.81,2.81,0,0,1-.49.92c-.21.28-.43.56-.65.83a4.46,4.46,0,0,0-.54.87,1.9,1.9,0,0,0-.14,1.05l-.19,0-.19,0a1.35,1.35,0,0,0-.95.3,2.76,2.76,0,0,1-.87.49,3,3,0,0,0-.19-.45.61.61,0,0,0-.35-.3q-.93.19-1.86.3c-.61.06-1.23.15-1.85.25-.28.06-.57.13-.85.22s-.58.18-.89.26a1.35,1.35,0,0,1-.5.06,2,2,0,0,0-.54,0c-.62,0-1.29.07-2,.13a4.53,4.53,0,0,0-1.93.62,6.86,6.86,0,0,0-.81-.12,8.25,8.25,0,0,0-.86,0,12.58,12.58,0,0,0-2,.18,5.38,5.38,0,0,0-1.95.69,2.77,2.77,0,0,0-.41-.12,2.33,2.33,0,0,0-.48,0l-.12,0-.11,0a1.35,1.35,0,0,0,.09.69,1,1,0,0,0,.49.53,2.67,2.67,0,0,0-.16.95,8.76,8.76,0,0,0,.1,1.35,9.94,9.94,0,0,1,.09,1.34,3,3,0,0,1-.19,1.19,8,8,0,0,1,.39,2.52,7,7,0,0,1-.06.93,7.54,7.54,0,0,0-.06,1,.84.84,0,0,0,.31.69.84.84,0,0,1,.31.69.72.72,0,0,1-.08.32,5.27,5.27,0,0,0,1-.34,2.73,2.73,0,0,1,1-.21,1.61,1.61,0,0,1,.6.12,1.84,1.84,0,0,1,.52.31,2.75,2.75,0,0,0-.06.44c0,.15,0,.31,0,.47s0,.56,0,.81,0,.52.06.81a5.24,5.24,0,0,1-.72,1,2.45,2.45,0,0,0-.56,1.1,2,2,0,0,0-1,.26,8.53,8.53,0,0,0-.83.55c-.26.2-.52.39-.77.56a1.51,1.51,0,0,1-.85.25,1.35,1.35,0,0,1-.81-.17,1.23,1.23,0,0,1-.35-.38c-.08-.13-.15-.25-.22-.35s-.19-.15-.4-.12a3.24,3.24,0,0,0-.31-1c-.15-.3-.32-.6-.48-.89l-.51-.89a4.07,4.07,0,0,1-.36-.93,8.29,8.29,0,0,1-.2-2.13,5.56,5.56,0,0,0-.34-2.14c0-.36.09-.74.11-1.12s0-.76,0-1.13c0-.73,0-1.47-.06-2.19s-.07-1.47-.09-2.23a1.7,1.7,0,0,1-.33-.81c0-.31-.07-.6-.1-.89l-.25-.24a.5.5,0,0,1-.17-.32,2.11,2.11,0,0,0-.47-.07,1.52,1.52,0,0,0-.9.25,1.27,1.27,0,0,1-.68.26,2.14,2.14,0,0,1-.58-.08,2,2,0,0,0-.54-.08c-.16,0-.24,0-.25.1a.29.29,0,0,1-.18.18,1.85,1.85,0,0,1-.54.16c-.28.05-.6.09-.94.13s-.69.08-1,.1l-.64,0a1.5,1.5,0,0,1-.94-.25c-.22-.18-.49-.37-.79-.58a1.27,1.27,0,0,0,.07-.31.93.93,0,0,0-.23-.66.74.74,0,0,1-.23-.45.78.78,0,0,1,.33-.67.94.94,0,0,0,.36-.75,9.42,9.42,0,0,1,1.82-.59c.62-.14,1.25-.24,1.89-.32s1.28-.17,1.92-.28a9.12,9.12,0,0,0,1.87-.51l.52.06.52,0a10.47,10.47,0,0,0,2.3-.26,10.69,10.69,0,0,1,2.34-.26c.21,0,.41,0,.62,0l.62.12c1-.16,2-.33,3.07-.51s2.06-.34,3.15-.48l1.52-.13q.75-.06,1.53-.18a.89.89,0,0,0,.4-.14.49.49,0,0,0,.14-.41,1.92,1.92,0,0,0,.77.15,3.76,3.76,0,0,0,1.28-.23,3.45,3.45,0,0,1,1.27-.24l.27,0,.23,0a.26.26,0,0,0,.29-.26c0-.17.14-.28.37-.33a3.18,3.18,0,0,1,.77-.12l1.07-.1a9.9,9.9,0,0,0,1-.16,1.42,1.42,0,0,0,.71-.3l.27-.43a1.19,1.19,0,0,1,1,.61,2.84,2.84,0,0,1,.37,1.25.52.52,0,0,0,.44.13h.64Z" class="aa10b090-4d5b-40df-83f9-d6150f955b11"/><path d="M862.79,474.54a2.8,2.8,0,0,1-.46.57,5.08,5.08,0,0,0-.5.54,1.64,1.64,0,0,1-.6.11,6.12,6.12,0,0,1-.62,0h-.54a.7.7,0,0,0-.41.18.78.78,0,0,1-.46-.29.7.7,0,0,0-.54-.26.55.55,0,0,0-.31,0,12.19,12.19,0,0,1-1.06-1.42c-.32-.5-.63-1-.91-1.43,0-1-.1-2-.23-3,0-.24-.07-.47-.12-.71a6.21,6.21,0,0,1-.11-.67,6.36,6.36,0,0,1,.05-.77c0-.25.07-.48.1-.69.1-.77.22-1.52.35-2.26s.24-1.49.35-2.25a14.81,14.81,0,0,0,.15-2.15,6.17,6.17,0,0,0-.35-2.12l0-.19a2.87,2.87,0,0,1,.17-.54,1.76,1.76,0,0,0,.13-.49.57.57,0,0,0-.19-.63.68.68,0,0,1,.39-.42.49.49,0,0,0,.31-.45.86.86,0,0,0,0-.32c.2-.08.41-.15.63-.22a1.27,1.27,0,0,1,.64,0,2.33,2.33,0,0,1,.89.34,5.73,5.73,0,0,1,.73.57,10.9,10.9,0,0,1,.51,4c-.08,1.41-.21,2.83-.39,4.25s-.3,2.81-.35,4.17a9.18,9.18,0,0,0,.62,3.77l.08,0a.27.27,0,0,0,.31-.14.28.28,0,0,1,.31-.13.68.68,0,0,0,.19.08,6.15,6.15,0,0,0,.5,1.5C862.25,473.59,862.51,474.06,862.79,474.54Z" class="aa10b090-4d5b-40df-83f9-d6150f955b11"/><path d="M890.92,457.07a1.82,1.82,0,0,0-.27.79,7.72,7.72,0,0,0,0,.79c0,.32,0,.63,0,.93s0,.6,0,.89v.59a2.65,2.65,0,0,1-.23.56,2.58,2.58,0,0,0-.23.55,8.42,8.42,0,0,0-.54,2.93v.07c-.13.32-.26.61-.37.87s-.23.52-.33.77a4.22,4.22,0,0,0-.23.79,3.76,3.76,0,0,0,0,1,9.85,9.85,0,0,1-1.43,2.51q-.88,1.13-1.74,2.31a6.19,6.19,0,0,0-1.49.83,12.64,12.64,0,0,0-1.29,1.15c-.8.26-1.58.57-2.36.91a7.39,7.39,0,0,0-2.08,1.38,12.5,12.5,0,0,0-1.47.24,6.65,6.65,0,0,0-1.43.47h-.46a.68.68,0,0,1-.51-.16,3.35,3.35,0,0,1-1,.38,5.64,5.64,0,0,1-1.08.1,8.84,8.84,0,0,1-1.37-.1l-1.38-.22a2.38,2.38,0,0,0-1.08-.85c-.46-.19-.87-.39-1.23-.57a12.21,12.21,0,0,1-1.63-3.06c-.33-1-.68-2.1-1-3.34a5.27,5.27,0,0,1,.27-1.09,2.92,2.92,0,0,0,.16-1.16,15.3,15.3,0,0,1,1.83-3.74,25.2,25.2,0,0,1,2.61-3.22.67.67,0,0,1,.1-.39.64.64,0,0,0,0-.48.22.22,0,0,0,.16,0,.39.39,0,0,0,.39-.18.69.69,0,0,0,0-.41,13.85,13.85,0,0,0,2.53-2.1,10.55,10.55,0,0,1,2.61-2,1.28,1.28,0,0,1,.39-.59,1.76,1.76,0,0,0,.42-.56,7.28,7.28,0,0,0,2.25-1.06,14.5,14.5,0,0,1,2.12-1.27,4.3,4.3,0,0,1,1.18-.49l1.22-.3.42-.12a2.74,2.74,0,0,1,.43,0,3.72,3.72,0,0,1,1.35.26,3.72,3.72,0,0,0,1.35.26l.33,0,.29-.06a4.25,4.25,0,0,0,1.66,1.26,4,4,0,0,0,.56,1c.22.29.44.57.68.85a6.67,6.67,0,0,1,.63.91A2.83,2.83,0,0,1,890.92,457.07Zm-3.86,2.06a2,2,0,0,0,0-.36,4,4,0,0,1-.74-.31,1.55,1.55,0,0,0-.77-.2,1.32,1.32,0,0,0-.54.12.58.58,0,0,0-.21-.4,3.44,3.44,0,0,0-.81-.37.74.74,0,0,1-.37-.22c-.08-.21-.16-.43-.25-.65a.9.9,0,0,0-.48-.5,3,3,0,0,1-.82.58l-.94.41a5.85,5.85,0,0,0-.93.48,2.69,2.69,0,0,0-.75.67h-.7a1.43,1.43,0,0,1-.66.65,2.36,2.36,0,0,0-.73.61,5.85,5.85,0,0,0-1.14.77c-.35.31-.69.62-1,.95s-.67.67-1,1a10.15,10.15,0,0,1-1,.95,10.67,10.67,0,0,1-1.1,1.91c-.4.54-.78,1.09-1.12,1.64a10,10,0,0,0-.89,1.8,6.67,6.67,0,0,0-.37,2.39v.4a1.72,1.72,0,0,0,0,.39,5.93,5.93,0,0,1,.83,1.19,1.94,1.94,0,0,0,1.1.91,3.78,3.78,0,0,0,1.64.27,5.23,5.23,0,0,1,1.68.2,14.72,14.72,0,0,0,3.58-1.17,19,19,0,0,0,3.26-1.95l.54-.42a2.28,2.28,0,0,0,.51-.45,2.36,2.36,0,0,0,.32-.44,4.61,4.61,0,0,1,.29-.43c.21-.34.44-.68.7-1a10.91,10.91,0,0,1,.81-.95,13.4,13.4,0,0,1,.5-1.67c.21-.54.41-1.08.62-1.6a12.89,12.89,0,0,0,.52-1.63,7,7,0,0,0,.22-1.73c0-.14,0-.28,0-.44s0-.3-.06-.43A1.66,1.66,0,0,0,887.06,459.13Z" class="aa10b090-4d5b-40df-83f9-d6150f955b11"/><path d="M919,454a3.65,3.65,0,0,1-.21.81,1.68,1.68,0,0,0-.06.89.93.93,0,0,0-.6.26,1.9,1.9,0,0,0-.35.49l-.27.57a2.44,2.44,0,0,1-.33.54,15.53,15.53,0,0,1,.35,2.88c0,1,.09,1.94.19,2.89a30.22,30.22,0,0,0,.6,3.57,16,16,0,0,1,.41,3.58c0,.37,0,.71,0,1s0,.64,0,1,0,.43,0,.66,0,.44,0,.65a9.46,9.46,0,0,1-.29,2.29,20.57,20.57,0,0,0-.45,2.29,5.46,5.46,0,0,0-.79.95c-.22.34-.44.66-.67.95a4.62,4.62,0,0,1-.82.77,2.77,2.77,0,0,1-1.15.45,1,1,0,0,1-.45.6,1.72,1.72,0,0,0-.56.55h-.08a4.41,4.41,0,0,1-1.66-.28,8.57,8.57,0,0,1-1.29-.63l-1.22-.75a5.67,5.67,0,0,0-1.43-.63,14.89,14.89,0,0,1-2-2,12.38,12.38,0,0,0-2-2,4,4,0,0,0-.71-1.31,8.81,8.81,0,0,1-.87-1.18,2.53,2.53,0,0,1-.29-.52l-.25-.55a.7.7,0,0,0-.37-.43,2.08,2.08,0,0,1-.44-.28,9.35,9.35,0,0,0-.89-2.25,13.65,13.65,0,0,0-1.36-2,4.72,4.72,0,0,0-.36.93c-.09.33-.18.66-.25,1s-.18.66-.29,1a4,4,0,0,1-.45.88v.12a.22.22,0,0,0,.16.24.22.22,0,0,1,.15.24.31.31,0,0,1,0,.08.19.19,0,0,0,0,.07,1.06,1.06,0,0,0-.29.4.46.46,0,0,1-.4.28,2.46,2.46,0,0,1,0,.37v.38a11.15,11.15,0,0,1-.25,2.29,10.67,10.67,0,0,0-.26,2.33V479a4.07,4.07,0,0,0,0,.52,2,2,0,0,0,.23.47.77.77,0,0,1,.16.44.74.74,0,0,1-.23.51c.18.13.38.28.61.43a3.73,3.73,0,0,1,.64.54,3.15,3.15,0,0,1,.49.63,1.53,1.53,0,0,1,.19.73,1,1,0,0,1-.43,1,3.41,3.41,0,0,1-1,.43c-.4.11-.81.21-1.24.3a2.48,2.48,0,0,0-1.06.49h-.12a.86.86,0,0,1-.69-.27.84.84,0,0,0-.7-.28,8.16,8.16,0,0,1-1-2.74,16.76,16.76,0,0,1-.27-2.91,20.63,20.63,0,0,1,.29-3.4q.28-1.69.69-3.36c.27-1.1.57-2.2.89-3.3s.63-2.19.91-3.29a.08.08,0,0,1,0-.06.14.14,0,0,0,0-.06.33.33,0,0,0-.1-.28.3.3,0,0,1-.09-.24c0-.05,0-.08,0-.08.08-.26.17-.51.26-.75a4.12,4.12,0,0,0,.21-.79,20.32,20.32,0,0,0,.33-2.27c.06-.78.1-1.55.11-2.31s0-1.53.08-2.31a19.66,19.66,0,0,1,.25-2.31,6.3,6.3,0,0,0,.58-.68,2.88,2.88,0,0,1,.7-.63,8.21,8.21,0,0,1,1.54.24,5,5,0,0,1,1.47.63,21.4,21.4,0,0,1,.64,3.4,22.45,22.45,0,0,0,.6,3.4v.12c0,.13.07.19.21.17a.37.37,0,0,1,.33.14.53.53,0,0,0-.1.28c0,.11,0,.21,0,.32v.67c.05.21.12.43.19.67a.62.62,0,0,0,.51.43,12.32,12.32,0,0,0,.58,2.34,17.81,17.81,0,0,0,.88,2.05c.34.66.7,1.31,1.09,2s.78,1.32,1.19,2a8.24,8.24,0,0,1,1.67,1.72c.46.65.93,1.26,1.41,1.86a8.55,8.55,0,0,0,1.62,1.56,4.81,4.81,0,0,0,2.38.83,1,1,0,0,0,.28-.44c.07-.18.13-.37.2-.55a2.22,2.22,0,0,1,.23-.49.82.82,0,0,1,.41-.34c0-.74.1-1.49.17-2.25a7.85,7.85,0,0,1,.48-2.18,1.75,1.75,0,0,1-.19-.87,4.56,4.56,0,0,1,.06-.75,4.17,4.17,0,0,0,.06-.71,2.23,2.23,0,0,0-.31-1.22,5.78,5.78,0,0,1,0-.58,1.4,1.4,0,0,1,.24-.57,9.68,9.68,0,0,1-.49-1.66,9.51,9.51,0,0,1-.17-1.78,5,5,0,0,1,.12-1.06,5.06,5.06,0,0,1-.31-1.41c-.06-.53-.11-1.08-.16-1.62a13.85,13.85,0,0,0-.23-1.52,2.29,2.29,0,0,0-.58-1.14,1.46,1.46,0,0,0,.23-.83,4.62,4.62,0,0,0-.23-1.5,5,5,0,0,1-.23-1.51,2.93,2.93,0,0,1,.23-1.1A11.67,11.67,0,0,1,915,452a10.16,10.16,0,0,0,1.64.13,2,2,0,0,0,.54.52c.21.13.43.25.66.37l.68.38A1.45,1.45,0,0,1,919,454Z" class="aa10b090-4d5b-40df-83f9-d6150f955b11"/></g><g id="b76c7b5e-acc0-4669-aaa2-f3ac530af3be" data-name="vh top"><path d="M539.06,3h-18a7.16,7.16,0,0,0-6.21,4.73L439.15,231.05l-76-223.3A7.18,7.18,0,0,0,356.9,3h-18a3.07,3.07,0,0,0-3.31,2.88,3.54,3.54,0,0,0,.3,1.85l88.87,261.16a6.62,6.62,0,0,0,.91,1.7l-9.58,28.26L317.43,7.76A7.15,7.15,0,0,0,311.21,3h-18a3.07,3.07,0,0,0-3.31,2.9,3.43,3.43,0,0,0,.3,1.82L401.48,335.83a7,7,0,0,0,1.87,2.8,3,3,0,0,0,3.16,2.27h18a5.48,5.48,0,0,0,2.06-.44,3,3,0,0,0,1.59-.9,7.31,7.31,0,0,0,2.57-3.4L542.07,7.75a3.43,3.43,0,0,0-1.33-4.4A2.77,2.77,0,0,0,539.06,3Z" class="a5146022-8b15-42e4-84a9-649e5666ef3d"/><path d="M631.73,3h-18a7.15,7.15,0,0,0-6.21,4.73L496.18,336.25a3.41,3.41,0,0,0,1.34,4.4,2.77,2.77,0,0,0,1.67.32h18a7.15,7.15,0,0,0,6.21-4.72L634.73,7.75a3.43,3.43,0,0,0-1.33-4.4A2.79,2.79,0,0,0,631.73,3Z" class="a5146022-8b15-42e4-84a9-649e5666ef3d"/><path d="M520.6,193.09h-18a7.18,7.18,0,0,0-6.22,4.73L449.49,336.25a3.41,3.41,0,0,0,1.31,4.39,2.79,2.79,0,0,0,1.67.33h18a7.17,7.17,0,0,0,6.14-4.61l47-138.58a3.42,3.42,0,0,0-1.37-4.38A2.83,2.83,0,0,0,520.6,193.09Z" class="a5146022-8b15-42e4-84a9-649e5666ef3d"/><path d="M509.62,172h18a7.17,7.17,0,0,0,6.22-4.73L588,7.63c.75-2.21-.11-4-2-4.57a2.81,2.81,0,0,0-.41,0H566.51a4.82,4.82,0,0,0-1.46.26,7.65,7.65,0,0,0-3.22,2.43,5.64,5.64,0,0,0-.76,1.46L506.4,168.44A3,3,0,0,0,509.62,172Z" class="a5146022-8b15-42e4-84a9-649e5666ef3d"/></g></g></svg>