<?xml version="1.0" encoding="UTF-8" standalone="no"?>
<svg
   xmlns:dc="http://purl.org/dc/elements/1.1/"
   xmlns:cc="http://creativecommons.org/ns#"
   xmlns:rdf="http://www.w3.org/1999/02/22-rdf-syntax-ns#"
   xmlns:svg="http://www.w3.org/2000/svg"
   xmlns="http://www.w3.org/2000/svg"
   id="svg8"
   version="1.1"
   viewBox="0 0 159.86608 38.451992"
   height="38.451992mm"
   width="159.86607mm">
  <defs
     id="defs2" />
  <metadata
     id="metadata5">
    <rdf:RDF>
      <cc:Work
         rdf:about="">
        <dc:format>image/svg+xml</dc:format>
        <dc:type
           rdf:resource="http://purl.org/dc/dcmitype/StillImage" />
        <dc:title></dc:title>
      </cc:Work>
    </rdf:RDF>
  </metadata>
  <g
     transform="translate(396.70966,21.995368)"
     id="layer1">
    <g
       id="text840"
       style="font-style:normal;font-variant:normal;font-weight:normal;font-stretch:normal;font-size:25.39999962px;line-height:1.25;font-family:'Rock Salt';-inkscape-font-specification:'Rock Salt, Normal';font-variant-ligatures:normal;font-variant-caps:normal;font-variant-numeric:normal;font-feature-settings:normal;text-align:start;letter-spacing:0px;word-spacing:0px;writing-mode:lr-tb;text-anchor:start;fill:#000000;fill-opacity:1;stroke:none;stroke-width:0.26458332"
       aria-label="Hackpacks">
      <path
         id="path1043"
         style="fill:#293c85;fill-opacity:1;stroke-width:0.26458332"
         d="m -373.1452,-4.3096263 q 0,0.074414 0,0.1736329 0,0.074414 -0.0248,0.1488281 -0.27285,0.5208984 -0.66972,0.79375 -0.39688,0.2728515 -0.99219,0.2728515 -0.39688,0 -0.59531,-0.074414 -0.17364,-0.074414 -0.47129,-0.2728516 -0.44649,0.049609 -1.017,0.099219 -0.5705,0.024805 -1.14101,0.1240234 -0.57051,0.074414 -1.09141,0.2232422 -0.49609,0.1488281 -0.84336,0.4464843 -0.22324,1.71152345 -0.24804,3.4230469 0,1.6867187 -0.0496,3.3982421 0.19843,0.5208984 0.27285,1.1410156 0.0744,0.6449219 0.0992,1.1658203 0.17363,0.2976562 0.27285,0.5953125 0.0992,0.3224609 0.19844,0.6449219 0.0992,0.3224609 0.22324,0.6201171 0.14883,0.2976563 0.37207,0.5457032 0.19844,0 0.34726,0.024805 0.17364,0.049609 0.34727,0.099219 v 0.1488281 q 0,0.3720703 0.22324,0.5457031 0.22324,0.1736325 0.4961,0.3720705 0.0744,0.272851 0.0744,0.520898 0,0.42168 -0.19844,0.79375 -0.17363,0.372071 -0.59531,0.520899 -0.24805,0 -0.47129,-0.07441 -0.22324,-0.04961 -0.47129,-0.04961 -0.17363,0 -0.37207,0.04961 -0.12402,-0.04961 -0.22324,-0.148829 -0.0744,-0.07441 -0.17363,-0.148828 -0.0992,-0.07441 -0.22325,-0.124023 -0.0992,-0.04961 -0.27285,-0.0248 -0.12402,-0.347265 -0.39687,-0.644922 -0.27285,-0.297656 -0.66973,-0.248046 0.0248,-0.09922 0.0248,-0.297657 0,-0.347265 -0.14883,-0.6449216 -0.12403,-0.2976562 -0.39688,-0.471289 -0.12402,-0.5705079 -0.22324,-1.2650391 -0.0992,-0.6697265 -0.42168,-1.1658203 0,-0.7193359 -0.14883,-1.3890625 -0.14883,-0.6449218 -0.27285,-1.3394531 0.0992,-0.396875 0.0992,-0.8929687 0,-0.3472656 -0.0248,-0.6697266 -0.0248,-0.3472656 -0.0248,-0.6697265 0,-0.3472656 0.0496,-0.6697266 0.0496,-0.34726559 0.24805,-0.66972652 -0.14883,-0.24804687 -0.19844,-0.49609374 -0.0496,-0.27285156 -0.0496,-0.54570312 0,-0.42167968 0.0496,-0.81855472 0.0496,-0.3968749 0.0992,-0.7937499 -0.0496,-0.024805 -0.17363,-0.024805 -0.24805,0 -0.42168,0.099219 -0.17364,0.074414 -0.37207,0.1736328 -0.12403,-0.024805 -0.22325,-0.024805 -0.0992,0 -0.22324,0 -0.37207,0 -0.74414,0.1240235 -0.34726,0.099219 -0.62012,0.3720703 -0.84336,0 -1.68672,0.1736328 -0.84335,0.14882812 -1.68671,0.3720703 -0.81856,0.22324219 -1.63711,0.49609374 -0.81856,0.24804688 -1.63711,0.44648437 -0.19844,0.96738279 -0.29766,1.95957029 -0.0992,0.9673828 -0.0992,1.984375 0,0.2728515 0,0.5953125 0,0.3224609 0.0496,0.6201171 0.0248,0.1984375 0.12403,0.3472657 0.12402,0.1736328 0.12402,0.3720703 0,0.1736328 -0.0744,0.2728515 0.17364,0.2976563 0.5209,0.5208985 0.37207,-0.1240235 0.64492,-0.1240235 0.44649,0 0.84336,0.1984375 0.39688,0.2232422 0.84336,0.2976563 -0.0992,0.3472656 -0.29765,0.6697265 -0.19844,0.3472656 -0.24805,0.7441406 -0.0992,0.049609 -0.19844,0.049609 -0.0744,0 -0.14883,0 -0.0744,0.024805 -0.12402,0.099219 -0.0248,0.074414 0.0248,0.2976563 -0.34727,0.1736328 -0.69454,0.2232422 -0.34726,0.074414 -0.71933,0.099219 -0.34727,0.024805 -0.71934,0.024805 -0.34726,0 -0.71933,0.024805 0,-0.1488281 -0.0744,-0.2480469 -0.0496,-0.074414 -0.14883,-0.1240234 -0.0992,-0.024805 -0.22324,-0.074414 -0.0992,-0.049609 -0.17363,-0.1240234 -0.19844,-0.1736328 -0.32246,-0.4712891 -0.0992,-0.2728515 -0.22324,-0.5953125 -0.0992,-0.2976562 -0.22325,-0.5953124 -0.12402,-0.2976563 -0.29765,-0.5457032 -0.0496,-0.5457031 -0.0744,-1.0666015 -0.0248,-0.5208984 -0.0248,-1.0666016 0,-1.0169921 0.0744,-1.9843749 0.0744,-0.9921875 0.12403,-2.03398437 -0.22325,-0.22324218 -0.5209,-0.19843749 -0.27285,0.0248047 -0.5457,-0.0496094 -0.29766,-0.37207031 -0.4961,-0.81855467 -0.19844,-0.47128909 -0.19844,-0.96738279 0,-0.2480469 0.0744,-0.5208984 0.22324,-0.074414 0.49609,-0.1488282 0.27285,-0.074414 0.29766,-0.396875 0.17363,0.099219 0.42168,0.099219 0.24804,0 0.49609,-0.074414 0.24805,-0.074414 0.4961,-0.1240234 0.0992,-0.396875 0.14882,-0.7689453 0.0744,-0.396875 0.0248,-0.8185547 0.34726,-0.5208984 0.44648,-1.1410156 0.12403,-0.6201172 0.17364,-1.190625 0,-0.1984375 0,-0.3472656 0,-0.1736328 0.0248,-0.3472656 0.0496,-0.2728516 0.14883,-0.6201172 0.0992,-0.3472656 0.17363,-0.6449219 0.12402,-0.471289 0.14883,-0.8929687 0.0496,-0.4216797 0.0496,-0.8681645 v -0.09922 q 0,-0.124024 -0.0992,-0.173633 -0.0992,-0.07441 -0.0992,-0.198438 l 0.0248,-0.04961 q 0.0992,-0.79375 0.22324,-1.562695 0.14883,-0.79375 0.39687,-1.562696 -0.19843,-0.570507 -0.19843,-1.289843 0,-0.942578 0.29765,-1.810742 -0.14883,-0.396875 -0.14883,-0.768946 0,-0.297656 0.0248,-0.595312 0.0496,-0.297656 0.0248,-0.595313 0.24805,-0.124023 0.39688,-0.347265 0.17363,-0.223243 0.39687,-0.372071 0.74414,-0.0248 1.24024,0.496094 0.5209,0.520899 0.5209,1.265039 0,0.570508 -0.32247,1.091406 0.0992,0.471289 0.0992,1.091407 0,0.917773 -0.12402,1.835546 -0.12402,0.917774 -0.0744,1.860352 -0.14883,0.347266 -0.14883,0.843359 0.0248,0.496094 -0.0248,0.84336 -0.0496,0.347265 -0.14882,0.7193356 -0.0992,0.3472657 -0.12403,0.6945313 -0.0248,0.5705078 -0.0496,1.1410156 0,0.5705078 -0.12402,1.0914062 -0.0496,0.1984375 -0.14883,0.3472656 -0.0744,0.1240235 -0.12402,0.2976563 -0.0992,0.5208984 -0.0744,1.0666015 0.0496,0.5208985 0,1.0666016 -0.0248,0.1736328 -0.0992,0.3472656 -0.0496,0.1736328 -0.0496,0.3720703 0,0.099219 0.0496,0.2480469 2.25723,-0.1984375 4.48965,-0.6697266 2.23242,-0.471289 4.48965,-0.8185547 0.17363,-0.3224609 0.17363,-0.6697265 0,-0.1984375 -0.0744,-0.396875 0.24805,-0.8185547 0.37207,-1.6371094 0.14883,-0.8433593 0.24805,-1.661914 0.0992,-0.8185547 0.17363,-1.6371093 0.0744,-0.843359 0.19844,-1.661914 0.0744,-0.42168 0.14883,-0.843359 0.0744,-0.42168 0.19843,-0.818555 0.0496,-0.148828 0.0992,-0.297656 0.0744,-0.148828 0.0744,-0.272852 0,-0.124023 -0.14883,-0.173633 -0.12403,-0.04961 -0.12403,-0.124023 0,-0.04961 0.0248,-0.04961 0.0496,-0.0248 0.0744,0 0.12403,-0.223242 0.14883,-0.471289 0.0248,-0.248046 0.0248,-0.496093 0.0248,-0.248047 0.0744,-0.471289 0.0496,-0.248047 0.19844,-0.446485 -0.0248,-0.173633 -0.0992,-0.322461 -0.0744,-0.148828 -0.0744,-0.347265 -0.0248,-0.02481 0,-0.04961 0.0496,-0.223242 0.0496,-0.37207 0.0248,-0.173633 0.0248,-0.396875 0,-0.297656 0.27285,-0.471289 -0.12402,-0.42168 -0.17363,-0.917773 -0.0496,-0.496094 -0.0496,-0.967383 0,-0.644922 0.29765,-1.066602 0.32247,-0.446484 1.0418,-0.446484 0.37207,0 0.69453,0.148828 0.34727,0.148828 0.57051,0.42168 0.12402,0.570507 0.12402,1.066601 0,0.347266 -0.0496,0.669727 -0.0248,0.297656 -0.0248,0.644922 0,0.272851 0.0496,0.520898 0.0496,0.223242 0.0992,0.471289 -0.22324,0.347266 -0.32246,0.768945 -0.0992,0.42168 -0.14883,0.868164 -0.0248,0.446485 -0.0496,0.917774 0,0.446484 -0.0248,0.818555 -0.0744,0.818554 -0.24804,1.612304 -0.14883,0.79375 -0.34727,1.5875 0.0744,0.272852 0.0744,0.496094 0,0.446484 -0.12403,0.892969 -0.12402,0.4216793 -0.0744,0.843359 -0.17363,0.4464844 -0.22324,0.9177734 -0.0496,0.4464844 -0.0744,0.9425781 -0.0248,0.4712891 -0.0496,0.9673828 -0.0248,0.4712891 -0.17363,0.9177735 0.0496,0.1240234 0.17363,0.1488281 0.14883,0 0.0992,0.1984375 0.57051,-0.1736328 1.21543,-0.1488281 0.64492,0 1.21543,0 0.37207,0 0.74414,0 0.37207,-0.024805 0.74414,-0.099219 0.37207,-0.099219 0.74414,-0.2232422 0.39688,-0.1488281 0.76895,-0.1488281 0.5209,0 0.79375,0.3720703 0.0496,0.2728516 0.0744,0.5457031 0.0248,0.2728516 0.0248,0.5457031 z" />
      <path
         id="path1045"
         style="fill:#293c85;fill-opacity:1;stroke-width:0.26458332"
         d="m -354.86415,2.6356861 q -0.0744,0.3472657 -0.32246,0.5705078 -0.22324,0.1984375 -0.5457,0.322461 -0.32246,0.1240234 -0.66973,0.1736328 -0.32246,0.024805 -0.59531,0.024805 -0.12402,0 -0.24805,0 -0.0992,-0.024805 -0.22324,-0.024805 -0.12402,0 -0.12402,0.1240234 0,0.1240235 -0.12403,0.1736328 -0.12402,-0.049609 -0.24804,-0.074414 -0.12403,-0.024805 -0.24805,-0.024805 -0.17363,0 -0.34727,0.024805 -0.14882,0.024805 -0.29765,0.024805 -0.19844,0 -0.29766,-0.049609 -0.0744,-0.049609 -0.14883,-0.099219 -0.0496,-0.074414 -0.12402,-0.1488281 -0.0496,-0.074414 -0.17363,-0.1240234 -0.17364,-0.074414 -0.29766,-0.024805 -0.0992,0.049609 -0.32246,-0.1488281 -0.29766,-0.2480469 -0.5209,-0.5953125 -0.19844,-0.3720703 -0.39687,-0.7689453 -0.19844,-0.396875 -0.42168,-0.79375 -0.22325,-0.39687501 -0.5209,-0.69453125 h -0.19844 q -0.44648,0 -0.62012,0.3720703 -0.12402,-0.0744141 -0.24804,-0.17363281 -0.12403,-0.12402343 -0.27286,-0.19843749 -0.5705,0.17363281 -1.19062,0.29765624 -0.62012,0.12402344 -1.24023,0.12402344 -0.17364,0 -0.34727,0 -0.14883,0 -0.32246,-0.0496094 -0.24805,0.0992188 -0.44649,0.24804685 -0.19843,0.1240235 -0.44648,0.1240235 -0.14883,0 -0.34727,-0.099219 -0.14882,0 -0.14882,0.1240234 0.0248,0.1240235 -0.14883,0.1240235 h -0.22324 q -0.34727,0 -0.69454,0.024805 -0.32246,0.024805 -0.66972,0.024805 -0.47129,0 -0.96738,-0.1240235 -0.12403,0.074414 -0.27286,0.074414 -0.0992,0.049609 -0.14882,0.1736328 -0.0496,0.099219 -0.0992,0.1984375 -0.0496,0.074414 -0.14883,0.1488281 -0.0744,0.049609 -0.22324,0.024805 -0.0496,0.2976562 -0.24805,0.4712891 -0.19844,0.1736328 -0.19844,0.5208984 -0.27285,0.1488281 -0.44648,0.3720703 -0.17363,0.2232422 -0.34727,0.471289 -0.17363,0.2480469 -0.37207,0.4712891 -0.17363,0.2232422 -0.44648,0.3472656 -0.12403,0.1488281 -0.0744,0.4712891 -0.27285,0.2232422 -0.66972,0.396875 -0.39688,0.1736328 -0.74414,0.1736328 -0.71934,0 -0.99219,-0.7689453 0,-0.2480469 0.0496,-0.5208984 0.0248,-0.2976563 0.0992,-0.5457032 0.0744,-0.2728515 0.22324,-0.471289 0.14883,-0.2232422 0.42168,-0.322461 0,-0.2232421 -0.14883,-0.2976562 -0.14883,-0.099219 -0.12402,-0.3224609 0.66972,-0.322461 1.16582,-0.8433594 0.49609,-0.5208984 0.89297,-1.09140623 0.42168,-0.59531249 0.84336,-1.19062498 0.42168,-0.59531249 0.94257,-1.06660159 v -0.5208984 q 0.74414,-0.79375 0.96739,-1.7859375 0.27285,-0.049609 0.34726,-0.2480468 0.0992,-0.1984375 0.0992,-0.4712891 0.12402,0 0.14883,-0.099219 0.0496,-0.1240235 0.22324,-0.074414 0.22324,-0.5953125 0.4961,-1.0914062 0.27285,-0.4960938 0.5457,-0.9921875 0.27285,-0.5208984 0.47129,-1.0666016 0.22324,-0.5457031 0.32246,-1.2154296 0.34726,-0.024805 0.37207,-0.322461 0.0496,-0.3224606 0.0992,-0.5705076 0.37207,-0.347266 0.5457,-0.818555 0.19844,-0.471289 0.34727,-0.967383 0.14882,-0.520898 0.32246,-1.016992 0.19843,-0.520898 0.5457,-0.917773 v -0.07441 q 0,-0.124024 -0.0992,-0.148828 -0.0992,-0.04961 -0.0992,-0.173633 0.0248,-0.02481 0.0248,-0.04961 0.29765,-0.124023 0.44648,-0.396875 0.14883,-0.297656 0.44649,-0.421679 0.52089,0.421679 0.91777,0.520898 0.39687,0.07441 1.0418,0.124024 0.32246,0.347265 0.34726,0.843359 0.0496,0.471289 0.17363,0.942578 0.19844,0.79375 0.42168,1.562695 0.24805,0.744141 0.37207,1.5378909 0.0744,0.4712891 0.27286,0.8929688 0.19843,0.4216797 0.27285,0.868164 0.0496,0.3472657 0,0.79375 -0.0496,0.4216797 0.0992,0.7441406 l 0.17363,0.396875 q 0.12402,0.2728516 0.19844,0.5705078 0.0992,0.2976563 0.17363,0.5953125 0.19844,0.7441406 0.34727,1.6123047 0.17363,0.8433594 0.52089,1.5378906 0.12403,0.2480469 0.37207,0.3472656 0.27286,0.099219 0.59532,0.1488281 0.32246,0.024805 0.62011,0.024805 0.32246,-0.024805 0.54571,-0.024805 0.12402,0 0.24804,0 0.14883,0 0.29766,0.049609 0.0992,0.19843751 0.0992,0.34726563 0,0.29765624 -0.19844,0.47128905 -0.19844,0.17363281 -0.19844,0.396875 0,0.12402343 0.0992,0.27285156 -0.0992,-0.0248047 -0.29765,-0.0248047 -0.57051,0 -1.11621,0.1984375 0.19843,0.42167968 0.52089,0.71933595 0.34727,0.2728515 0.71934,0.5208984 0.24805,-0.1984375 0.5209,-0.1984375 0.29765,0 0.5457,0.1488281 0.27285,0.1240235 0.57051,0.1240235 0.22324,0 0.32246,-0.074414 0.19844,0.2232422 0.32246,0.4712891 0.12402,0.2232421 0.32246,0.4216796 z m -7.76387,-3.9687499 q -0.0496,-0.4216797 -0.17363,-0.5953125 -0.0992,-0.1984375 -0.17363,-0.471289 -0.0992,-0.3472657 -0.14883,-0.7441407 -0.0248,-0.396875 -0.0992,-0.7689453 -0.17363,-0.8433593 -0.39687,-1.6867187 -0.19844,-0.8433594 -0.5209,-1.6371093 0.0992,-0.1488282 0.0992,-0.2728516 v -0.074414 q -0.22324,-0.2480468 -0.32246,-0.5953124 -0.0992,-0.3720704 -0.19844,-0.719336 -0.0744,-0.3720703 -0.22324,-0.6697265 -0.12403,-0.322461 -0.42168,-0.5208981 -0.0744,0.1488278 -0.0744,0.3472653 0,0.1736328 0.0248,0.3224609 0.0496,0.1488281 0.0496,0.3224609 -0.24805,0.1240235 -0.37207,0.396875 -0.0992,0.2480469 -0.34727,0.396875 -0.19844,0.79375 -0.57051,1.5130859 -0.37207,0.6945313 -0.79375,1.3890625 -0.39687,0.6945312 -0.76894,1.4138672 -0.37207,0.6945312 -0.59531,1.4634765 -0.32247,0.2232422 -0.44649,0.5705078 -0.0992,0.3472656 -0.0992,0.6945313 0.22324,0.1240234 0.4961,0.1488281 0.29765,0 0.5705,0 0.27286,0 0.5209,0.049609 0.24805,0.049609 0.44649,0.24804683 0.32246,-0.0992188 0.69453,-0.12402344 0.39687,-0.0496094 0.64492,-0.22324219 0.49609,0.17363282 1.0666,0.17363282 0.29766,0 0.57051,-0.0496094 0.29766,-0.049609 0.57051,-0.1240234 0.22324,0.049609 0.34726,0.17363282 0.12403,0.0992188 0.37207,0.0744141 0.12403,-0.0992188 0.14883,-0.19843748 0.0248,-0.1240235 0.12402,-0.2232422 z" />
      <path
         id="path1047"
         style="fill:#293c85;fill-opacity:1;stroke-width:0.26458332"
         d="m -336.45907,-0.01841538 q 0,0.24804687 -0.14883,0.42167968 -0.12402,0.14882812 -0.32246,0.27285156 -0.17363,0.12402343 -0.37207,0.22324218 -0.17363,0.0992188 -0.32246,0.24804686 -0.0992,0.099219 -0.14883,0.2480469 -0.0248,0.1240234 -0.12402,0.1736328 -0.14883,0.1240234 -0.32246,0.1488281 -0.17364,0.024805 -0.37207,0.074414 -0.17364,0.024805 -0.34727,0.099219 -0.17363,0.049609 -0.29766,0.2232422 -1.16582,0.1240234 -2.30683,0.3224609 -1.11621,0.1984375 -2.30684,0.1984375 -0.22324,0 -0.49609,0.049609 -0.24805,0.024805 -0.47129,0.049609 -0.5209,0.049609 -1.0418,0.074414 -0.49609,0.024805 -1.01699,0.024805 -0.71934,0 -1.43867,-0.049609 -0.71934,-0.074414 -1.41387,-0.2232422 -0.17363,-0.1240235 -0.39687,-0.1984375 -0.22325,-0.074414 -0.47129,-0.1488281 -0.22325,-0.074414 -0.42168,-0.1736329 -0.19844,-0.099219 -0.29766,-0.2976562 -0.37207,-0.024805 -0.66973,-0.1488281 -0.27285,-0.1240235 -0.52089,-0.2728516 -0.22325,-0.1736328 -0.47129,-0.3472656 -0.24805,-0.17363281 -0.57051,-0.29765624 -0.24805,-0.34726562 -0.5209,-0.66972656 -0.24805,-0.34726562 -0.62012,-0.5705078 -0.0744,-0.4712891 -0.24804,-0.9425781 -0.14883,-0.4712891 -0.32246,-0.9177734 -0.14883,-0.4712891 -0.24805,-0.9425781 -0.12402,-0.4712891 -0.12402,-0.9673828 0,-0.3472657 0.0992,-0.8433594 0.0992,-0.4960937 0.24805,-0.9921875 0.17363,-0.5208984 0.39688,-0.9673828 0.22324,-0.4464844 0.44648,-0.7193359 0.0744,-0.074414 0.17363,-0.1240235 0.0992,-0.049609 0.17364,-0.1488281 0.22324,-0.2480468 0.47128,-0.396875 0.24805,-0.1736328 0.5209,-0.396875 0.0992,-0.099219 0.14883,-0.2232421 0.0744,-0.1240235 0.19844,-0.2232422 0.0744,-0.049609 0.19844,-0.024805 0.14882,0.024805 0.24804,-0.049609 0.0992,-0.074414 0.0992,-0.1736328 0,-0.099219 0.0744,-0.1736328 0.0248,-0.024805 0.14882,0 0.12403,0 0.14883,0 0.17364,0 0.39688,-0.2232419 0.22324,-0.248047 0.37207,-0.322461 0.17363,-0.09922 0.34726,-0.124024 0.17364,-0.04961 0.37207,-0.148828 0.27286,-0.148828 0.5209,-0.223242 0.27285,-0.09922 0.54571,-0.223242 0.14882,-0.04961 0.27285,-0.173633 0.12402,-0.124023 0.24804,-0.173633 0.22325,-0.07441 0.47129,-0.09922 0.27285,-0.04961 0.4961,-0.07441 0.24804,-0.04961 0.47129,-0.09922 0.24804,-0.07441 0.44648,-0.248047 h 0.19844 q 0.44648,0 0.86816,-0.124024 0.42168,-0.124023 0.86817,-0.124023 0.12402,0 0.37207,0.04961 0.19843,-0.124023 0.44648,-0.124023 0.42168,0 0.84336,0.223242 0.42168,0.198438 0.86816,0.198438 0.0744,0 0.14883,0 0.0992,0 0.19844,-0.02481 0.27285,0.272851 0.64492,0.297656 0.39688,0.02481 0.66973,0.223242 0.17363,0.148828 0.27285,0.347266 0.12402,0.198437 0.19844,0.42168 0.0744,0.223242 0.14882,0.446484 0.0744,0.2232421 0.19844,0.3968749 -0.12402,0.8929688 -0.74414,1.4386719 -0.59531,0.5208984 -1.51308,0.5208984 -0.34727,0 -0.59532,-0.074414 -0.22324,-0.099219 -0.42168,-0.1984375 -0.17363,-0.099219 -0.37207,-0.1984375 -0.19843,-0.099219 -0.44648,-0.1488281 0.27285,-0.4960938 0.34726,-1.0666016 -0.27285,-0.1240234 -0.5457,-0.1736328 -0.27285,-0.049609 -0.5209,-0.1736328 -0.66972,0.1736328 -1.31465,0.2480469 -0.62011,0.049609 -1.16582,0.5208984 -0.12402,-0.024805 -0.27285,-0.049609 -0.12402,-0.024805 -0.24804,-0.024805 -0.14883,0 -0.59532,0.2232422 -0.44648,0.1984375 -0.96738,0.4712891 -0.49609,0.2728515 -0.96738,0.5457031 -0.44649,0.2728515 -0.62012,0.3720703 -0.19844,0.1240234 -0.34727,0.2976562 -0.14882,0.1736328 -0.29765,0.3720703 -0.14883,0.1736329 -0.29766,0.3472657 -0.14883,0.1488281 -0.37207,0.2232421 -0.0496,0.2728516 -0.17363,0.4712891 -0.12402,0.1984375 -0.27285,0.4216797 -0.0248,0.4464844 -0.0992,0.8929687 -0.0496,0.4464844 -0.0496,0.8929688 0,0.1736328 0,0.3224609 0,0.1488281 0.0496,0.2728515 0.24805,0.322461 0.39687,0.719336 0.17364,0.396875 0.57051,0.5457031 0.0248,0.099219 -0.0248,0.1240234 -0.0248,0.024805 -0.0496,0.1240235 0.14883,0.2728515 0.37207,0.4464843 0.24804,0.14882815 0.49609,0.32246096 0.24805,0.14882813 0.47129,0.32246094 0.22324,0.17363281 0.34727,0.44648436 0.37207,0 0.69453,0.12402344 0.34726,0.12402344 0.64492,0.27285156 0.32246,0.14882812 0.59531,0.27285156 0.29766,0.12402343 0.59531,0.12402343 0.27286,0 0.4961,-0.0744141 0.64492,0.1984375 1.28984,0.29765621 0.66973,0.074414 1.33946,0.074414 0.81855,0 1.6371,-0.099219 0.81856,-0.0992187 1.63711,-0.17363276 0.29766,-0.0496094 0.57051,-0.0496094 0.27285,0 0.5457,-0.0496094 0.34727,-0.0496094 0.64493,-0.32246093 0.32246,-0.27285156 0.62011,-0.396875 0.27286,0.17363281 0.64493,0.17363281 0.42168,0 0.81855,-0.12402343 0.39688,-0.14882812 0.81855,-0.14882812 z" />
      <path
         id="path1049"
         style="fill:#293c85;fill-opacity:1;stroke-width:0.26458332"
         d="m -317.037,3.1813893 q 0,0.1984375 -0.17363,0.3224609 -0.17364,0.1240234 -0.39688,0.2480469 -0.22324,0.099219 -0.44648,0.2232421 -0.22324,0.099219 -0.29766,0.2728516 -0.27285,-0.074414 -0.5457,-0.099219 -0.24805,-0.024805 -0.4961,-0.024805 -0.32246,0 -0.66972,0.074414 -0.34727,0.049609 -0.54571,0.322461 -0.12402,-0.049609 -0.22324,-0.049609 -0.0744,0 -0.19844,0 -0.37207,0 -0.76894,0.049609 -0.37207,0.074414 -0.74414,0.074414 -0.19844,0 -0.39688,-0.024805 -0.17363,-0.024805 -0.32246,-0.1488281 -0.22324,0.074414 -0.47129,0.074414 -0.32246,0 -0.62011,-0.099219 -0.29766,-0.099219 -0.59532,-0.2232422 -0.27285,-0.1488281 -0.5705,-0.2728515 -0.29766,-0.1240235 -0.59532,-0.1984375 l -0.17363,-0.3472656 q -0.39687,-0.074414 -0.74414,-0.2232422 -0.32246,-0.1736328 -0.64492,-0.3720703 -0.32246,-0.1984375 -0.64492,-0.3720703 -0.29766,-0.1984375 -0.62012,-0.2728516 -0.12402,-0.099219 -0.22324,-0.1736328 -0.0992,-0.099219 -0.14883,-0.2728516 -0.32246,-0.074414 -0.59531,-0.1984375 -0.24805,-0.1488281 -0.5209,-0.2728515 -0.24805,-0.1488281 -0.57051,-0.24804689 -0.29766,-0.12402343 -0.71934,-0.14882812 -0.14882,-0.22324218 -0.42168,-0.42167968 -0.27285,-0.1984375 -0.5457,-0.1984375 -0.17363,0 -0.27285,0.0744141 v 0.12402344 q 0,0.29765625 0.17363,0.59531249 0.17364,0.2976562 0.44649,0.4216797 -0.0248,0.049609 -0.0248,0.1488281 0,0.1488281 0.0496,0.2976563 0.0744,0.1488281 0.24805,0.1984374 -0.0992,0.2728516 -0.24805,0.5705079 -0.14883,0.2728515 -0.37207,0.5208984 -0.22324,0.2480469 -0.49609,0.4216797 -0.24805,0.1488281 -0.57051,0.1488281 -0.0992,0.049609 -0.14883,0.1488281 -0.0248,0.099219 -0.0496,0.2232422 0,0.099219 -0.0496,0.1984375 -0.0248,0.099219 -0.0992,0.1488281 -0.0992,0.024805 -0.27285,0.024805 -0.24804,0 -0.42168,-0.074414 -0.17363,-0.074414 -0.37207,-0.1984375 V 4.074358 q 0,-0.2976563 -0.12402,-0.4712891 -0.0992,-0.1736328 -0.24805,-0.3224609 -0.12402,-0.1736328 -0.24804,-0.3472656 -0.0992,-0.1736328 -0.0992,-0.4712891 -0.0744,0.049609 -0.17364,0.074414 -0.0744,0.024805 -0.0992,0.099219 -0.0496,-0.2480468 -0.0496,-0.4216796 0,-0.4960938 0.14882,-0.9425782 0.17364,-0.44648432 0.17364,-0.94257806 v -0.37207031 q 0,-0.57050781 -0.0248,-1.11621093 -0.0248,-0.5457031 -0.0248,-1.0914062 0,-0.4712891 0.0248,-0.9177734 0.0248,-0.4712891 0.0992,-0.9425782 0.27285,-1.6371093 0.44649,-3.249414 0.19843,-1.6371093 0.62011,-3.2494142 -0.0248,-0.124023 -0.0744,-0.248047 -0.0248,-0.124023 -0.0248,-0.248047 0,-0.09922 0.0248,-0.124023 0.0992,-0.496094 0.44648,-0.818555 0.34727,-0.347265 0.89297,-0.347265 h 0.0744 q 0.29765,0.124023 0.44648,0.37207 0.17363,0.223242 0.5209,0.173633 0,0.04961 -0.0248,0.09922 0,0.04961 0,0.09922 0,0.272852 0.14883,0.396875 0.14883,0.124024 0.34727,0.272852 -0.12403,0.248047 -0.17364,0.570508 -0.0248,0.322461 -0.0496,0.6449216 -0.0248,0.3224609 -0.0992,0.6201172 -0.0496,0.2976562 -0.22325,0.4960937 0.0992,0.2480469 0.12403,0.4960937 0.0248,0.2480469 0.0248,0.5208985 0,0.2728515 -0.0248,0.5705078 -0.0248,0.2728515 -0.0248,0.5705078 0,0.2728515 0.0744,0.4960937 0.5457,0 0.62011,-0.5208984 0.64493,-0.1736328 1.14102,-0.4712891 0.5209,-0.3224609 0.99219,-0.6697265 0.47129,-0.3472656 0.91777,-0.7193359 0.47129,-0.3720704 1.0418,-0.6449219 v -0.049609 q 0,-0.1240234 0.0744,-0.1488281 0.0744,-0.049609 0.0248,-0.2232422 0.37207,-0.1240234 0.62011,-0.3224609 0.27286,-0.2232422 0.4961,-0.4712886 0.24804,-0.272852 0.47129,-0.520899 0.24804,-0.272851 0.5457,-0.471289 0.19844,-0.42168 0.34727,-0.892969 0.17363,-0.471289 0.44648,-0.868164 0.47129,0 1.01699,0.07441 0.57051,0.07441 0.96738,0.347266 -0.0496,0.198437 0.17364,0.272851 -0.27285,1.041797 -0.81856,1.885157 -0.5457,0.8185544 -1.41386,1.3890622 -0.12403,0.2728515 -0.32247,0.471289 -0.19843,0.1984375 -0.39687,0.396875 -0.19844,0.1736328 -0.39688,0.3720703 -0.19843,0.1984375 -0.32246,0.4712891 -0.29765,0.049609 -0.52089,0.1736328 -0.19844,0.1240234 -0.39688,0.2976563 -0.17363,0.1488281 -0.39687,0.2976562 -0.19844,0.1240234 -0.44649,0.1984375 -0.19844,0.2480469 -0.47129,0.4216797 -0.24804,0.1736328 -0.5209,0.3472656 -0.24804,0.1488281 -0.47129,0.3472656 -0.22324,0.1736328 -0.32246,0.4712891 h -0.64492 q -0.27285,0.471289 -0.71933,0.79375 -0.42168,0.2976562 -0.86817,0.5705078 0.0744,0.2976562 0.27285,0.4960937 0.19844,0.1736328 0.42168,0.3224609 0.24805,0.1488282 0.47129,0.322461 0.24805,0.1488281 0.42168,0.3720703 1.0418,0.396875 2.00918,0.91777341 0.96738,0.49609374 1.83555,1.21542966 0.0496,-0.0248047 0.12402,-0.0248047 0.19844,0 0.32246,0.12402343 0.12403,0.0992188 0.34727,0.0744141 0.0992,0.24804688 0.27285,0.34726562 0.17363,0.0744141 0.34727,0.12402344 0.19843,0.0496094 0.37207,0.14882816 0.17363,0.099219 0.24804,0.3472656 0.37207,0.024805 0.66973,0.1488281 0.32246,0.1240234 0.57051,0.396875 h 0.29765 q 0.79375,0 1.53789,0.1488281 0.74414,0.1488281 1.51309,0.1488281 0.39687,0 0.76895,-0.049609 0.37207,-0.074414 0.71933,-0.2480469 0.12402,0.074414 0.27285,0.1488281 0.14883,0.074414 0.32246,0.074414 0.12403,0 0.37207,-0.049609 0.0248,0.2728516 0.17364,0.5208984 0.17363,0.2480469 0.17363,0.5457032 z" />
      <path
         id="path1051"
         style="fill:#293c85;fill-opacity:1;stroke-width:0.26458332"
         d="m -301.41004,-9.3449777 q 0,0.3472656 -0.0248,0.6945312 -0.0248,0.3472656 -0.0744,0.6945312 -0.17364,0.2480469 -0.34727,0.4464844 -0.14883,0.1736328 -0.19844,0.4464844 -0.27285,0.1984375 -0.62011,0.5457031 -0.32246,0.3472656 -0.27285,0.6945312 h -0.34727 q -0.29766,0.4464844 -0.69453,0.7689453 -0.39688,0.322461 -0.84336,0.6201172 -0.42168,0.2728516 -0.86816,0.5705078 -0.42168,0.2728516 -0.79375,0.6449219 -0.19844,0.024805 -0.32247,0.074414 -0.12402,0.049609 -0.32246,0.024805 -0.76894,0.4960938 -1.6123,0.8681641 -0.81856,0.3720703 -1.66192,0.7441406 -0.81855,0.3472656 -1.6371,0.7441406 -0.81856,0.396875 -1.5627,0.91777343 -0.0744,-0.0248047 -0.19844,-0.0248047 -0.22324,0 -0.44648,0.0744141 -0.22324,0.0496094 -0.44649,0.0496094 -0.0992,0 -0.27285,-0.0248047 -0.14883,-0.0248047 -0.22324,-0.0744141 -0.12402,-0.07441407 -0.22324,-0.22324219 -0.0992,-0.14882812 -0.14883,-0.32246093 -0.0496,-0.1984375 -0.0744,-0.37207031 -0.0248,-0.17363281 -0.0248,-0.2976562 0,-0.1488282 0.0248,-0.322461 0.0248,-0.1736328 0.0744,-0.3224609 0.71934,-0.049609 1.43867,-0.3720703 0.74414,-0.3224609 1.41387,-0.6201172 0.17363,-0.074414 0.27285,-0.1736328 0.12402,-0.1240234 0.24805,-0.1984375 0.12402,-0.099219 0.27285,-0.1736328 0.14883,-0.074414 0.37207,-0.074414 h 0.0744 q 1.5627,-0.7193359 3.05098,-1.5626953 1.51309,-0.8433593 3.00137,-1.7115234 0.0744,-0.2232422 0.22324,-0.4464843 0.17363,-0.2232422 0.32246,-0.4216797 0.14883,-0.2232422 0.27285,-0.4464844 0.12403,-0.2232422 0.12403,-0.4464844 0,-0.4464843 -0.42168,-0.7441406 h -0.0992 q -0.29766,0 -0.5209,-0.074414 -0.22324,-0.099219 -0.42168,-0.1736328 -0.19844,-0.099219 -0.44649,-0.1488282 -0.24804,-0.074414 -0.5705,-0.049609 -0.12403,-0.099219 -0.39688,-0.1736329 -0.27285,-0.074414 -0.44648,-0.074414 -0.89297,0 -1.76114,0.1240234 -0.86816,0.099219 -1.73632,0.1240235 -0.22325,0.1240234 -0.42168,0.2232421 -0.19844,0.099219 -0.47129,0.099219 -0.12403,0 -0.22324,0 -0.0992,-0.024805 -0.22325,-0.049609 -0.47129,0.1984375 -1.0666,0.3472656 -0.59531,0.1240235 -1.19062,0.322461 -0.57051,0.1736328 -1.0666,0.4464843 -0.4961,0.2728516 -0.76895,0.7441407 0,0.1240234 0.0496,0.2232421 0.0496,0.074414 0.0496,0.1984375 v 0.099219 q -0.14883,0.1488281 -0.19844,0.3472656 -0.0496,0.1736328 -0.0744,0.3720703 -0.0248,0.1736328 -0.0744,0.3720703 -0.0248,0.1736328 -0.17363,0.3472656 0.0992,0.3720703 0.0992,0.8185547 0,0.4960938 -0.0744,0.9921875 -0.0496,0.4960937 -0.0496,0.9921875 0,0.471289 0.0992,0.8433593 -0.14882,0.1488282 -0.12402,0.4464844 0.0248,0.2976563 -0.12402,0.44648438 0,0.1984375 0.0992,0.27285156 0.12402,0.0744141 0.14882,0.24804687 -0.0992,0.42167968 -0.0992,0.91777342 0,0.71933597 0.14882,1.46347657 0.17364,0.7441406 0.39688,1.4634765 0.39687,-0.1240234 0.84336,-0.1984375 0.47129,-0.099219 0.89297,-0.099219 0.0744,0 0.14882,0.024805 0.0744,0 0.14883,0 0.0496,0.2728515 0.19844,0.4960937 0.14883,0.2232422 0.27285,0.4960937 -0.12402,0.1736329 -0.22324,0.2728516 -0.0744,0.1240234 -0.0744,0.3224609 -0.34727,0.024805 -0.57051,0.1736328 -0.22324,0.1736329 -0.4961,0.3720703 h -0.0992 q -0.42168,0 -0.69454,0.1488282 -0.27285,0.1736328 -0.62011,0.3720703 -0.29766,-0.1240235 -0.59532,-0.1240235 -0.32246,0 -0.64492,0.1240235 -0.39687,-0.1736328 -0.64492,-0.5457031 -0.24805,-0.3472657 -0.42168,-0.79375 -0.17363,-0.4216797 -0.32246,-0.8681641 -0.12402,-0.4464843 -0.29766,-0.8185547 V 2.412444 q 0,-0.5705078 -0.0992,-1.0914063 -0.0744,-0.5457031 -0.0744,-1.1162109 0,-0.22324218 0.0248,-0.47128906 0.0496,-0.24804687 0.14882,-0.47128905 -0.0496,-0.22324218 -0.0496,-0.42167969 0,-0.2232422 0,-0.471289 0,-0.7441407 0.0496,-1.4882813 0.0744,-0.7441406 0.0744,-1.4882812 0,-0.5457031 -0.0744,-1.1162109 -0.12402,0.049609 -0.22324,0.099219 -0.0992,0.049609 -0.22324,0.049609 -0.12402,0 -0.24805,-0.024805 -0.0992,-0.024805 -0.19843,-0.049609 -0.24805,-0.2232421 -0.34727,-0.5457031 -0.0992,-0.3224609 -0.27285,-0.5953125 0,-0.471289 0.14883,-0.7689453 0.12402,-0.3224609 0.32246,-0.5705078 0.19843,-0.2728515 0.39687,-0.5208984 0.22324,-0.2480469 0.37207,-0.6201172 h 0.0992 q 0.39688,0 0.79375,-0.2480469 0.39688,-0.2728515 0.89297,-0.2728515 0.17363,-0.2232419 0.47129,-0.3720699 0.29766,-0.173633 0.62012,-0.272852 0.34726,-0.09922 0.66972,-0.124023 0.34727,-0.04961 0.64492,-0.04961 0.0992,-0.173633 0.29766,-0.223242 0.19844,-0.07441 0.39688,-0.124023 0.22324,-0.07441 0.39687,-0.124024 0.19844,-0.07441 0.32246,-0.248047 0.19844,0.04961 0.37207,0.04961 0.32246,0 0.62012,-0.07441 0.29766,-0.09922 0.59531,-0.198438 0.29766,-0.124023 0.59531,-0.223242 0.32246,-0.09922 0.66973,-0.09922 0.12402,0 0.24805,0.02481 0.12402,0 0.24804,0 0.19844,0 0.22325,-0.148828 0.0496,-0.148828 0.17363,-0.223242 0.0744,0.0248 0.27285,0.0248 0.49609,0 0.96738,-0.07441 0.47129,-0.09922 0.96739,-0.09922 0.22324,0 0.44648,0.02481 0.22324,0.0248 0.44649,0.124024 0.0496,-0.07441 0.0992,-0.124024 0.0496,-0.04961 0.0744,-0.124023 1.21543,0.07441 2.28203,0.496093 1.09141,0.42168 2.25723,0.744141 0.14882,0.223242 0.34726,0.396875 0.22324,0.173633 0.42168,0.347266 0.22324,0.173632 0.42168,0.347265 0.19844,0.1736331 0.34727,0.4216799 z" />
      <path
         id="path1053"
         style="fill:#293c85;fill-opacity:1;stroke-width:0.26458332"
         d="m -284.41884,2.6356861 q -0.0744,0.3472657 -0.32246,0.5705078 -0.22324,0.1984375 -0.5457,0.322461 -0.32246,0.1240234 -0.66973,0.1736328 -0.32246,0.024805 -0.59531,0.024805 -0.12402,0 -0.24805,0 -0.0992,-0.024805 -0.22324,-0.024805 -0.12402,0 -0.12402,0.1240234 0,0.1240235 -0.12402,0.1736328 -0.12403,-0.049609 -0.24805,-0.074414 -0.12403,-0.024805 -0.24805,-0.024805 -0.17363,0 -0.34726,0.024805 -0.14883,0.024805 -0.29766,0.024805 -0.19844,0 -0.29766,-0.049609 -0.0744,-0.049609 -0.14882,-0.099219 -0.0496,-0.074414 -0.12403,-0.1488281 -0.0496,-0.074414 -0.17363,-0.1240234 -0.17363,-0.074414 -0.29766,-0.024805 -0.0992,0.049609 -0.32246,-0.1488281 -0.29765,-0.2480469 -0.5209,-0.5953125 -0.19843,-0.3720703 -0.39687,-0.7689453 -0.19844,-0.396875 -0.42168,-0.79375 -0.22324,-0.39687501 -0.5209,-0.69453125 h -0.19844 q -0.44648,0 -0.62011,0.3720703 -0.12403,-0.0744141 -0.24805,-0.17363281 -0.12402,-0.12402343 -0.27285,-0.19843749 -0.57051,0.17363281 -1.19063,0.29765624 -0.62011,0.12402344 -1.24023,0.12402344 -0.17363,0 -0.34727,0 -0.14883,0 -0.32246,-0.0496094 -0.24805,0.0992188 -0.44648,0.24804685 -0.19844,0.1240235 -0.44649,0.1240235 -0.14883,0 -0.34726,-0.099219 -0.14883,0 -0.14883,0.1240234 0.0248,0.1240235 -0.14883,0.1240235 h -0.22324 q -0.34727,0 -0.69453,0.024805 -0.32246,0.024805 -0.66973,0.024805 -0.47129,0 -0.96738,-0.1240235 -0.12403,0.074414 -0.27285,0.074414 -0.0992,0.049609 -0.14883,0.1736328 -0.0496,0.099219 -0.0992,0.1984375 -0.0496,0.074414 -0.14883,0.1488281 -0.0744,0.049609 -0.22324,0.024805 -0.0496,0.2976562 -0.24805,0.4712891 -0.19844,0.1736328 -0.19844,0.5208984 -0.27285,0.1488281 -0.44648,0.3720703 -0.17363,0.2232422 -0.34727,0.471289 -0.17363,0.2480469 -0.37207,0.4712891 -0.17363,0.2232422 -0.44648,0.3472656 -0.12402,0.1488281 -0.0744,0.4712891 -0.27286,0.2232422 -0.66973,0.396875 -0.39688,0.1736328 -0.74414,0.1736328 -0.71934,0 -0.99219,-0.7689453 0,-0.2480469 0.0496,-0.5208984 0.0248,-0.2976563 0.0992,-0.5457032 0.0744,-0.2728515 0.22324,-0.471289 0.14883,-0.2232422 0.42168,-0.322461 0,-0.2232421 -0.14883,-0.2976562 -0.14882,-0.099219 -0.12402,-0.3224609 0.66973,-0.322461 1.16582,-0.8433594 0.49609,-0.5208984 0.89297,-1.09140623 0.42168,-0.59531249 0.84336,-1.19062498 0.42168,-0.59531249 0.94258,-1.06660159 v -0.5208984 q 0.74414,-0.79375 0.96738,-1.7859375 0.27285,-0.049609 0.34726,-0.2480468 0.0992,-0.1984375 0.0992,-0.4712891 0.12403,0 0.14883,-0.099219 0.0496,-0.1240235 0.22324,-0.074414 0.22325,-0.5953125 0.4961,-1.0914062 0.27285,-0.4960938 0.5457,-0.9921875 0.27285,-0.5208984 0.47129,-1.0666016 0.22324,-0.5457031 0.32246,-1.2154296 0.34727,-0.024805 0.37207,-0.322461 0.0496,-0.3224606 0.0992,-0.5705076 0.37207,-0.347266 0.5457,-0.818555 0.19844,-0.471289 0.34727,-0.967383 0.14883,-0.520898 0.32246,-1.016992 0.19844,-0.520898 0.5457,-0.917773 v -0.07441 q 0,-0.124024 -0.0992,-0.148828 -0.0992,-0.04961 -0.0992,-0.173633 0.0248,-0.02481 0.0248,-0.04961 0.29766,-0.124023 0.44648,-0.396875 0.14883,-0.297656 0.44649,-0.421679 0.5209,0.421679 0.91777,0.520898 0.39688,0.07441 1.0418,0.124024 0.32246,0.347265 0.34726,0.843359 0.0496,0.471289 0.17364,0.942578 0.19843,0.79375 0.42168,1.562695 0.24804,0.744141 0.37207,1.5378909 0.0744,0.4712891 0.27285,0.8929688 0.19844,0.4216797 0.27285,0.868164 0.0496,0.3472657 0,0.79375 -0.0496,0.4216797 0.0992,0.7441406 l 0.17363,0.396875 q 0.12403,0.2728516 0.19844,0.5705078 0.0992,0.2976563 0.17363,0.5953125 0.19844,0.7441406 0.34727,1.6123047 0.17363,0.8433594 0.5209,1.5378906 0.12402,0.2480469 0.37207,0.3472656 0.27285,0.099219 0.59531,0.1488281 0.32246,0.024805 0.62012,0.024805 0.32246,-0.024805 0.5457,-0.024805 0.12402,0 0.24805,0 0.14882,0 0.29765,0.049609 0.0992,0.19843751 0.0992,0.34726563 0,0.29765624 -0.19844,0.47128905 -0.19843,0.17363281 -0.19843,0.396875 0,0.12402343 0.0992,0.27285156 -0.0992,-0.0248047 -0.29765,-0.0248047 -0.57051,0 -1.11621,0.1984375 0.19844,0.42167968 0.5209,0.71933595 0.34726,0.2728515 0.71933,0.5208984 0.24805,-0.1984375 0.5209,-0.1984375 0.29766,0 0.5457,0.1488281 0.27286,0.1240235 0.57051,0.1240235 0.22324,0 0.32246,-0.074414 0.19844,0.2232422 0.32246,0.4712891 0.12403,0.2232421 0.32246,0.4216796 z m -7.76386,-3.9687499 q -0.0496,-0.4216797 -0.17364,-0.5953125 -0.0992,-0.1984375 -0.17363,-0.471289 -0.0992,-0.3472657 -0.14883,-0.7441407 -0.0248,-0.396875 -0.0992,-0.7689453 -0.17363,-0.8433593 -0.39687,-1.6867187 -0.19844,-0.8433594 -0.5209,-1.6371093 0.0992,-0.1488282 0.0992,-0.2728516 v -0.074414 q -0.22324,-0.2480468 -0.32246,-0.5953124 -0.0992,-0.3720704 -0.19844,-0.719336 -0.0744,-0.3720703 -0.22324,-0.6697265 -0.12402,-0.322461 -0.42168,-0.5208981 -0.0744,0.1488278 -0.0744,0.3472653 0,0.1736328 0.0248,0.3224609 0.0496,0.1488281 0.0496,0.3224609 -0.24805,0.1240235 -0.37207,0.396875 -0.0992,0.2480469 -0.34727,0.396875 -0.19843,0.79375 -0.5705,1.5130859 -0.37207,0.6945313 -0.79375,1.3890625 -0.39688,0.6945312 -0.76895,1.4138672 -0.37207,0.6945312 -0.59531,1.4634765 -0.32246,0.2232422 -0.44649,0.5705078 -0.0992,0.3472656 -0.0992,0.6945313 0.22324,0.1240234 0.49609,0.1488281 0.29766,0 0.57051,0 0.27285,0 0.5209,0.049609 0.24804,0.049609 0.44648,0.24804683 0.32246,-0.0992188 0.69453,-0.12402344 0.39688,-0.0496094 0.64492,-0.22324219 0.4961,0.17363282 1.0666,0.17363282 0.29766,0 0.57051,-0.0496094 0.29766,-0.049609 0.57051,-0.1240234 0.22324,0.049609 0.34727,0.17363282 0.12402,0.0992188 0.37207,0.0744141 0.12402,-0.0992188 0.14882,-0.19843748 0.0248,-0.1240235 0.12403,-0.2232422 z" />
      <path
         id="path1055"
         style="fill:#293c85;fill-opacity:1;stroke-width:0.26458332"
         d="m -266.01376,-0.01841538 q 0,0.24804687 -0.14883,0.42167968 -0.12402,0.14882812 -0.32246,0.27285156 -0.17363,0.12402343 -0.37207,0.22324218 -0.17363,0.0992188 -0.32246,0.24804686 -0.0992,0.099219 -0.14883,0.2480469 -0.0248,0.1240234 -0.12402,0.1736328 -0.14883,0.1240234 -0.32246,0.1488281 -0.17363,0.024805 -0.37207,0.074414 -0.17364,0.024805 -0.34727,0.099219 -0.17363,0.049609 -0.29765,0.2232422 -1.16582,0.1240234 -2.30684,0.3224609 -1.11621,0.1984375 -2.30684,0.1984375 -0.22324,0 -0.49609,0.049609 -0.24805,0.024805 -0.47129,0.049609 -0.5209,0.049609 -1.0418,0.074414 -0.49609,0.024805 -1.01699,0.024805 -0.71933,0 -1.43867,-0.049609 -0.71934,-0.074414 -1.41387,-0.2232422 -0.17363,-0.1240235 -0.39687,-0.1984375 -0.22324,-0.074414 -0.47129,-0.1488281 -0.22324,-0.074414 -0.42168,-0.1736329 -0.19844,-0.099219 -0.29766,-0.2976562 -0.37207,-0.024805 -0.66972,-0.1488281 -0.27285,-0.1240235 -0.5209,-0.2728516 -0.22324,-0.1736328 -0.47129,-0.3472656 -0.24805,-0.17363281 -0.57051,-0.29765624 -0.24805,-0.34726562 -0.5209,-0.66972656 -0.24804,-0.34726562 -0.62011,-0.5705078 -0.0744,-0.4712891 -0.24805,-0.9425781 -0.14883,-0.4712891 -0.32246,-0.9177734 -0.14883,-0.4712891 -0.24805,-0.9425781 -0.12402,-0.4712891 -0.12402,-0.9673828 0,-0.3472657 0.0992,-0.8433594 0.0992,-0.4960937 0.24804,-0.9921875 0.17364,-0.5208984 0.39688,-0.9673828 0.22324,-0.4464844 0.44648,-0.7193359 0.0744,-0.074414 0.17364,-0.1240235 0.0992,-0.049609 0.17363,-0.1488281 0.22324,-0.2480468 0.47129,-0.396875 0.24804,-0.1736328 0.5209,-0.396875 0.0992,-0.099219 0.14882,-0.2232421 0.0744,-0.1240235 0.19844,-0.2232422 0.0744,-0.049609 0.19844,-0.024805 0.14883,0.024805 0.24805,-0.049609 0.0992,-0.074414 0.0992,-0.1736328 0,-0.099219 0.0744,-0.1736328 0.0248,-0.024805 0.14883,0 0.12402,0 0.14882,0 0.17364,0 0.39688,-0.2232419 0.22324,-0.248047 0.37207,-0.322461 0.17363,-0.09922 0.34727,-0.124024 0.17363,-0.04961 0.37207,-0.148828 0.27285,-0.148828 0.52089,-0.223242 0.27286,-0.09922 0.54571,-0.223242 0.14883,-0.04961 0.27285,-0.173633 0.12402,-0.124023 0.24805,-0.173633 0.22324,-0.07441 0.47129,-0.09922 0.27285,-0.04961 0.49609,-0.07441 0.24805,-0.04961 0.47129,-0.09922 0.24804,-0.07441 0.44648,-0.248047 h 0.19844 q 0.44648,0 0.86816,-0.124024 0.42168,-0.124023 0.86817,-0.124023 0.12402,0 0.37207,0.04961 0.19844,-0.124023 0.44648,-0.124023 0.42168,0 0.84336,0.223242 0.42168,0.198438 0.86817,0.198438 0.0744,0 0.14882,0 0.0992,0 0.19844,-0.02481 0.27285,0.272851 0.64492,0.297656 0.39688,0.02481 0.66973,0.223242 0.17363,0.148828 0.27285,0.347266 0.12402,0.198437 0.19844,0.42168 0.0744,0.223242 0.14883,0.446484 0.0744,0.2232421 0.19843,0.3968749 -0.12402,0.8929688 -0.74414,1.4386719 -0.59531,0.5208984 -1.51308,0.5208984 -0.34727,0 -0.59531,-0.074414 -0.22325,-0.099219 -0.42168,-0.1984375 -0.17364,-0.099219 -0.37207,-0.1984375 -0.19844,-0.099219 -0.44649,-0.1488281 0.27285,-0.4960938 0.34727,-1.0666016 -0.27285,-0.1240234 -0.54571,-0.1736328 -0.27285,-0.049609 -0.52089,-0.1736328 -0.66973,0.1736328 -1.31465,0.2480469 -0.62012,0.049609 -1.16582,0.5208984 -0.12403,-0.024805 -0.27285,-0.049609 -0.12403,-0.024805 -0.24805,-0.024805 -0.14883,0 -0.59531,0.2232422 -0.44649,0.1984375 -0.96739,0.4712891 -0.49609,0.2728515 -0.96738,0.5457031 -0.44648,0.2728515 -0.62012,0.3720703 -0.19843,0.1240234 -0.34726,0.2976562 -0.14883,0.1736328 -0.29766,0.3720703 -0.14883,0.1736329 -0.29766,0.3472657 -0.14882,0.1488281 -0.37207,0.2232421 -0.0496,0.2728516 -0.17363,0.4712891 -0.12402,0.1984375 -0.27285,0.4216797 -0.0248,0.4464844 -0.0992,0.8929687 -0.0496,0.4464844 -0.0496,0.8929688 0,0.1736328 0,0.3224609 0,0.1488281 0.0496,0.2728515 0.24805,0.322461 0.39688,0.719336 0.17363,0.396875 0.5705,0.5457031 0.0248,0.099219 -0.0248,0.1240234 -0.0248,0.024805 -0.0496,0.1240235 0.14883,0.2728515 0.37207,0.4464843 0.24805,0.14882815 0.49609,0.32246096 0.24805,0.14882813 0.47129,0.32246094 0.22325,0.17363281 0.34727,0.44648436 0.37207,0 0.69453,0.12402344 0.34727,0.12402344 0.64492,0.27285156 0.32246,0.14882812 0.59531,0.27285156 0.29766,0.12402343 0.59532,0.12402343 0.27285,0 0.49609,-0.0744141 0.64492,0.1984375 1.28984,0.29765621 0.66973,0.074414 1.33946,0.074414 0.81855,0 1.63711,-0.099219 0.81855,-0.0992187 1.63711,-0.17363276 0.29765,-0.0496094 0.5705,-0.0496094 0.27286,0 0.54571,-0.0496094 0.34726,-0.0496094 0.64492,-0.32246093 0.32246,-0.27285156 0.62012,-0.396875 0.27285,0.17363281 0.64492,0.17363281 0.42168,0 0.81855,-0.12402343 0.39688,-0.14882812 0.81856,-0.14882812 z" />
      <path
         id="path1057"
         style="fill:#293c85;fill-opacity:1;stroke-width:0.26458332"
         d="m -246.59168,3.1813893 q 0,0.1984375 -0.17364,0.3224609 -0.17363,0.1240234 -0.39687,0.2480469 -0.22324,0.099219 -0.44649,0.2232421 -0.22324,0.099219 -0.29765,0.2728516 -0.27285,-0.074414 -0.54571,-0.099219 -0.24804,-0.024805 -0.49609,-0.024805 -0.32246,0 -0.66973,0.074414 -0.34726,0.049609 -0.5457,0.322461 -0.12402,-0.049609 -0.22324,-0.049609 -0.0744,0 -0.19844,0 -0.37207,0 -0.76894,0.049609 -0.37207,0.074414 -0.74414,0.074414 -0.19844,0 -0.39688,-0.024805 -0.17363,-0.024805 -0.32246,-0.1488281 -0.22324,0.074414 -0.47129,0.074414 -0.32246,0 -0.62012,-0.099219 -0.29765,-0.099219 -0.59531,-0.2232422 -0.27285,-0.1488281 -0.57051,-0.2728515 -0.29765,-0.1240235 -0.59531,-0.1984375 l -0.17363,-0.3472656 q -0.39688,-0.074414 -0.74414,-0.2232422 -0.32246,-0.1736328 -0.64493,-0.3720703 -0.32246,-0.1984375 -0.64492,-0.3720703 -0.29765,-0.1984375 -0.62011,-0.2728516 -0.12403,-0.099219 -0.22325,-0.1736328 -0.0992,-0.099219 -0.14882,-0.2728516 -0.32247,-0.074414 -0.59532,-0.1984375 -0.24804,-0.1488281 -0.5209,-0.2728515 -0.24804,-0.1488281 -0.5705,-0.24804689 -0.29766,-0.12402343 -0.71934,-0.14882812 -0.14883,-0.22324218 -0.42168,-0.42167968 -0.27285,-0.1984375 -0.5457,-0.1984375 -0.17363,0 -0.27285,0.0744141 v 0.12402344 q 0,0.29765625 0.17363,0.59531249 0.17363,0.2976562 0.44648,0.4216797 -0.0248,0.049609 -0.0248,0.1488281 0,0.1488281 0.0496,0.2976563 0.0744,0.1488281 0.24805,0.1984374 -0.0992,0.2728516 -0.24805,0.5705079 -0.14883,0.2728515 -0.37207,0.5208984 -0.22324,0.2480469 -0.4961,0.4216797 -0.24804,0.1488281 -0.5705,0.1488281 -0.0992,0.049609 -0.14883,0.1488281 -0.0248,0.099219 -0.0496,0.2232422 0,0.099219 -0.0496,0.1984375 -0.0248,0.099219 -0.0992,0.1488281 -0.0992,0.024805 -0.27285,0.024805 -0.24805,0 -0.42168,-0.074414 -0.17363,-0.074414 -0.37207,-0.1984375 V 4.074358 q 0,-0.2976563 -0.12402,-0.4712891 -0.0992,-0.1736328 -0.24805,-0.3224609 -0.12402,-0.1736328 -0.24805,-0.3472656 -0.0992,-0.1736328 -0.0992,-0.4712891 -0.0744,0.049609 -0.17363,0.074414 -0.0744,0.024805 -0.0992,0.099219 -0.0496,-0.2480468 -0.0496,-0.4216796 0,-0.4960938 0.14883,-0.9425782 0.17363,-0.44648432 0.17363,-0.94257806 v -0.37207031 q 0,-0.57050781 -0.0248,-1.11621093 -0.0248,-0.5457031 -0.0248,-1.0914062 0,-0.4712891 0.0248,-0.9177734 0.0248,-0.4712891 0.0992,-0.9425782 0.27285,-1.6371093 0.44648,-3.249414 0.19844,-1.6371093 0.62012,-3.2494142 -0.0248,-0.124023 -0.0744,-0.248047 -0.0248,-0.124023 -0.0248,-0.248047 0,-0.09922 0.0248,-0.124023 0.0992,-0.496094 0.44648,-0.818555 0.34727,-0.347265 0.89297,-0.347265 h 0.0744 q 0.29766,0.124023 0.44649,0.37207 0.17363,0.223242 0.5209,0.173633 0,0.04961 -0.0248,0.09922 0,0.04961 0,0.09922 0,0.272852 0.14883,0.396875 0.14883,0.124024 0.34726,0.272852 -0.12402,0.248047 -0.17363,0.570508 -0.0248,0.322461 -0.0496,0.6449216 -0.0248,0.3224609 -0.0992,0.6201172 -0.0496,0.2976562 -0.22324,0.4960937 0.0992,0.2480469 0.12402,0.4960937 0.0248,0.2480469 0.0248,0.5208985 0,0.2728515 -0.0248,0.5705078 -0.0248,0.2728515 -0.0248,0.5705078 0,0.2728515 0.0744,0.4960937 0.54571,0 0.62012,-0.5208984 0.64492,-0.1736328 1.14102,-0.4712891 0.52089,-0.3224609 0.99218,-0.6697265 0.47129,-0.3472656 0.91778,-0.7193359 0.47129,-0.3720704 1.04179,-0.6449219 v -0.049609 q 0,-0.1240234 0.0744,-0.1488281 0.0744,-0.049609 0.0248,-0.2232422 0.37207,-0.1240234 0.62012,-0.3224609 0.27285,-0.2232422 0.49609,-0.4712886 0.24805,-0.272852 0.47129,-0.520899 0.24805,-0.272851 0.54571,-0.471289 0.19843,-0.42168 0.34726,-0.892969 0.17363,-0.471289 0.44649,-0.868164 0.47129,0 1.01699,0.07441 0.57051,0.07441 0.96738,0.347266 -0.0496,0.198437 0.17363,0.272851 -0.27285,1.041797 -0.81855,1.885157 -0.5457,0.8185544 -1.41387,1.3890622 -0.12402,0.2728515 -0.32246,0.471289 -0.19844,0.1984375 -0.39687,0.396875 -0.19844,0.1736328 -0.39688,0.3720703 -0.19844,0.1984375 -0.32246,0.4712891 -0.29766,0.049609 -0.5209,0.1736328 -0.19844,0.1240234 -0.39687,0.2976563 -0.17364,0.1488281 -0.39688,0.2976562 -0.19844,0.1240234 -0.44648,0.1984375 -0.19844,0.2480469 -0.47129,0.4216797 -0.24805,0.1736328 -0.5209,0.3472656 -0.24805,0.1488281 -0.47129,0.3472656 -0.22324,0.1736328 -0.32246,0.4712891 h -0.64492 q -0.27285,0.471289 -0.71934,0.79375 -0.42168,0.2976562 -0.86816,0.5705078 0.0744,0.2976562 0.27285,0.4960937 0.19844,0.1736328 0.42168,0.3224609 0.24805,0.1488282 0.47129,0.322461 0.24805,0.1488281 0.42168,0.3720703 1.04179,0.396875 2.00918,0.91777341 0.96738,0.49609374 1.83554,1.21542966 0.0496,-0.0248047 0.12403,-0.0248047 0.19844,0 0.32246,0.12402343 0.12402,0.0992188 0.34726,0.0744141 0.0992,0.24804688 0.27286,0.34726562 0.17363,0.0744141 0.34726,0.12402344 0.19844,0.0496094 0.37207,0.14882816 0.17363,0.099219 0.24805,0.3472656 0.37207,0.024805 0.66973,0.1488281 0.32246,0.1240234 0.5705,0.396875 h 0.29766 q 0.79375,0 1.53789,0.1488281 0.74414,0.1488281 1.51309,0.1488281 0.39687,0 0.76894,-0.049609 0.37207,-0.074414 0.71934,-0.2480469 0.12402,0.074414 0.27285,0.1488281 0.14883,0.074414 0.32246,0.074414 0.12402,0 0.37207,-0.049609 0.0248,0.2728516 0.17363,0.5208984 0.17364,0.2480469 0.17364,0.5457032 z" />
      <path
         id="path1059"
         style="fill:#293c85;fill-opacity:1;stroke-width:0.26458332"
         d="m -237.21551,1.3210377 q 0,0.4216797 -0.22324,0.7441406 -0.19844,0.2976563 -0.14883,0.7441406 -0.34727,0.1984375 -0.57051,0.5208985 -0.22324,0.3224609 -0.42168,0.6697265 -1.63711,1.0666016 -3.52227,1.7115234 -1.86035,0.6697266 -3.84472,0.6697266 -0.12403,0 -0.22324,-0.1240234 -0.0992,-0.099219 -0.19844,-0.2232422 -0.0992,-0.1240235 -0.22324,-0.2480469 -0.0992,-0.099219 -0.24805,-0.099219 -0.17363,0 -0.27285,0.074414 0,-0.049609 0,-0.099219 0.0248,-0.024805 0.0248,-0.074414 0,-0.2976562 -0.0744,-0.6201172 -0.0744,-0.2976562 -0.0744,-0.5953125 0,-0.3472656 0.12403,-0.5705078 h 0.29765 q 0.24805,0 0.47129,-0.024805 0.24805,-0.049609 0.5209,-0.049609 0.27285,0 0.4961,0.1488281 1.36425,-0.049609 2.57968,-0.4960937 1.24024,-0.4712891 2.50528,-0.9177735 0.19843,-0.2728515 0.22324,-0.5953125 0.0496,-0.3472656 0.19844,-0.6449218 -0.64493,-0.54570314 -1.31465,-0.84335939 -0.64492,-0.32246093 -1.51309,-0.22324218 -0.5209,-0.32246094 -1.11621,-0.37207031 -0.57051,-0.0496094 -1.16582,-0.14882812 -0.14883,-0.0248047 -0.32246,-0.0496094 -0.14883,-0.0496094 -0.32246,-0.0496094 -0.12403,0 -0.24805,0.0744141 -0.0992,0.0496094 -0.0496,0.17363281 -0.12402,-0.1984375 -0.34726,-0.22324219 -0.19844,-0.0496094 -0.34727,-0.19843749 -0.79375,-0.0496094 -1.38906,-0.27285156 -0.59531,-0.24804688 -1.31465,-0.54570308 -0.19844,-0.074414 -0.39688,-0.099219 -0.17363,-0.049609 -0.34726,-0.1488281 -0.44649,-0.2232422 -0.71934,-0.5953125 -0.27285,-0.3720703 -0.42168,-0.8185547 -0.17363,-0.471289 -0.24804,-0.9673828 -0.0744,-0.4960937 -0.14883,-0.9177734 0.22324,-0.396875 0.42168,-0.8185547 0.17363,-0.4216797 0.29765,-0.8929687 0.14883,-0.074414 0.29766,-0.1240234 0.14883,-0.049609 0.32246,-0.1240235 -0.0248,-0.049609 -0.0248,-0.1240234 0,-0.1240235 0.0744,-0.2480469 0.0992,-0.1240234 0.0496,-0.2480469 0.5457,-0.4960937 1.0418,-1.0169921 0.5209,-0.5457031 0.89297,-1.190625 0.37207,-0.1240234 0.59531,-0.3720699 0.22324,-0.248047 0.44648,-0.496094 0.22325,-0.272852 0.4961,-0.471289 0.27285,-0.223242 0.69453,-0.272852 0.0992,-0.173633 0.27285,-0.272851 0.17363,-0.124024 0.34727,-0.223243 0.17363,-0.09922 0.32246,-0.223242 0.14882,-0.124023 0.22324,-0.347265 0.39687,0 0.71933,-0.148828 0.34727,-0.148829 0.66973,-0.322461 0.32246,-0.173633 0.64492,-0.322461 0.34727,-0.148828 0.74414,-0.148828 0.0992,0 0.19844,0.0248 0.0992,0 0.22324,0.02481 0.17364,0.173633 0.22324,0.42168 0.0744,0.223242 0.0992,0.496093 0.0248,0.272852 0.0248,0.545703 0.0248,0.272852 0.0992,0.496094 -0.22325,0.42168 -0.4961,0.84336 -0.24804,0.421679 -0.66972,0.6449215 h -0.0496 q -0.17364,0.024805 -0.32246,-0.074414 -0.14883,-0.099218 -0.34727,-0.099218 -0.12402,0 -0.19844,0.07441 -0.0496,0.049609 -0.12402,0.1240231 -0.0496,0.049609 -0.14883,0.099219 -0.0744,0.049609 -0.22324,0 -0.34727,0.1240234 -0.27285,0.4216797 -0.47129,0.049609 -0.79375,0.2976562 -0.32246,0.2232422 -0.59531,0.5208984 -0.27286,0.2728516 -0.54571,0.5208985 -0.27285,0.2232422 -0.64492,0.2480468 -0.42168,0.7441407 -1.0418,1.3146485 -0.59531,0.5705078 -0.99218,1.2898437 0.0744,0.1984375 0.0992,0.4216797 0.0248,0.2232422 0.0744,0.471289 0.22324,0.2976563 0.5209,0.5208985 0.32246,0.2232421 0.62011,0.4464843 h 0.0744 q 0.49609,0 0.91777,0.1984375 0.42168,0.1736328 0.89297,0.1736328 0.24805,0 0.42168,-0.099219 0.64492,0.1488281 1.26504,0.2480469 0.64492,0.099219 1.28984,0.1488281 0.32246,0.049609 0.64493,0.049609 0.34726,0 0.64492,0.074414 0.27285,0.074414 0.5457,0.1984375 0.27285,0.099219 0.5457,0.2232422 0.57051,0.2480469 1.0666,0.5457031 0.5209,0.2976563 0.91778,0.71933594 0.39687,0.39687499 0.62012,0.94257811 0.22324,0.52089843 0.22324,1.21542965 z" />
    </g>
    <rect
       y="13.432813"
       x="-396.33759"
       height="3.0238094"
       width="159.494"
       id="rect884"
       style="opacity:1;fill:#293c85;fill-opacity:1;stroke:none;stroke-width:0.17439616;stroke-miterlimit:4;stroke-dasharray:none;stroke-opacity:0.94471154" />
  </g>
</svg>
