<svg xmlns="http://www.w3.org/2000/svg" viewBox="0 0 922.74 511.42"><defs><style>.cls-1{fill:none;stroke-width:3.46px}.cls-1,.cls-2,.cls-4{stroke:#293c85;stroke-miterlimit:10}.cls-2{font-size:40.46px;fill:#293c85;stroke-width:.75px;font-family:RockSalt-Regular,Rock Salt}.cls-3{letter-spacing:-.02em}.cls-4{fill:#fff;stroke-width:5.99px}</style></defs><title>VH Site Logo</title><g id="Layer_2" data-name="Layer 2"><g id="icons"><path d="M62.17,402.75h10l-29.28,71h-11l-29.28-71H12.65l24.5,61.51h.41Z" class="cls-1"/><path d="M81.58,424.71a47,47,0,0,1,19-3.86q10.11,0,15.5,5.9a20.23,20.23,0,0,1,5.39,14.13v32.84h-8.13l-1.12-6.51h-.31q-7.32,7.53-18.81,7.53a17.34,17.34,0,0,1-11.74-4.17q-4.83-4.17-4.83-11.39a14,14,0,0,1,6-11.69Q88.39,443,99.89,443h12.3v-.81q0-6.7-3.31-9.66t-11.43-3a34.55,34.55,0,0,0-15.26,3.46h-.61ZM112.19,459v-8.54H101.11q-15.36,0-15.36,8.08t10.78,8.08a18.46,18.46,0,0,0,8.64-2.18A24.09,24.09,0,0,0,112.19,459Z" class="cls-1"/><path d="M165.26,420.85q8.44,0,13.32,5.69a21.13,21.13,0,0,1,4.88,14.24v32.94h-9.25V441.79q0-12.41-11.19-12.4-8.84,0-16.67,9.76v34.57H137.1V421.87h8.13l1.12,6.5v1.53h.2Q154.78,420.86,165.26,420.85Z" class="cls-1"/><path d="M203.24,428.17a23.67,23.67,0,0,1,17.23-7.32,22.91,22.91,0,0,1,17.08,7.52h.31V399.5h9.25v74.22H239l-1.11-6.51h-.31a22.89,22.89,0,0,1-17.08,7.53,23.67,23.67,0,0,1-17.23-7.32q-7.38-7.32-7.38-19.63T203.24,428.17Zm18.55,37.92q9.15,0,16.07-7.62V437.12q-6.92-7.64-16.07-7.63-7.53,0-12.1,4.78t-4.57,13.52q0,8.74,4.57,13.53T221.79,466.09Z" class="cls-1"/><path d="M308.93,421.87,277.71,497.1h-9.35l8.74-22.57-21.45-52.66h10l16.27,41h.41l16.67-41Z" class="cls-1"/><path d="M367,402.75h9.25v71H367V442.61H328.45v31.11h-9.26v-71h9.26V434H367Z" class="cls-1"/><path d="M395,424.71a47,47,0,0,1,19-3.86q10.13,0,15.51,5.9a20.23,20.23,0,0,1,5.39,14.13v32.84h-8.14l-1.11-6.51h-.31q-7.32,7.53-18.81,7.53a17.34,17.34,0,0,1-11.74-4.17Q390,466.4,390,459.18a14,14,0,0,1,6-11.69q5.94-4.47,17.43-4.48h12.31v-.81q0-6.7-3.31-9.66t-11.44-3a34.53,34.53,0,0,0-15.25,3.46H395ZM425.65,459v-8.54H414.56q-15.35,0-15.35,8.08T410,466.6a18.46,18.46,0,0,0,8.64-2.18A24.09,24.09,0,0,0,425.65,459Z" class="cls-1"/><path d="M491.53,434.58a28.59,28.59,0,0,0-16.32-5.09q-8.79,0-13.78,5t-5,13.27q0,8.23,5,13.27t13.78,5A28.58,28.58,0,0,0,491.53,461h.41v8.74a34.06,34.06,0,0,1-17.59,5,27.32,27.32,0,0,1-19.22-7.32q-7.94-7.32-7.93-19.63t7.93-19.62a27.32,27.32,0,0,1,19.22-7.32,34.14,34.14,0,0,1,17.59,5v8.75Z" class="cls-1"/><path d="M528.44,442.71l23.38,31H540.43l-18.3-24.5h-.3l-7.53,7.52v17h-9.25V399.5h9.25V445h.31l22.47-23.08h12.4Z" class="cls-1"/><path d="M579.37,429.29c-4.33,0-7.54.64-9.6,1.91s-3.11,2.87-3.11,4.8,1.08,3.41,3.22,4.45a41.35,41.35,0,0,0,7.69,2.74l9,2.37a14.84,14.84,0,0,1,7.61,4.74q3.07,3.56,3.08,9.72a13.1,13.1,0,0,1-5.14,10.45q-5.13,4.26-15.25,4.27a37.73,37.73,0,0,1-18.45-4.58v-8.84h.51A34.87,34.87,0,0,0,577,466.2q11.28,0,11.28-7.27,0-2.34-3.14-3.83a45.44,45.44,0,0,0-7.57-2.67l-9-2.41a16,16,0,0,1-7.68-4.57,12,12,0,0,1-3.15-8.54A14.68,14.68,0,0,1,563,425.32q5.14-4.47,14-4.47a46.64,46.64,0,0,1,16.47,2.85v8.43h-.71A34.52,34.52,0,0,0,579.37,429.29Z" class="cls-1"/><path d="M687.86,402.75h10l-29.28,71h-11l-29.28-71h10.06l24.51,61.51h.4Z" class="cls-1"/><path d="M717.44,402.75v71h-9.25v-71Z" class="cls-1"/><text class="cls-2" transform="translate(763.81 431.4) scale(0.98 1)"><tspan class="cls-3">ar</tspan><tspan x="66.82" y="0">t</tspan><tspan x="0" y="48.55">edition</tspan></text></g><g id="vh_top" data-name="vh top"><path d="M539.06,3h-18a7.16,7.16,0,0,0-6.21,4.73L439.15,231.05l-76-223.3A7.18,7.18,0,0,0,356.9,3h-18a3.07,3.07,0,0,0-3.31,2.88,3.54,3.54,0,0,0,.3,1.85l88.87,261.16a6.62,6.62,0,0,0,.91,1.7l-9.58,28.26L317.43,7.76A7.15,7.15,0,0,0,311.21,3h-18a3.07,3.07,0,0,0-3.31,2.9,3.43,3.43,0,0,0,.3,1.82L401.48,335.83a7,7,0,0,0,1.87,2.8,3,3,0,0,0,3.16,2.27h18a5.48,5.48,0,0,0,2.06-.44,3,3,0,0,0,1.59-.9,7.31,7.31,0,0,0,2.57-3.4L542.07,7.75a3.43,3.43,0,0,0-1.33-4.4A2.77,2.77,0,0,0,539.06,3Z" class="cls-4"/><path d="M631.73,3h-18a7.15,7.15,0,0,0-6.21,4.73L496.18,336.25a3.41,3.41,0,0,0,1.34,4.4,2.77,2.77,0,0,0,1.67.32h18a7.15,7.15,0,0,0,6.21-4.72L634.73,7.75a3.43,3.43,0,0,0-1.33-4.4A2.79,2.79,0,0,0,631.73,3Z" class="cls-4"/><path d="M520.6,193.09h-18a7.18,7.18,0,0,0-6.22,4.73L449.49,336.25a3.41,3.41,0,0,0,1.31,4.39,2.79,2.79,0,0,0,1.67.33h18a7.17,7.17,0,0,0,6.14-4.61l47-138.58a3.42,3.42,0,0,0-1.37-4.38A2.83,2.83,0,0,0,520.6,193.09Z" class="cls-4"/><path d="M509.62,172h18a7.17,7.17,0,0,0,6.22-4.73L588,7.63c.75-2.21-.11-4-2-4.57a2.81,2.81,0,0,0-.41,0H566.51a4.82,4.82,0,0,0-1.46.26,7.65,7.65,0,0,0-3.22,2.43,5.64,5.64,0,0,0-.76,1.46L506.4,168.44A3,3,0,0,0,509.62,172Z" class="cls-4"/></g></g></svg>