<svg xmlns="http://www.w3.org/2000/svg" xmlns:svg="http://www.w3.org/2000/svg" id="svg8" width="642.471" height="137.08" version="1.1" viewBox="0 0 169.987 36.269"><metadata id="metadata5"/><g id="layer1" transform="translate(396.33759,19.812556)"><g id="text840" fill="#000" fill-opacity="1" stroke="none" stroke-width=".265" aria-label="Workshops" font-family="Rock Salt" font-size="25.4" font-stretch="normal" font-style="normal" font-variant="normal" font-weight="normal" letter-spacing="0" text-anchor="start" word-spacing="0" writing-mode="lr-tb" style="line-height:1.25;-inkscape-font-specification:'Rock Salt, Normal';font-variant-ligatures:normal;font-variant-caps:normal;font-variant-numeric:normal;font-feature-settings:normal;text-align:start"><path id="path968" fill="#293c85" fill-opacity="1" stroke-width=".265" d="m -368.03544,-17.158454 q -0.0496,0.124023 -0.19843,0.446484 -0.14883,0.322461 -0.14883,0.42168 0,0.198437 -0.0248,0.520898 0,0.297657 0.19844,0.372071 -0.27285,0.570507 -0.34727,1.16582 -0.0496,0.570508 -0.0496,1.190625 0,0.595312 -0.0248,1.21543 -0.0248,0.595312 -0.19844,1.16582 0.0992,0.148828 0.0496,0.37207 -0.0248,0.198438 0.12403,0.3224611 -0.12403,0.1984375 -0.14883,0.396875 -0.0248,0.1736328 -0.0248,0.3720703 0,0.396875 0.0744,0.7689453 -0.27285,0.396875 -0.27285,0.8929687 0.0248,0.4712891 0.0248,0.9673828 0,0.4216797 -0.12402,0.8185547 -0.0992,0.396875 -0.0992,0.8185547 0,0.1240234 0.0248,0.2232421 0.0248,0.099219 0.0248,0.2232422 0,0.1240235 -0.0992,0.1736328 -0.0744,0.024805 -0.0744,0.2232422 0,0.9177735 -0.12402,1.7859375 -0.12402,0.8433594 -0.32246,1.68671872 -0.17363,0.81855468 -0.39688,1.66191408 -0.22324,0.8433593 -0.39687,1.7115234 -0.27285,0.2976562 -0.42168,0.6697265 -0.12402,0.3720703 -0.47129,0.5953125 -0.32246,0.8185547 -0.81855,1.4882812 -0.47129,0.6697266 -1.06661,1.2650391 -0.5705,0.5953125 -1.19062,1.1410156 -0.62012,0.5705078 -1.21543,1.1658203 -0.24805,0 -0.49609,0 -0.22325,0.024805 -0.47129,0.024805 -0.54571,0 -1.09141,-0.049609 -0.5457,-0.049609 -1.0418,-0.1736328 -0.0992,-0.3472656 -0.39687,-0.4712891 -0.27285,-0.099219 -0.49609,-0.3224609 -0.24805,-0.2232422 -0.37207,-0.4960937 -0.12403,-0.2728516 -0.5209,-0.3720703 -0.12403,-0.3720703 -0.39688,-0.8681641 -0.24805,-0.4960937 -0.49609,-1.0169922 -0.24805,-0.5208984 -0.44649,-0.9921874 -0.17363,-0.4960938 -0.17363,-0.8433594 0,-0.1240234 0.0248,-0.2232422 0.0496,-0.1240234 0.0744,-0.2480469 -0.14883,-0.1736328 -0.19844,-0.4464843 -0.0496,-0.2728516 -0.0744,-0.5457032 0,-0.2976562 -0.0496,-0.5457031 -0.0496,-0.2728515 -0.22324,-0.4216797 -0.29766,0.1984375 -0.47129,0.4960938 -0.17364,0.2976562 -0.32246,0.6449219 -0.12403,0.3472656 -0.24805,0.6945312 -0.12402,0.3472656 -0.29766,0.6449219 -0.34726,0.2728515 -0.62011,0.6201171 -0.24805,0.3472657 -0.5209,0.6945313 -0.24805,0.3720703 -0.54571,0.6697265 -0.29765,0.322461 -0.69453,0.5208985 -0.0992,0.4464843 -0.37207,0.7441406 -0.24804,0.3224609 -0.5457,0.5705078 -0.29766,0.2728515 -0.57051,0.5457031 -0.27285,0.2976562 -0.39687,0.7193359 -0.42168,0.1984375 -0.94258,0.5705078 -0.5209,0.396875 -1.0666,0.7937498 -0.5209,0.396875 -1.0666,0.669727 -0.5209,0.297656 -0.91778,0.297656 -0.32246,0 -0.62011,-0.07441 -0.27286,-0.04961 -0.57051,-0.124023 -0.29766,-0.07441 -0.59531,-0.148829 -0.29766,-0.04961 -0.62012,-0.0248 -0.47129,-0.496094 -0.71934,-1.1410159 -0.24804,-0.6201172 -0.62012,-1.1658203 -0.12402,-0.7441406 -0.24804,-1.5130859 -0.12403,-0.7441406 -0.12403,-1.4882812 0,-0.4216797 0.0992,-0.79375 0.0992,-0.3472656 0.0992,-0.719336 0,-0.1240234 -0.0496,-0.2232421 -0.0248,-0.1240235 -0.0496,-0.2480469 0.17364,-0.3472656 0.27285,-0.7193359 0.0992,-0.396875 0.14883,-0.79375 0.0744,-0.396875 0.14883,-0.7689453 0.0744,-0.39687502 0.22324,-0.74414064 0.0496,-0.29765624 -0.17363,-0.44648437 0.17363,-0.17363281 0.22324,-0.3720703 0.0496,-0.1984375 0.0496,-0.396875 0.0248,-0.19843749 0.0248,-0.42167969 0,-0.2232422 0.0496,-0.4216797 0.0248,-0.099219 0.12402,-0.2976562 0.12402,-0.2232422 0.22324,-0.4216797 0.12403,-0.2232422 0.19844,-0.396875 0.0992,-0.1984375 0.0992,-0.2976562 0,-0.1736328 -0.0992,-0.3720703 0.0992,-0.4960938 0.32246,-0.9673828 0.24805,-0.4712891 0.37207,-0.9673828 0.12402,-0.4960938 0.14883,-0.8681641 0.0248,-0.396875 0.22324,-0.9177734 0.0248,-0.049609 0.0248,-0.1240234 0,-0.099219 -0.0744,-0.1240235 -0.0744,-0.024805 -0.12402,-0.099219 0.29765,-0.5705078 0.44648,-1.2154297 0.17364,-0.6697266 0.27285,-1.364258 0.12403,-0.694531 0.22325,-1.364258 0.0992,-0.694531 0.29765,-1.314648 -0.0744,-0.496094 -0.12402,-1.016992 -0.0496,-0.545703 -0.0496,-1.041797 0,-0.570508 0.0992,-1.16582 0.12402,-0.595313 0.5209,-1.041797 0.19843,0 0.42168,-0.02481 0.24804,-0.02481 0.44648,-0.02481 0.29766,0 0.64492,0.148829 0.17364,0.79375 0.44649,1.562695 0.27285,0.768945 0.27285,1.637109 0,0.42168 -0.0992,0.84336 -0.0744,0.396875 -0.17363,0.818554 -0.0744,0.396875 -0.12403,0.818555 -0.0496,0.396875 0.0248,0.79375 -0.27285,0.37207 -0.32246,0.8681639 -0.0248,0.4712891 -0.0248,0.8929688 -0.24804,0.3472656 -0.37207,0.6945312 -0.12402,0.3472656 -0.19844,0.719336 -0.0496,0.3472656 -0.0992,0.7193359 -0.0496,0.3720703 -0.12403,0.7441406 -0.0496,0.1240234 -0.17363,0.2976562 -0.0992,0.1736328 -0.0992,0.2480469 0,0.1736328 0.0992,0.3472656 -0.0496,0.074414 -0.0992,0.1240235 -0.0496,0.024805 -0.0744,0.1240234 -0.0744,0.2728516 -0.12403,0.5953125 -0.0248,0.2976562 -0.0992,0.5705078 -0.12402,0.6201172 -0.34726,1.2154297 -0.19844,0.5953125 -0.42168,1.1906249 0,0.49609379 -0.0496,0.79375003 -0.0248,0.29765625 -0.0992,0.54570312 -0.0496,0.22324219 -0.14883,0.49609374 -0.0744,0.24804688 -0.14882,0.64492191 -0.0744,0.3720703 -0.14883,0.9177734 -0.0496,0.5457031 -0.12403,1.1410156 -0.0496,0.5705078 -0.0744,1.1410156 -0.0248,0.5457031 -0.0248,0.9425781 0,0.7193359 0.12403,1.3890625 0.14883,0.6945312 0.49609,1.3146484 h 0.42168 q 0.14883,0 0.32246,0 0.17364,0.024805 0.32246,0.099219 0.17364,-0.049609 0.17364,-0.1488282 0,-0.074414 0,-0.1984375 0,-0.074414 0.12402,-0.1984375 l 0.17363,0.024805 q 0.24805,0 0.44649,-0.074414 0.22324,-0.074414 0.44648,-0.1984375 0.47129,-0.6449219 1.09141,-1.0914063 0.64492,-0.4464843 1.14101,-1.0417968 0.12403,-0.1984375 0.0744,-0.4712891 0.29765,-0.049609 0.44648,-0.2232422 0.17363,-0.1736328 0.32246,-0.3720703 0.14883,-0.1984375 0.29766,-0.3720703 0.17363,-0.1984375 0.44648,-0.2728515 0.12403,-0.2232422 0.22325,-0.4712891 0.0992,-0.2728516 0.19843,-0.5208984 0.12403,-0.2480469 0.27285,-0.4464844 0.17364,-0.2232422 0.44649,-0.3472656 0.42168,-0.94257812 0.71933,-1.93476561 0.29766,-1.01699219 0.89297,-1.86035149 0,-0.322461 0.0248,-0.5953125 0.0248,-0.2728516 -0.0248,-0.5705078 0.62012,-0.8433594 0.79375,-1.7611328 0.17364,-0.9177734 0.17364,-1.9347656 0,-0.8433594 0.5457,-1.1658203 0.57051,-0.3224609 1.33945,-0.3224609 0.12403,0 0.24805,0 0.14883,0 0.27285,0.024805 0.0496,0.1736329 0.17363,0.2728516 0.14883,0.074414 0.29766,0.1736328 v 0.1488281 q 0,0.3472657 -0.0992,0.6449219 -0.0744,0.2728516 -0.0744,0.5953125 0,0.1488281 0.0496,0.396875 0.24804,0.7193359 0.37207,1.3146484 0.14882,0.5953125 0.14882,1.3890625 0,0.6697265 -0.0744,1.3642578 -0.0496,0.6697265 -0.14883,1.33945308 0.14883,0.27285155 0.14883,0.5705078 0,0.1984375 -0.0496,0.42167968 -0.0248,0.1984375 -0.0248,0.396875 0,0.42167964 0.12402,0.84335934 0.14883,0.396875 0.29766,0.79375 0.17363,0.396875 0.29765,0.79375 0.12403,0.396875 0.0992,0.79375 0.42168,0.5208984 0.74414,1.0666015 0.34727,0.5705078 0.84336,0.9921875 0.19844,0.049609 0.32246,0.049609 0.14883,0 0.24805,-0.049609 0.0992,-0.024805 0.17363,-0.074414 0.0992,-0.024805 0.19844,-0.049609 0.0992,0 0.29766,0.024805 0.44648,-0.322461 0.81855,-0.7441406 0.37207,-0.396875 0.69453,-0.8185547 0.34727,-0.4216797 0.69453,-0.8681641 0.34727,-0.4464843 0.71934,-0.8433593 0.71933,-1.78593751 1.16582,-3.57187498 0.44648,-1.78593752 0.5457,-3.72070312 0,-0.2728515 0.12403,-0.2728515 0.12402,0 0.22324,-0.1736328 v -0.6945313 q 0,-0.7937499 0.0744,-1.5874999 0.0992,-0.79375 0.37207,-1.5626953 -0.0744,-0.2976563 -0.0744,-0.5953125 0,-0.6449214 0.0992,-1.2402344 0.12402,-0.620117 0.12402,-1.240234 0,-0.322461 -0.0744,-0.644922 -0.0496,-0.347266 -0.24805,-0.620117 l -0.0248,-0.148828 q 0,-0.148829 0.0992,-0.248047 0.12403,-0.09922 0.17364,-0.223243 -0.12403,-0.32246 -0.0992,-0.669726 0.0496,-0.347266 0.0496,-0.694531 0,-0.198438 -0.0496,-0.42168 -0.0496,-0.223242 -0.24805,-0.347266 0.22324,-0.248047 0.32246,-0.644922 0.0992,-0.396875 0.12403,-0.843359 0.0496,-0.446484 0.0496,-0.868164 0,-0.446484 0.0496,-0.744141 0.22325,-0.248046 0.4961,-0.421679 0.29765,-0.198438 0.64492,-0.198438 0.44648,0 0.64492,0.322461 0.19844,0.297656 0.29766,0.744141 0.0992,0.42168 0.14883,0.868164 0.0744,0.446484 0.24804,0.719336 z"/><path id="path970" fill="#293c85" fill-opacity="1" stroke-width=".265" d="m -350.99462,-9.9154855 q -0.14883,0.2232421 -0.17363,0.4960937 -0.0248,0.2728516 -0.0248,0.4960937 0,0.2976563 0,0.5953125 0.0248,0.2728516 0.0248,0.5457031 v 0.3720704 q -0.0496,0.1736328 -0.14883,0.3472656 -0.0992,0.1736328 -0.14883,0.3472656 -0.34726,0.9177734 -0.34726,1.8355468 v 0.049609 q -0.12403,0.2976563 -0.24805,0.5457031 -0.0992,0.2480469 -0.19844,0.4960938 -0.0992,0.2232422 -0.14883,0.4960937 -0.0496,0.2480469 -0.0248,0.5953125 -0.34727,0.8681641 -0.91777,1.5875 -0.57051,0.69453122 -1.11621,1.43867184 -0.5209,0.19843749 -0.96739,0.52089843 -0.42168,0.32246093 -0.81855,0.71933593 -0.76895,0.2480469 -1.51309,0.5705078 -0.74414,0.3224609 -1.33945,0.868164 -0.47129,0.049609 -0.94258,0.1488282 -0.47129,0.099219 -0.91777,0.2976562 h -0.29766 q -0.22324,0 -0.32246,-0.099219 -0.32246,0.1736328 -0.66973,0.2480468 -0.34726,0.049609 -0.69453,0.049609 -0.44648,0 -0.89297,-0.049609 -0.42168,-0.074414 -0.86816,-0.1488281 -0.24805,-0.3472656 -0.69453,-0.5208984 -0.44649,-0.1984375 -0.79375,-0.3720703 -0.71934,-0.9921875 -1.0418,-1.90996093 -0.32246,-0.94257811 -0.66972,-2.10839837 0.0496,-0.3472657 0.17363,-0.6697266 0.12402,-0.3472656 0.0992,-0.7441406 0.44648,-1.2898437 1.16582,-2.3316406 0.74414,-1.0666015 1.68672,-2.0339843 0,-0.1488282 0.0496,-0.2480469 0.0744,-0.099219 0.0248,-0.2976563 0.0248,0.024805 0.0992,0.024805 0.19844,0 0.24805,-0.099219 0.0496,-0.1240235 0.0248,-0.2728516 0.89297,-0.5705078 1.6123,-1.3146484 0.74415,-0.7441405 1.68672,-1.2402345 0.0744,-0.223242 0.24805,-0.37207 0.17363,-0.148828 0.27285,-0.347266 0.79375,-0.223242 1.43867,-0.669726 0.64493,-0.446485 1.36426,-0.79375 0.39688,-0.223243 0.74414,-0.297657 0.37207,-0.09922 0.79375,-0.198437 0.14883,-0.04961 0.27285,-0.07441 0.12403,-0.0248 0.27286,-0.0248 0.44648,0 0.86816,0.173633 0.42168,0.148828 0.86816,0.148828 0.12403,0 0.19844,0 0.0992,-0.0248 0.19844,-0.04961 0.42168,0.520898 1.0666,0.79375 0.14883,0.37207 0.34727,0.644922 0.22324,0.272851 0.44648,0.545703 0.22324,0.248047 0.39688,0.570508 0.19843,0.297656 0.24804,0.7193355 z m -2.48047,1.2898437 q 0,-0.1240235 -0.0248,-0.2232422 -0.24805,-0.074414 -0.47129,-0.1984375 -0.22324,-0.1240234 -0.49609,-0.1240234 -0.17364,0 -0.34727,0.074414 -0.0248,-0.1736328 -0.14883,-0.2480468 -0.0992,-0.074414 -0.24804,-0.1240235 -0.12403,-0.074414 -0.27286,-0.099219 -0.12402,-0.049609 -0.22324,-0.1488282 -0.0744,-0.1984374 -0.17363,-0.3968749 -0.0744,-0.223242 -0.29766,-0.322461 -0.22324,0.223242 -0.5209,0.37207 -0.29765,0.1240238 -0.62011,0.2480472 -0.29766,0.1240234 -0.59532,0.2976562 -0.27285,0.1736329 -0.47128,0.4216797 h -0.44649 q -0.14883,0.2728516 -0.42168,0.4216797 -0.27285,0.1240234 -0.47129,0.3720703 -0.39687,0.1984375 -0.74414,0.4960938 -0.32246,0.2728515 -0.64492,0.5953124 -0.32246,0.2976563 -0.64492,0.6201172 -0.29766,0.322461 -0.64492,0.5953125 -0.32247,0.6945313 -0.71934,1.2154297 -0.37207,0.4960937 -0.71934,1.0169922 -0.32246,0.5208984 -0.5705,1.1410156 -0.22325,0.5953125 -0.22325,1.4882812 0,0.1240234 0,0.24804687 0,0.12402343 0.0248,0.24804687 0.32246,0.34726562 0.5209,0.74414061 0.22324,0.396875 0.71933,0.57050781 0.4961,0.19843749 1.0418,0.17363281 0.57051,-0.0248047 1.09141,0.12402343 1.19062,-0.22324218 2.28203,-0.71933593 1.11621,-0.52089843 2.1084,-1.24023435 0.14882,-0.12402342 0.34726,-0.24804692 0.19844,-0.1488281 0.32246,-0.2976562 0.12403,-0.1240234 0.19844,-0.2728516 0.0992,-0.1488281 0.19844,-0.2728515 0.19843,-0.3224609 0.44648,-0.6449219 0.24805,-0.3224609 0.5209,-0.5953125 0.12402,-0.5457031 0.32246,-1.0417968 0.19844,-0.5208985 0.39688,-1.0169922 0.19843,-0.4960937 0.32246,-1.0169922 0.14883,-0.5208984 0.14883,-1.0914062 0,-0.1240234 -0.0248,-0.2728516 0,-0.1488281 -0.0248,-0.2728515 0.19843,-0.2728516 0.19843,-0.5953125 z"/><path id="path972" fill="#293c85" fill-opacity="1" stroke-width=".265" d="m -317.5579,0.13041274 q -0.0496,0.37207031 -0.27285,0.5705078 -0.19844,0.1984375 -0.47129,0.37207026 -0.12402,-0.024805 -0.24805,-0.024805 -0.0992,-0.024805 -0.22324,-0.024805 -0.76895,-0.0248047 -1.46348,0.1984375 -0.66972,0.2232422 -1.38906,0.3224609 -0.24805,0.049609 -0.47129,0.049609 -0.19844,-0.024805 -0.42168,0.024805 -0.79375,0.1240234 -1.68672,0.1984375 -0.89297,0.074414 -1.78593,0.1984375 -0.89297,0.099219 -1.76114,0.2728515 -0.84336,0.1488281 -1.5875,0.4464844 -0.0744,-0.049609 -0.14883,-0.099219 -0.0744,-0.074414 -0.17363,-0.074414 -0.24804,0 -0.47129,0.074414 -0.22324,0.074414 -0.44648,0.049609 -0.24805,0.1488281 -0.5457,0.2232422 -0.27286,0.049609 -0.57051,0.099219 -0.27285,0.024805 -0.54571,0.099219 -0.27285,0.074414 -0.52089,0.2728516 -0.19844,-0.099219 -0.4961,-0.099219 -0.27285,-0.024805 -0.37207,-0.1984375 -0.57051,0.2728516 -1.21543,0.3472656 -0.62011,0.074414 -1.26504,0.049609 -0.42168,-0.024805 -0.96738,-0.1240234 -0.5457,-0.099219 -1.09141,-0.2728516 -0.5457,-0.1984375 -1.01699,-0.4464844 -0.47129,-0.2728515 -0.71933,-0.6449218 -0.17364,-0.2480469 -0.24805,-0.5457031 -0.0744,-0.2976563 -0.34727,-0.44648441 0.0744,-0.57050781 0.17364,-1.11621092 0.0992,-0.54570312 0.19843,-1.11621097 0.4961,-0.4216796 0.94258,-0.8929687 0.44649,-0.471289 0.84336,-0.9921875 0.47129,-0.2232422 0.86817,-0.5457031 0.42168,-0.3224609 0.81855,-0.6449219 0.42168,-0.3472656 0.81855,-0.6697265 0.42168,-0.3224609 0.89297,-0.5705078 0.0744,-0.1736328 0.19844,-0.2728516 0.14883,-0.1240234 0.29766,-0.2232422 0.14883,-0.1240234 0.27285,-0.2480468 0.12402,-0.1488282 0.17363,-0.3472656 0.86817,-0.5208985 1.51309,-1.3146485 0.64492,-0.79375 0.84336,-1.7859374 -0.42168,-0.3472653 -0.96739,-0.4464843 -0.52089,-0.124024 -1.0914,-0.173633 -0.4961,-0.02481 -1.0418,0 -0.5209,0.0248 -1.0666,-0.02481 -0.5457,0.173633 -1.14102,0.223243 -0.5705,0.04961 -1.14101,0.09922 -0.57051,0.0248 -1.14102,0.1488285 -0.5457,0.099219 -1.0666,0.3968749 -0.0992,0 -0.19844,-0.024805 -0.0744,-0.024805 -0.17363,-0.024805 -0.79375,-0.024805 -1.48828,0.3224609 -0.69453,0.3224609 -1.36426,0.6449219 -0.0496,0.099219 -0.0496,0.1488281 0,0.1488281 0.0496,0.2976562 0.0744,0.1240235 0.0744,0.2728516 -0.0248,0.024805 -0.0248,0.049609 0,0.024805 -0.0248,0.049609 -0.0248,0.1240235 -0.0744,0.2232422 -0.0248,0.099219 -0.0744,0.2232422 -0.27285,0.79375 -0.29766,1.5626953 -0.0248,0.6449219 0,1.265039 0.0248,0.6201172 0,1.2650391 -0.0496,0.79375 -0.24804,1.4882812 0.12402,0.5953125 0.22324,1.26503906 0.0992,0.64492187 0.24804,1.28984373 0.14883,0.64492191 0.34727,1.26503901 0.22324,0.5953125 0.57051,1.1410156 -0.0248,0.049609 0.0248,0.074414 0.0496,0.024805 0.0992,0.024805 0.0496,0 0.0992,0 0.0744,0 0.0992,0 0.12402,0 0.0992,0.099219 0.0496,0.074414 0.0744,0.1488282 0.0248,0.049609 0.0992,0.099219 0.0496,0.074414 0,0.1984375 -0.0248,0.4960938 -0.24805,0.9177734 -0.22324,0.4216797 -0.27285,0.9177735 -0.29765,0.074414 -0.5457,0.074414 -0.42168,-0.024805 -0.74414,-0.2480469 -0.32246,-0.1984375 -0.59531,-0.4960937 -0.27286,-0.2976562 -0.5209,-0.5953125 -0.24805,-0.3224609 -0.54571,-0.5457031 -0.17363,-0.6945312 -0.34726,-1.5378906 -0.14883,-0.8433594 -0.5209,-1.43867186 0.0992,-0.22324218 0.0992,-0.54570312 0.0248,-0.49609374 -0.0992,-0.9673828 -0.0992,-0.49609372 -0.0496,-0.99218752 0,-0.2728515 0.0496,-0.5457031 0.0744,-0.2728515 0.0992,-0.5457031 0.0248,-0.4216797 -0.0992,-0.8185547 -0.0992,-0.396875 -0.0744,-0.8185546 0.0248,-0.1984375 0.0744,-0.3720704 0.0744,-0.1984374 0.19844,-0.3472656 -0.12403,-0.2976562 -0.0744,-0.5705078 0.0248,-0.4216797 0.0992,-0.79375 0.0744,-0.3720703 0.0992,-0.7441406 0,-0.1984375 -0.0248,-0.3720703 -0.0248,-0.1984375 -0.0744,-0.3720703 l -0.22324,-0.074414 q -0.14883,0 -0.29766,0.074414 -0.12402,0.074414 -0.22324,0.1736328 -0.0992,0.099219 -0.17363,0.1736328 -0.0744,0.049609 -0.14883,0.049609 -0.0496,0 -0.12402,0 -0.0496,-0.024805 -0.0992,-0.024805 -0.0496,0 -0.19844,0.099219 -0.12402,0.099219 -0.32246,0.2232421 -0.17363,0.099219 -0.34727,0.2232422 -0.17363,0.099219 -0.27285,0.1240235 -0.27285,-0.049609 -0.44648,-0.1736328 -0.14883,-0.1488282 -0.29766,-0.2728516 -0.12402,-0.1488281 -0.27285,-0.2480469 -0.14883,-0.1240234 -0.37207,-0.099219 -0.0744,-0.1488281 -0.0744,-0.322461 -0.0248,-0.1736328 0,-0.3472656 v -0.396875 q 0.17363,-0.3224609 0.47129,-0.5208984 0.27285,-0.2232422 0.59531,-0.3720703 0.32246,-0.1488281 0.64492,-0.2976562 0.32246,-0.1488285 0.59531,-0.3720705 h 0.22324 q 0.44649,0.02481 0.76895,-0.173633 0.34727,-0.198437 0.64492,-0.446484 0.29766,-0.272852 0.59531,-0.545703 0.32247,-0.272852 0.69454,-0.42168 0.27285,0.124024 0.5705,0.223242 0.29766,0.07441 0.62012,0.09922 0.32246,0 0.66973,-0.09922 0.34726,-0.09922 0.5457,-0.37207 0.12402,0.04961 0.19844,0.07441 0.0992,0 0.22324,0 0.37207,0.02481 0.74414,-0.09922 0.37207,-0.148828 0.71934,-0.347265 0.49609,0.0248 0.96738,-0.04961 0.49609,-0.09922 0.96738,-0.198437 0.4961,-0.09922 0.96738,-0.173633 0.4961,-0.09922 0.99219,-0.07441 0.81856,0.02481 1.61231,-0.148828 0.79375,-0.173633 1.6123,-0.124024 0.57051,0.0248 1.11621,0.09922 0.57051,0.04961 1.14102,0.0248 0.32246,0.148828 0.57051,0.272851 0.27285,0.09922 0.66972,0.04961 0.79375,0.669726 1.43867,1.562695 v 0.42168 q -0.0248,0.570508 -0.19843,1.1162107 -0.17364,0.5457031 -0.42168,1.0914062 -0.22325,0.5208985 -0.4961,1.0417969 -0.27285,0.4960937 -0.5209,0.9921875 -1.6123,1.4634765 -3.2246,2.9021484 -1.61231,1.4386718 -3.32383,2.77812493 -0.0496,0.24804687 -0.14883,0.44648437 -0.0744,0.19843749 -0.0992,0.42167968 0,0.12402343 0.0248,0.19843749 0.17363,0.0496094 0.29765,0.1984375 0.14883,0.12402344 0.0992,0.34726562 h 0.22324 q 0.12403,0 0.12403,0.0992188 l 0.39687,0.0248047 q 0.94258,0.0496094 1.88516,-0.0496094 0.94258,-0.0992188 1.88515,-0.22324218 0.96739,-0.12402344 1.90996,-0.22324219 0.94258,-0.12402343 1.88516,-0.14882812 0.22324,-0.0744141 0.47129,-0.12402343 0.24805,-0.0496094 0.44648,-0.1984375 h 0.0744 q 0.17363,0 0.24804,0.09921875 0.0992,0.09921875 0.27286,0.12402343 0.12402,0 0.24804,-0.0496094 0.14883,-0.04960938 0.29766,-0.07441406 0.34727,-0.09921875 0.71934,-0.12402344 0.39687,-0.02480469 0.76894,-0.07441406 1.43867,-0.12402344 2.85254,-0.14882812 1.41387,-0.0496094 2.82773,-0.37207031 0.12403,0.17363281 0.34727,0.24804687 0.22324,0.0496094 0.47129,0.12402344 0.24805,0.0496094 0.44648,0.12402343 0.22325,0.07441406 0.29766,0.29765625 z"/><path id="path974" fill="#293c85" fill-opacity="1" stroke-width=".265" d="m -304.98193,3.1813893 q 0,0.1984375 -0.17363,0.3224609 -0.17363,0.1240234 -0.39688,0.2480469 -0.22324,0.099219 -0.44648,0.2232421 -0.22324,0.099219 -0.29766,0.2728516 -0.27285,-0.074414 -0.5457,-0.099219 -0.24805,-0.024805 -0.49609,-0.024805 -0.32246,0 -0.66973,0.074414 -0.34727,0.049609 -0.5457,0.322461 -0.12403,-0.049609 -0.22324,-0.049609 -0.0744,0 -0.19844,0 -0.37207,0 -0.76895,0.049609 -0.37207,0.074414 -0.74414,0.074414 -0.19844,0 -0.39687,-0.024805 -0.17364,-0.024805 -0.32246,-0.1488281 -0.22325,0.074414 -0.47129,0.074414 -0.32246,0 -0.62012,-0.099219 -0.29766,-0.099219 -0.59531,-0.2232422 -0.27285,-0.1488281 -0.57051,-0.2728515 -0.29766,-0.1240235 -0.59531,-0.1984375 l -0.17364,-0.3472656 q -0.39687,-0.074414 -0.74414,-0.2232422 -0.32246,-0.1736328 -0.64492,-0.3720703 -0.32246,-0.1984375 -0.64492,-0.3720703 -0.29766,-0.1984375 -0.62012,-0.2728516 -0.12402,-0.099219 -0.22324,-0.1736328 -0.0992,-0.099219 -0.14883,-0.2728516 -0.32246,-0.074414 -0.59531,-0.1984375 -0.24805,-0.1488281 -0.5209,-0.2728515 -0.24805,-0.1488281 -0.57051,-0.24804689 -0.29765,-0.12402343 -0.71933,-0.14882812 -0.14883,-0.22324218 -0.42168,-0.42167968 -0.27285,-0.1984375 -0.54571,-0.1984375 -0.17363,0 -0.27285,0.0744141 v 0.12402344 q 0,0.29765625 0.17364,0.59531249 0.17363,0.2976562 0.44648,0.4216797 -0.0248,0.049609 -0.0248,0.1488281 0,0.1488281 0.0496,0.2976563 0.0744,0.1488281 0.24805,0.1984374 -0.0992,0.2728516 -0.24805,0.5705079 -0.14882,0.2728515 -0.37207,0.5208984 -0.22324,0.2480469 -0.49609,0.4216797 -0.24805,0.1488281 -0.57051,0.1488281 -0.0992,0.049609 -0.14883,0.1488281 -0.0248,0.099219 -0.0496,0.2232422 0,0.099219 -0.0496,0.1984375 -0.0248,0.099219 -0.0992,0.1488281 -0.0992,0.024805 -0.27285,0.024805 -0.24805,0 -0.42168,-0.074414 -0.17364,-0.074414 -0.37207,-0.1984375 V 4.074358 q 0,-0.2976563 -0.12403,-0.4712891 -0.0992,-0.1736328 -0.24804,-0.3224609 -0.12403,-0.1736328 -0.24805,-0.3472656 -0.0992,-0.1736328 -0.0992,-0.4712891 -0.0744,0.049609 -0.17363,0.074414 -0.0744,0.024805 -0.0992,0.099219 -0.0496,-0.2480468 -0.0496,-0.4216796 0,-0.4960938 0.14883,-0.9425782 0.17363,-0.44648432 0.17363,-0.94257806 v -0.37207031 q 0,-0.57050781 -0.0248,-1.11621093 -0.0248,-0.5457031 -0.0248,-1.0914062 0,-0.4712891 0.0248,-0.9177734 0.0248,-0.4712891 0.0992,-0.9425782 0.27286,-1.6371093 0.44649,-3.249414 0.19844,-1.6371093 0.62012,-3.2494142 -0.0248,-0.124023 -0.0744,-0.248047 -0.0248,-0.124023 -0.0248,-0.248047 0,-0.09922 0.0248,-0.124023 0.0992,-0.496094 0.44649,-0.818555 0.34726,-0.347265 0.89296,-0.347265 h 0.0744 q 0.29765,0.124023 0.44648,0.37207 0.17364,0.223242 0.5209,0.173633 0,0.04961 -0.0248,0.09922 0,0.04961 0,0.09922 0,0.272852 0.14882,0.396875 0.14883,0.124024 0.34727,0.272852 -0.12402,0.248047 -0.17363,0.570508 -0.0248,0.322461 -0.0496,0.6449216 -0.0248,0.3224609 -0.0992,0.6201172 -0.0496,0.2976562 -0.22324,0.4960937 0.0992,0.2480469 0.12402,0.4960937 0.0248,0.2480469 0.0248,0.5208985 0,0.2728515 -0.0248,0.5705078 -0.0248,0.2728515 -0.0248,0.5705078 0,0.2728515 0.0744,0.4960937 0.5457,0 0.62012,-0.5208984 0.64492,-0.1736328 1.14101,-0.4712891 0.5209,-0.3224609 0.99219,-0.6697265 0.47129,-0.3472656 0.91777,-0.7193359 0.47129,-0.3720704 1.0418,-0.6449219 v -0.049609 q 0,-0.1240234 0.0744,-0.1488281 0.0744,-0.049609 0.0248,-0.2232422 0.37207,-0.1240234 0.62012,-0.3224609 0.27285,-0.2232422 0.49609,-0.4712886 0.24805,-0.272852 0.47129,-0.520899 0.24805,-0.272851 0.5457,-0.471289 0.19844,-0.42168 0.34727,-0.892969 0.17363,-0.471289 0.44648,-0.868164 0.47129,0 1.01699,0.07441 0.57051,0.07441 0.96739,0.347266 -0.0496,0.198437 0.17363,0.272851 -0.27285,1.041797 -0.81855,1.885157 -0.54571,0.8185544 -1.41387,1.3890622 -0.12402,0.2728515 -0.32246,0.471289 -0.19844,0.1984375 -0.39688,0.396875 -0.19843,0.1736328 -0.39687,0.3720703 -0.19844,0.1984375 -0.32246,0.4712891 -0.29766,0.049609 -0.5209,0.1736328 -0.19844,0.1240234 -0.39688,0.2976563 -0.17363,0.1488281 -0.39687,0.2976562 -0.19844,0.1240234 -0.44649,0.1984375 -0.19843,0.2480469 -0.47129,0.4216797 -0.24804,0.1736328 -0.52089,0.3472656 -0.24805,0.1488281 -0.47129,0.3472656 -0.22324,0.1736328 -0.32246,0.4712891 h -0.64493 q -0.27285,0.471289 -0.71933,0.79375 -0.42168,0.2976562 -0.86817,0.5705078 0.0744,0.2976562 0.27286,0.4960937 0.19843,0.1736328 0.42168,0.3224609 0.24804,0.1488282 0.47128,0.322461 0.24805,0.1488281 0.42168,0.3720703 1.0418,0.396875 2.00918,0.91777341 0.96739,0.49609374 1.83555,1.21542966 0.0496,-0.0248047 0.12402,-0.0248047 0.19844,0 0.32247,0.12402343 0.12402,0.0992188 0.34726,0.0744141 0.0992,0.24804688 0.27285,0.34726562 0.17364,0.0744141 0.34727,0.12402344 0.19844,0.0496094 0.37207,0.14882816 0.17363,0.099219 0.24805,0.3472656 0.37207,0.024805 0.66972,0.1488281 0.32246,0.1240234 0.57051,0.396875 h 0.29766 q 0.79375,0 1.53789,0.1488281 0.74414,0.1488281 1.51308,0.1488281 0.39688,0 0.76895,-0.049609 0.37207,-0.074414 0.71933,-0.2480469 0.12403,0.074414 0.27286,0.1488281 0.14882,0.074414 0.32246,0.074414 0.12402,0 0.37207,-0.049609 0.0248,0.2728516 0.17363,0.5208984 0.17363,0.2480469 0.17363,0.5457032 z"/><path id="path976" fill="#293c85" fill-opacity="1" stroke-width=".265" d="m -295.60576,1.3210377 q 0,0.4216797 -0.22324,0.7441406 -0.19844,0.2976563 -0.14883,0.7441406 -0.34726,0.1984375 -0.5705,0.5208985 -0.22325,0.3224609 -0.42168,0.6697265 -1.63711,1.0666016 -3.52227,1.7115234 -1.86035,0.6697266 -3.84473,0.6697266 -0.12402,0 -0.22324,-0.1240234 -0.0992,-0.099219 -0.19844,-0.2232422 -0.0992,-0.1240235 -0.22324,-0.2480469 -0.0992,-0.099219 -0.24804,-0.099219 -0.17364,0 -0.27286,0.074414 0,-0.049609 0,-0.099219 0.0248,-0.024805 0.0248,-0.074414 0,-0.2976562 -0.0744,-0.6201172 -0.0744,-0.2976562 -0.0744,-0.5953125 0,-0.3472656 0.12402,-0.5705078 h 0.29766 q 0.24805,0 0.47129,-0.024805 0.24805,-0.049609 0.5209,-0.049609 0.27285,0 0.49609,0.1488281 1.36426,-0.049609 2.57969,-0.4960937 1.24023,-0.4712891 2.50527,-0.9177735 0.19844,-0.2728515 0.22324,-0.5953125 0.0496,-0.3472656 0.19844,-0.6449218 -0.64492,-0.54570314 -1.31465,-0.84335939 -0.64492,-0.32246093 -1.51308,-0.22324218 -0.5209,-0.32246094 -1.11621,-0.37207031 -0.57051,-0.0496094 -1.16582,-0.14882812 -0.14883,-0.0248047 -0.32246,-0.0496094 -0.14883,-0.0496094 -0.32247,-0.0496094 -0.12402,0 -0.24804,0.0744141 -0.0992,0.0496094 -0.0496,0.17363281 -0.12403,-0.1984375 -0.34727,-0.22324219 -0.19843,-0.0496094 -0.34726,-0.19843749 -0.79375,-0.0496094 -1.38907,-0.27285156 -0.59531,-0.24804688 -1.31464,-0.54570308 -0.19844,-0.074414 -0.39688,-0.099219 -0.17363,-0.049609 -0.34726,-0.1488281 -0.44649,-0.2232422 -0.71934,-0.5953125 -0.27285,-0.3720703 -0.42168,-0.8185547 -0.17363,-0.471289 -0.24805,-0.9673828 -0.0744,-0.4960937 -0.14882,-0.9177734 0.22324,-0.396875 0.42167,-0.8185547 0.17364,-0.4216797 0.29766,-0.8929687 0.14883,-0.074414 0.29766,-0.1240234 0.14883,-0.049609 0.32246,-0.1240235 -0.0248,-0.049609 -0.0248,-0.1240234 0,-0.1240235 0.0744,-0.2480469 0.0992,-0.1240234 0.0496,-0.2480469 0.5457,-0.4960937 1.04179,-1.0169921 0.5209,-0.5457031 0.89297,-1.190625 0.37207,-0.1240234 0.59531,-0.3720699 0.22325,-0.248047 0.44649,-0.496094 0.22324,-0.272852 0.49609,-0.471289 0.27285,-0.223242 0.69453,-0.272852 0.0992,-0.173633 0.27286,-0.272851 0.17363,-0.124024 0.34726,-0.223243 0.17363,-0.09922 0.32246,-0.223242 0.14883,-0.124023 0.22324,-0.347265 0.39688,0 0.71934,-0.148828 0.34727,-0.148829 0.66973,-0.322461 0.32246,-0.173633 0.64492,-0.322461 0.34726,-0.148828 0.74414,-0.148828 0.0992,0 0.19844,0.0248 0.0992,0 0.22324,0.02481 0.17363,0.173633 0.22324,0.42168 0.0744,0.223242 0.0992,0.496093 0.0248,0.272852 0.0248,0.545703 0.0248,0.272852 0.0992,0.496094 -0.22324,0.42168 -0.49609,0.84336 -0.24805,0.421679 -0.66973,0.6449215 h -0.0496 q -0.17363,0.024805 -0.32246,-0.074414 -0.14883,-0.099218 -0.34726,-0.099218 -0.12403,0 -0.19844,0.07441 -0.0496,0.049609 -0.12402,0.1240231 -0.0496,0.049609 -0.14883,0.099219 -0.0744,0.049609 -0.22324,0 -0.34727,0.1240234 -0.27286,0.4216797 -0.47128,0.049609 -0.79375,0.2976562 -0.32246,0.2232422 -0.59531,0.5208984 -0.27285,0.2728516 -0.5457,0.5208985 -0.27285,0.2232422 -0.64492,0.2480468 -0.42168,0.7441407 -1.0418,1.3146485 -0.59531,0.5705078 -0.99219,1.2898437 0.0744,0.1984375 0.0992,0.4216797 0.0248,0.2232422 0.0744,0.471289 0.22324,0.2976563 0.52089,0.5208985 0.32246,0.2232421 0.62012,0.4464843 h 0.0744 q 0.49609,0 0.91777,0.1984375 0.42168,0.1736328 0.89297,0.1736328 0.24804,0 0.42168,-0.099219 0.64492,0.1488281 1.26504,0.2480469 0.64492,0.099219 1.28984,0.1488281 0.32246,0.049609 0.64492,0.049609 0.34727,0 0.64492,0.074414 0.27286,0.074414 0.54571,0.1984375 0.27285,0.099219 0.5457,0.2232422 0.57051,0.2480469 1.0666,0.5457031 0.5209,0.2976563 0.91777,0.71933594 0.39688,0.39687499 0.62012,0.94257811 0.22324,0.52089843 0.22324,1.21542965 z"/><path id="path978" fill="#293c85" fill-opacity="1" stroke-width=".265" d="m -278.66415,-7.1373606 q -0.0992,0.2480469 -0.19844,0.4712891 -0.0992,0.2232421 -0.14883,0.4960937 -0.17363,0.1240234 -0.39687,0.1984375 -0.19844,0.049609 -0.42168,0.1240234 -0.22324,0.049609 -0.42168,0.1488282 -0.17363,0.074414 -0.27285,0.2480468 -0.0744,0.3720703 -0.0744,0.6945313 0,0.4216797 0.14883,0.7193359 -0.0744,0.2232422 -0.0992,0.4712891 -0.0248,0.2480468 -0.0248,0.471289 0,0.8185547 0.19844,1.6371094 0.19843,0.79374995 0.22324,1.61230463 0,0.12402343 -0.0248,0.27285155 -0.0248,0.14882813 -0.0248,0.27285156 0,0.52089846 0.39687,0.69453126 -0.0744,0.1240234 -0.0744,0.2232422 0,0.1984375 0.0496,0.3472656 0.0496,0.1488281 0.0248,0.3224609 0.12403,0.2480469 0.24805,0.4464844 0.12402,0.1736328 0.17363,0.4464844 -0.17363,0.3472656 -0.42168,0.6449218 -0.24804,0.2728516 -0.34726,0.6945313 -0.0992,-0.024805 -0.22324,-0.024805 -0.17364,0 -0.27286,0.074414 -0.0992,0.074414 -0.17363,0.1736328 -0.0496,0.1240235 -0.12402,0.2232422 -0.0744,0.1240235 -0.19844,0.1736328 h -0.0744 q -0.12403,0.024805 -0.22325,-0.024805 -0.0744,-0.024805 -0.14882,-0.024805 -0.0496,0 -0.19844,0.049609 -0.19844,-0.2480468 -0.27285,-0.5953125 -0.0744,-0.3224609 -0.0744,-0.6449218 0,-0.3472656 0.0992,-0.6201172 -0.27285,-0.2232422 -0.34726,-0.6697265 -0.0496,-0.4464844 -0.12403,-0.7441407 -0.19844,-0.91777339 -0.47129,-1.78593744 -0.24804,-0.86816404 -0.29765,-1.78593746 -0.0248,-0.3472656 -0.0248,-0.6697266 0,-0.3472656 0,-0.6945312 0,-0.2976562 0,-0.5953125 0,-0.3224609 0.0248,-0.6201172 0,-0.2232422 0.0248,-0.4216797 0.0496,-0.2232421 0.0496,-0.4464843 0,-0.2976563 -0.19844,-0.5705078 -1.76113,0.074414 -3.34863,0.6449218 -1.56269,0.5457032 -3.12539,1.3146485 -0.0992,0.5705078 -0.12402,1.1162109 -0.0248,0.5457031 -0.0248,1.1162109 0,0.4464844 0,1.09140623 0,0.62011718 0.0496,1.04179686 0.12402,0.71933591 0.71934,1.11621091 0.62011,0.3720703 1.24023,0.5705078 -0.0248,0.3720703 -0.14883,0.6449219 -0.12402,0.2480469 -0.32246,0.471289 -0.17363,0.1984375 -0.39687,0.396875 -0.22324,0.1984375 -0.44649,0.4464844 -0.19843,-0.1240234 -0.39687,-0.1736328 -0.19844,-0.049609 -0.42168,-0.049609 -0.22324,-0.024805 -0.44649,-0.049609 -0.22324,-0.024805 -0.44648,-0.099219 -0.27285,-0.3720703 -0.5457,-0.7441406 -0.27285,-0.3720703 -0.59532,-0.7441406 V 2.1643971 q 0,-0.6697266 -0.24804,-1.28984375 -0.24805,-0.62011718 -0.37207,-1.26503904 0.0744,-0.22324219 0.0992,-0.44648437 0.0248,-0.22324214 0.0248,-0.47128904 0,-0.4960938 -0.0496,-0.9673828 -0.0248,-0.4712891 0.0248,-0.9425781 h -0.12403 q -0.22324,0 -0.47129,0.1240234 -0.24804,0.099219 -0.49609,0.2480469 -0.22324,0.1240234 -0.44648,0.2480469 -0.19844,0.099219 -0.34727,0.099219 -0.0744,0 -0.14883,-0.024805 -0.0744,-0.024805 -0.17363,-0.024805 -0.12402,0 -0.29766,0.099219 -0.17363,0.099219 -0.37207,0.2232422 -0.22324,0.099219 -0.44648,0.1984375 -0.22324,0.099219 -0.44649,0.099219 -0.34726,0 -0.69453,-0.2976562 -0.0496,-0.1984375 -0.0248,-0.3720703 0,-0.1736329 0,-0.3720704 0,-0.1984374 -0.0744,-0.4216796 0.17364,-0.322461 0.47129,-0.4960938 0.27285,-0.1984375 0.59531,-0.3472656 0.29766,-0.1736328 0.62012,-0.3224609 0.32246,-0.1736328 0.54571,-0.4464844 h 0.14882 q 0.34727,0 0.62012,-0.1488281 0.29766,-0.1488281 0.66973,-0.1240235 0.12402,-0.049609 0.17363,-0.3720703 l 0.0992,0.024805 q 0.5457,0 0.96738,-0.3720703 0.27285,-1.5378906 0.44649,-3.1005859 0.17363,-1.5626951 0.17363,-3.1253901 0,-0.148829 -0.0992,-0.297657 -0.0496,-0.198437 -0.0496,-0.37207 0,-0.173633 0,-0.37207 0,-0.272852 0.0248,-0.570508 0.0248,-0.297656 0.12402,-0.595313 0.24805,-0.148828 0.5209,-0.148828 0.32246,0 0.62011,0.09922 0.32247,0.07441 0.62012,0.124023 0.22324,0.223243 0.32246,0.496094 0.12403,0.272852 0.14883,0.570508 0.0248,0.272852 0,0.570508 0,0.272851 0,0.545703 0,0.545703 0.12402,1.066601 0.12403,0.520899 0.12403,1.016993 0,0.1240231 -0.0992,0.1984371 -0.0744,0.049609 -0.0744,0.322461 0,0.2728515 0.0496,0.5705078 0.0496,0.2976562 0.0496,0.5953125 0,0.3472656 -0.0992,0.7193359 -0.0992,0.3720703 -0.17363,0.7193359 1.48828,-0.1240234 3.05098,-0.3720703 1.56269,-0.2480469 2.97656,-0.79375 0.0248,-0.049609 0.0248,-0.1488281 0,-0.1488281 -0.0248,-0.2976562 -0.0248,-0.1488282 -0.0248,-0.322461 0,-0.2976562 0.19843,-0.471289 -0.12402,-0.6945316 -0.17363,-1.3890626 -0.0496,-0.694531 -0.0496,-1.389062 0,-0.719336 0,-1.413868 0,-0.694531 -0.0248,-1.389062 0.19843,-0.124023 0.42168,-0.124023 0.27285,0 0.49609,0.148828 0.24805,0.124023 0.57051,0.124023 0.22324,0 0.37207,-0.07441 0.27285,0.248047 0.37207,0.644922 0.0992,0.396875 0.17363,0.818555 0.0744,0.421679 0.14883,0.843359 0.0992,0.396875 0.37207,0.644922 l 0.0248,0.07441 q 0,0.09922 -0.0992,0.148828 -0.0992,0.04961 -0.0992,0.198437 v 0.09922 q 0.0992,0.396875 0.14883,0.818555 0.0496,0.42168 0.0744,0.8681639 0.0496,0.4216797 0.12402,0.8433594 0.0744,0.396875 0.27285,0.7441406 0.12403,-0.024805 0.32247,-0.024805 0.49609,0 0.76894,0.3472657 0.29766,0.3224609 0.5209,0.6697265 z"/><path id="path980" fill="#293c85" fill-opacity="1" stroke-width=".265" d="m -261.37528,-9.9154855 q -0.14883,0.2232421 -0.17363,0.4960937 -0.0248,0.2728516 -0.0248,0.4960937 0,0.2976563 0,0.5953125 0.0248,0.2728516 0.0248,0.5457031 v 0.3720704 q -0.0496,0.1736328 -0.14883,0.3472656 -0.0992,0.1736328 -0.14883,0.3472656 -0.34727,0.9177734 -0.34727,1.8355468 v 0.049609 q -0.12402,0.2976563 -0.24804,0.5457031 -0.0992,0.2480469 -0.19844,0.4960938 -0.0992,0.2232422 -0.14883,0.4960937 -0.0496,0.2480469 -0.0248,0.5953125 -0.34727,0.8681641 -0.91778,1.5875 -0.5705,0.69453122 -1.11621,1.43867184 -0.5209,0.19843749 -0.96738,0.52089843 -0.42168,0.32246093 -0.81855,0.71933593 -0.76895,0.2480469 -1.51309,0.5705078 -0.74414,0.3224609 -1.33945,0.868164 -0.47129,0.049609 -0.94258,0.1488282 -0.47129,0.099219 -0.91778,0.2976562 h -0.29765 q -0.22324,0 -0.32246,-0.099219 -0.32246,0.1736328 -0.66973,0.2480468 -0.34726,0.049609 -0.69453,0.049609 -0.44648,0 -0.89297,-0.049609 -0.42168,-0.074414 -0.86816,-0.1488281 -0.24805,-0.3472656 -0.69453,-0.5208984 -0.44649,-0.1984375 -0.79375,-0.3720703 -0.71934,-0.9921875 -1.0418,-1.90996093 -0.32246,-0.94257811 -0.66973,-2.10839837 0.0496,-0.3472657 0.17364,-0.6697266 0.12402,-0.3472656 0.0992,-0.7441406 0.44649,-1.2898437 1.16582,-2.3316406 0.74414,-1.0666015 1.68672,-2.0339843 0,-0.1488282 0.0496,-0.2480469 0.0744,-0.099219 0.0248,-0.2976563 0.0248,0.024805 0.0992,0.024805 0.19843,0 0.24804,-0.099219 0.0496,-0.1240235 0.0248,-0.2728516 0.89297,-0.5705078 1.6123,-1.3146484 0.74414,-0.7441405 1.68672,-1.2402345 0.0744,-0.223242 0.24805,-0.37207 0.17363,-0.148828 0.27285,-0.347266 0.79375,-0.223242 1.43867,-0.669726 0.64492,-0.446485 1.36426,-0.79375 0.39687,-0.223243 0.74414,-0.297657 0.37207,-0.09922 0.79375,-0.198437 0.14883,-0.04961 0.27285,-0.07441 0.12402,-0.0248 0.27285,-0.0248 0.44649,0 0.86817,0.173633 0.42168,0.148828 0.86816,0.148828 0.12402,0 0.19844,0 0.0992,-0.0248 0.19844,-0.04961 0.42168,0.520898 1.0666,0.79375 0.14883,0.37207 0.34726,0.644922 0.22324,0.272851 0.44649,0.545703 0.22324,0.248047 0.39687,0.570508 0.19844,0.297656 0.24805,0.7193355 z m -2.48047,1.2898437 q 0,-0.1240235 -0.0248,-0.2232422 -0.24805,-0.074414 -0.47129,-0.1984375 -0.22325,-0.1240234 -0.4961,-0.1240234 -0.17363,0 -0.34726,0.074414 -0.0248,-0.1736328 -0.14883,-0.2480468 -0.0992,-0.074414 -0.24805,-0.1240235 -0.12402,-0.074414 -0.27285,-0.099219 -0.12402,-0.049609 -0.22324,-0.1488282 -0.0744,-0.1984374 -0.17363,-0.3968749 -0.0744,-0.223242 -0.29766,-0.322461 -0.22324,0.223242 -0.5209,0.37207 -0.29766,0.1240238 -0.62012,0.2480472 -0.29765,0.1240234 -0.59531,0.2976562 -0.27285,0.1736329 -0.47129,0.4216797 h -0.44648 q -0.14883,0.2728516 -0.42168,0.4216797 -0.27285,0.1240234 -0.47129,0.3720703 -0.39688,0.1984375 -0.74414,0.4960938 -0.32246,0.2728515 -0.64492,0.5953124 -0.32246,0.2976563 -0.64493,0.6201172 -0.29765,0.322461 -0.64492,0.5953125 -0.32246,0.6945313 -0.71933,1.2154297 -0.37207,0.4960937 -0.71934,1.0169922 -0.32246,0.5208984 -0.57051,1.1410156 -0.22324,0.5953125 -0.22324,1.4882812 0,0.1240234 0,0.24804687 0,0.12402343 0.0248,0.24804687 0.32246,0.34726562 0.52089,0.74414061 0.22325,0.396875 0.71934,0.57050781 0.49609,0.19843749 1.0418,0.17363281 0.5705,-0.0248047 1.0914,0.12402343 1.19063,-0.22324218 2.28203,-0.71933593 1.11622,-0.52089843 2.1084,-1.24023435 0.14883,-0.12402342 0.34727,-0.24804692 0.19844,-0.1488281 0.32246,-0.2976562 0.12402,-0.1240234 0.19844,-0.2728516 0.0992,-0.1488281 0.19843,-0.2728515 0.19844,-0.3224609 0.44649,-0.6449219 0.24805,-0.3224609 0.5209,-0.5953125 0.12402,-0.5457031 0.32246,-1.0417968 0.19844,-0.5208985 0.39687,-1.0169922 0.19844,-0.4960937 0.32246,-1.0169922 0.14883,-0.5208984 0.14883,-1.0914062 0,-0.1240234 -0.0248,-0.2728516 0,-0.1488281 -0.0248,-0.2728515 0.19844,-0.2728516 0.19844,-0.5953125 z"/><path id="path982" fill="#293c85" fill-opacity="1" stroke-width=".265" d="m -240.2913,-9.3449777 q 0,0.3472656 -0.0248,0.6945312 -0.0248,0.3472656 -0.0744,0.6945312 -0.17363,0.2480469 -0.34726,0.4464844 -0.14883,0.1736328 -0.19844,0.4464844 -0.27285,0.1984375 -0.62012,0.5457031 -0.32246,0.3472656 -0.27285,0.6945312 h -0.34727 q -0.29765,0.4464844 -0.69453,0.7689453 -0.39687,0.322461 -0.84336,0.6201172 -0.42168,0.2728516 -0.86816,0.5705078 -0.42168,0.2728516 -0.79375,0.6449219 -0.19844,0.024805 -0.32246,0.074414 -0.12402,0.049609 -0.32246,0.024805 -0.76895,0.4960938 -1.61231,0.8681641 -0.81855,0.3720703 -1.66191,0.7441406 -0.81856,0.3472656 -1.63711,0.7441406 -0.81856,0.396875 -1.5627,0.91777343 -0.0744,-0.0248047 -0.19843,-0.0248047 -0.22325,0 -0.44649,0.0744141 -0.22324,0.0496094 -0.44648,0.0496094 -0.0992,0 -0.27285,-0.0248047 -0.14883,-0.0248047 -0.22325,-0.0744141 -0.12402,-0.07441407 -0.22324,-0.22324219 -0.0992,-0.14882812 -0.14883,-0.32246093 -0.0496,-0.1984375 -0.0744,-0.37207031 -0.0248,-0.17363281 -0.0248,-0.2976562 0,-0.1488282 0.0248,-0.322461 0.0248,-0.1736328 0.0744,-0.3224609 0.71934,-0.049609 1.43868,-0.3720703 0.74414,-0.3224609 1.41386,-0.6201172 0.17364,-0.074414 0.27285,-0.1736328 0.12403,-0.1240234 0.24805,-0.1984375 0.12402,-0.099219 0.27285,-0.1736328 0.14883,-0.074414 0.37207,-0.074414 h 0.0744 q 1.56269,-0.7193359 3.05097,-1.5626953 1.51309,-0.8433593 3.00137,-1.7115234 0.0744,-0.2232422 0.22324,-0.4464843 0.17364,-0.2232422 0.32246,-0.4216797 0.14883,-0.2232422 0.27286,-0.4464844 0.12402,-0.2232422 0.12402,-0.4464844 0,-0.4464843 -0.42168,-0.7441406 h -0.0992 q -0.29766,0 -0.5209,-0.074414 -0.22324,-0.099219 -0.42168,-0.1736328 -0.19843,-0.099219 -0.44648,-0.1488282 -0.24805,-0.074414 -0.57051,-0.049609 -0.12402,-0.099219 -0.39687,-0.1736329 -0.27286,-0.074414 -0.44649,-0.074414 -0.89297,0 -1.76113,0.1240234 -0.86817,0.099219 -1.73633,0.1240235 -0.22324,0.1240234 -0.42168,0.2232421 -0.19844,0.099219 -0.47129,0.099219 -0.12402,0 -0.22324,0 -0.0992,-0.024805 -0.22324,-0.049609 -0.47129,0.1984375 -1.0666,0.3472656 -0.59532,0.1240235 -1.19063,0.322461 -0.57051,0.1736328 -1.0666,0.4464843 -0.49609,0.2728516 -0.76895,0.7441407 0,0.1240234 0.0496,0.2232421 0.0496,0.074414 0.0496,0.1984375 v 0.099219 q -0.14883,0.1488281 -0.19844,0.3472656 -0.0496,0.1736328 -0.0744,0.3720703 -0.0248,0.1736328 -0.0744,0.3720703 -0.0248,0.1736328 -0.17364,0.3472656 0.0992,0.3720703 0.0992,0.8185547 0,0.4960938 -0.0744,0.9921875 -0.0496,0.4960937 -0.0496,0.9921875 0,0.471289 0.0992,0.8433593 -0.14883,0.1488282 -0.12403,0.4464844 0.0248,0.2976563 -0.12402,0.44648438 0,0.1984375 0.0992,0.27285156 0.12402,0.0744141 0.14883,0.24804687 -0.0992,0.42167968 -0.0992,0.91777342 0,0.71933597 0.14883,1.46347657 0.17363,0.7441406 0.39687,1.4634765 0.39688,-0.1240234 0.84336,-0.1984375 0.47129,-0.099219 0.89297,-0.099219 0.0744,0 0.14883,0.024805 0.0744,0 0.14883,0 0.0496,0.2728515 0.19843,0.4960937 0.14883,0.2232422 0.27286,0.4960937 -0.12403,0.1736329 -0.22325,0.2728516 -0.0744,0.1240234 -0.0744,0.3224609 -0.34727,0.024805 -0.57051,0.1736328 -0.22324,0.1736329 -0.49609,0.3720703 h -0.0992 q -0.42168,0 -0.69453,0.1488282 -0.27285,0.1736328 -0.62012,0.3720703 -0.29766,-0.1240235 -0.59531,-0.1240235 -0.32246,0 -0.64492,0.1240235 -0.39688,-0.1736328 -0.64493,-0.5457031 -0.24804,-0.3472657 -0.42168,-0.79375 -0.17363,-0.4216797 -0.32246,-0.8681641 -0.12402,-0.4464843 -0.29765,-0.8185547 V 2.412444 q 0,-0.5705078 -0.0992,-1.0914063 -0.0744,-0.5457031 -0.0744,-1.1162109 0,-0.22324218 0.0248,-0.47128906 0.0496,-0.24804687 0.14883,-0.47128905 -0.0496,-0.22324218 -0.0496,-0.42167969 0,-0.2232422 0,-0.471289 0,-0.7441407 0.0496,-1.4882813 0.0744,-0.7441406 0.0744,-1.4882812 0,-0.5457031 -0.0744,-1.1162109 -0.12403,0.049609 -0.22324,0.099219 -0.0992,0.049609 -0.22325,0.049609 -0.12402,0 -0.24804,-0.024805 -0.0992,-0.024805 -0.19844,-0.049609 -0.24805,-0.2232421 -0.34727,-0.5457031 -0.0992,-0.3224609 -0.27285,-0.5953125 0,-0.471289 0.14883,-0.7689453 0.12402,-0.3224609 0.32246,-0.5705078 0.19844,-0.2728515 0.39688,-0.5208984 0.22324,-0.2480469 0.37207,-0.6201172 h 0.0992 q 0.39688,0 0.79375,-0.2480469 0.39688,-0.2728515 0.89297,-0.2728515 0.17364,-0.2232419 0.47129,-0.3720699 0.29766,-0.173633 0.62012,-0.272852 0.34727,-0.09922 0.66973,-0.124023 0.34726,-0.04961 0.64492,-0.04961 0.0992,-0.173633 0.29765,-0.223242 0.19844,-0.07441 0.39688,-0.124023 0.22324,-0.07441 0.39687,-0.124024 0.19844,-0.07441 0.32247,-0.248047 0.19843,0.04961 0.37207,0.04961 0.32246,0 0.62011,-0.07441 0.29766,-0.09922 0.59532,-0.198438 0.29765,-0.124023 0.59531,-0.223242 0.32246,-0.09922 0.66972,-0.09922 0.12403,0 0.24805,0.02481 0.12402,0 0.24805,0 0.19844,0 0.22324,-0.148828 0.0496,-0.148828 0.17363,-0.223242 0.0744,0.0248 0.27285,0.0248 0.4961,0 0.96739,-0.07441 0.47129,-0.09922 0.96738,-0.09922 0.22324,0 0.44648,0.02481 0.22325,0.0248 0.44649,0.124024 0.0496,-0.07441 0.0992,-0.124024 0.0496,-0.04961 0.0744,-0.124023 1.21543,0.07441 2.28203,0.496093 1.09141,0.42168 2.25723,0.744141 0.14883,0.223242 0.34727,0.396875 0.22324,0.173633 0.42167,0.347266 0.22325,0.173632 0.42168,0.347265 0.19844,0.1736331 0.34727,0.4216799 z"/><path id="path984" fill="#293c85" fill-opacity="1" stroke-width=".265" d="m -226.35107,1.3210377 q 0,0.4216797 -0.22324,0.7441406 -0.19844,0.2976563 -0.14883,0.7441406 -0.34727,0.1984375 -0.57051,0.5208985 -0.22324,0.3224609 -0.42168,0.6697265 -1.63711,1.0666016 -3.52226,1.7115234 -1.86036,0.6697266 -3.84473,0.6697266 -0.12402,0 -0.22324,-0.1240234 -0.0992,-0.099219 -0.19844,-0.2232422 -0.0992,-0.1240235 -0.22324,-0.2480469 -0.0992,-0.099219 -0.24805,-0.099219 -0.17363,0 -0.27285,0.074414 0,-0.049609 0,-0.099219 0.0248,-0.024805 0.0248,-0.074414 0,-0.2976562 -0.0744,-0.6201172 -0.0744,-0.2976562 -0.0744,-0.5953125 0,-0.3472656 0.12402,-0.5705078 h 0.29765 q 0.24805,0 0.47129,-0.024805 0.24805,-0.049609 0.5209,-0.049609 0.27285,0 0.4961,0.1488281 1.36425,-0.049609 2.57968,-0.4960937 1.24024,-0.4712891 2.50528,-0.9177735 0.19843,-0.2728515 0.22324,-0.5953125 0.0496,-0.3472656 0.19844,-0.6449218 -0.64493,-0.54570314 -1.31465,-0.84335939 -0.64492,-0.32246093 -1.51309,-0.22324218 -0.5209,-0.32246094 -1.11621,-0.37207031 -0.57051,-0.0496094 -1.16582,-0.14882812 -0.14883,-0.0248047 -0.32246,-0.0496094 -0.14883,-0.0496094 -0.32246,-0.0496094 -0.12402,0 -0.24805,0.0744141 -0.0992,0.0496094 -0.0496,0.17363281 -0.12402,-0.1984375 -0.34726,-0.22324219 -0.19844,-0.0496094 -0.34727,-0.19843749 -0.79375,-0.0496094 -1.38906,-0.27285156 -0.59531,-0.24804688 -1.31465,-0.54570308 -0.19844,-0.074414 -0.39687,-0.099219 -0.17364,-0.049609 -0.34727,-0.1488281 -0.44648,-0.2232422 -0.71934,-0.5953125 -0.27285,-0.3720703 -0.42168,-0.8185547 -0.17363,-0.471289 -0.24804,-0.9673828 -0.0744,-0.4960937 -0.14883,-0.9177734 0.22324,-0.396875 0.42168,-0.8185547 0.17363,-0.4216797 0.29766,-0.8929687 0.14882,-0.074414 0.29765,-0.1240234 0.14883,-0.049609 0.32246,-0.1240235 -0.0248,-0.049609 -0.0248,-0.1240234 0,-0.1240235 0.0744,-0.2480469 0.0992,-0.1240234 0.0496,-0.2480469 0.5457,-0.4960937 1.0418,-1.0169921 0.5209,-0.5457031 0.89297,-1.190625 0.37207,-0.1240234 0.59531,-0.3720699 0.22324,-0.248047 0.44648,-0.496094 0.22325,-0.272852 0.4961,-0.471289 0.27285,-0.223242 0.69453,-0.272852 0.0992,-0.173633 0.27285,-0.272851 0.17363,-0.124024 0.34727,-0.223243 0.17363,-0.09922 0.32246,-0.223242 0.14882,-0.124023 0.22324,-0.347265 0.39687,0 0.71933,-0.148828 0.34727,-0.148829 0.66973,-0.322461 0.32246,-0.173633 0.64492,-0.322461 0.34727,-0.148828 0.74414,-0.148828 0.0992,0 0.19844,0.0248 0.0992,0 0.22324,0.02481 0.17364,0.173633 0.22325,0.42168 0.0744,0.223242 0.0992,0.496093 0.0248,0.272852 0.0248,0.545703 0.0248,0.272852 0.0992,0.496094 -0.22324,0.42168 -0.4961,0.84336 -0.24804,0.421679 -0.66972,0.6449215 h -0.0496 q -0.17363,0.024805 -0.32246,-0.074414 -0.14883,-0.099218 -0.34727,-0.099218 -0.12402,0 -0.19844,0.07441 -0.0496,0.049609 -0.12402,0.1240231 -0.0496,0.049609 -0.14883,0.099219 -0.0744,0.049609 -0.22324,0 -0.34727,0.1240234 -0.27285,0.4216797 -0.47129,0.049609 -0.79375,0.2976562 -0.32246,0.2232422 -0.59531,0.5208984 -0.27285,0.2728516 -0.54571,0.5208985 -0.27285,0.2232422 -0.64492,0.2480468 -0.42168,0.7441407 -1.0418,1.3146485 -0.59531,0.5705078 -0.99218,1.2898437 0.0744,0.1984375 0.0992,0.4216797 0.0248,0.2232422 0.0744,0.471289 0.22324,0.2976563 0.5209,0.5208985 0.32246,0.2232421 0.62012,0.4464843 h 0.0744 q 0.49609,0 0.91777,0.1984375 0.42168,0.1736328 0.89297,0.1736328 0.24805,0 0.42168,-0.099219 0.64492,0.1488281 1.26504,0.2480469 0.64492,0.099219 1.28984,0.1488281 0.32247,0.049609 0.64493,0.049609 0.34726,0 0.64492,0.074414 0.27285,0.074414 0.5457,0.1984375 0.27285,0.099219 0.5457,0.2232422 0.57051,0.2480469 1.06661,0.5457031 0.52089,0.2976563 0.91777,0.71933594 0.39687,0.39687499 0.62012,0.94257811 0.22324,0.52089843 0.22324,1.21542965 z"/></g><rect id="rect884" width="169.987" height="3.024" x="-396.338" y="13.433" fill="#293c85" fill-opacity="1" stroke="none" stroke-dasharray="none" stroke-miterlimit="4" stroke-opacity=".945" stroke-width=".18" opacity="1"/></g></svg>