<svg width="1440" height="222" viewBox="0 0 1440 222" fill="none" xmlns="http://www.w3.org/2000/svg">
<g filter="url(#filter0_d)">
<path opacity="0.25" d="M-306.481 95.7054C508.595 179.964 1518.88 95.7054 1518.88 95.7054C1518.88 95.7054 2183.12 900.732 1518.88 782.972C854.654 665.213 198.03 817.488 -306.481 782.972C-810.992 748.457 -1121.56 11.4467 -306.481 95.7054Z" fill="#E7ECFF"/>
</g>
<g clip-path="url(#clip0)" filter="url(#filter1_d)">
<path opacity="0.25" d="M370.723 63.2041C1182.36 175.857 2194.98 126.908 2194.98 126.908C2194.98 126.908 2830.71 954.626 2170.99 813.757C1511.28 672.888 849.737 802.154 346.738 750.052C-156.261 697.951 -440.916 -49.4491 370.723 63.2041Z" fill="#E7ECFF"/>
</g>
<path d="M1353.14 83.8102C1371.02 85.3746 1386.79 72.1474 1388.35 54.2664C1389.92 36.3855 1376.69 20.6219 1358.81 19.0575C1340.93 17.4932 1325.16 30.7204 1323.6 48.6013C1322.04 66.4823 1335.26 82.2458 1353.14 83.8102Z" fill="#41412E"/>
<path d="M1343.13 91.9995L1344.32 89.5886L1325.36 102.826L1302.96 112.861C1302.96 112.861 1295.71 70.4397 1295 69.6038C1294.3 68.7679 1282.87 38.3621 1275.45 51.6419C1268.02 64.9218 1285.57 74.5822 1285.57 74.5822C1285.57 74.5822 1281.73 125.127 1300.41 126.374C1319.08 127.62 1343.65 112.938 1344.17 111.437C1344.69 109.935 1343.13 91.9995 1343.13 91.9995Z" fill="#FFB8B8"/>
<path d="M1349.07 84.4577C1359.8 85.3964 1369.26 77.4601 1370.2 66.7315C1371.14 56.0029 1363.2 46.5448 1352.47 45.6062C1341.74 44.6675 1332.28 52.6038 1331.35 63.3324C1330.41 74.061 1338.34 83.5191 1349.07 84.4577Z" fill="#FFB8B8"/>
<path d="M1352.9 79.5222C1352.9 79.5222 1357.37 86.5068 1355.75 87.1407C1354.13 87.7747 1345.17 87.3788 1339.17 93.4467C1333.16 99.5146 1343.74 117.117 1343.74 117.117L1392.19 90.7169L1374.1 82.929C1374.1 82.929 1361.9 74.8806 1362.93 67.6016L1352.9 79.5222Z" fill="#FFB8B8"/>
<path d="M1396.46 294.386L1345.02 289.887C1343.97 268.375 1344.33 248.778 1344.33 248.778C1344.33 248.778 1341.86 268.306 1338.01 289.273L1271.93 283.492C1286.78 221.71 1337.12 157.71 1337.12 157.71C1337.12 157.71 1338.32 148.497 1339.61 147.056C1340.9 145.621 1333.21 144.559 1330.75 132.7C1329.25 125.46 1331.56 121.011 1333.59 118.648C1334.29 117.794 1335.12 117.058 1336.06 116.47C1336.06 116.47 1337.54 108.452 1336.87 107.228C1336.78 107.068 1337.59 106.604 1339.07 105.919C1340.31 105.345 1342.01 104.617 1344.04 103.787C1355.67 99.0031 1378.1 90.7021 1385.78 87.8778C1387.46 87.2536 1388.44 86.8982 1388.44 86.8982L1401.16 92.6677C1411.28 97.044 1409.36 119.004 1409.36 119.004L1408.69 119.848L1390.86 142.279L1380.51 155.296C1382.69 157.036 1377.22 166.264 1377.22 166.264C1377.22 166.264 1382.99 176.302 1387.09 191.213C1389.43 199.516 1390.76 208.066 1391.08 216.682C1391.27 222.265 1390.92 227.854 1390.02 233.367C1386.97 251.8 1391.35 274.91 1396.46 294.386Z" fill="#C7A3FF"/>
<path d="M1400.85 94.4426C1400.04 93.8809 1399.02 93.7112 1398.07 93.9787C1397.12 94.2462 1396.33 94.9237 1395.92 95.8304C1394.49 98.9258 1392.74 105.486 1391.95 119.375C1390.48 144.917 1389.34 162.32 1389.34 162.32L1385.97 200.92C1385.97 200.92 1365.94 236.506 1375.09 237.307C1384.25 238.108 1393.3 209.34 1393.3 209.34C1393.3 209.34 1405.58 165.686 1403.59 157.732C1403.59 157.732 1415.78 105.06 1400.85 94.4426Z" fill="#FFB8B8"/>
<path d="M1377.49 40.7681C1386.29 41.5383 1394.05 35.0264 1394.82 26.2235C1395.59 17.4206 1389.08 9.66007 1380.28 8.88991C1371.47 8.11976 1363.71 14.6316 1362.94 23.4345C1362.17 32.2375 1368.68 39.998 1377.49 40.7681Z" fill="#41412E"/>
<defs>
<filter id="filter0_d" x="-812" y="89" width="2630.1" height="713.738" filterUnits="userSpaceOnUse" color-interpolation-filters="sRGB">
<feFlood flood-opacity="0" result="BackgroundImageFix"/>
<feColorMatrix in="SourceAlpha" type="matrix" values="0 0 0 0 0 0 0 0 0 0 0 0 0 0 0 0 0 0 127 0"/>
<feOffset dy="4"/>
<feGaussianBlur stdDeviation="2"/>
<feColorMatrix type="matrix" values="0 0 0 0 0 0 0 0 0 0 0 0 0 0 0 0 0 0 0.25 0"/>
<feBlend mode="normal" in2="BackgroundImageFix" result="effect1_dropShadow"/>
<feBlend mode="normal" in="SourceGraphic" in2="effect1_dropShadow" result="shape"/>
</filter>
<filter id="filter1_d" x="-159" y="39" width="2690.12" height="809.366" filterUnits="userSpaceOnUse" color-interpolation-filters="sRGB">
<feFlood flood-opacity="0" result="BackgroundImageFix"/>
<feColorMatrix in="SourceAlpha" type="matrix" values="0 0 0 0 0 0 0 0 0 0 0 0 0 0 0 0 0 0 127 0"/>
<feOffset dy="4"/>
<feGaussianBlur stdDeviation="2"/>
<feColorMatrix type="matrix" values="0 0 0 0 0 0 0 0 0 0 0 0 0 0 0 0 0 0 0.25 0"/>
<feBlend mode="normal" in2="BackgroundImageFix" result="effect1_dropShadow"/>
<feBlend mode="normal" in="SourceGraphic" in2="effect1_dropShadow" result="shape"/>
</filter>
<clipPath id="clip0">
<rect width="2659" height="709" fill="white" transform="translate(-130.256 39) rotate(2)"/>
</clipPath>
</defs>
</svg>
